<svg id="Layer_1" data-name="Layer 1" xmlns="http://www.w3.org/2000/svg" viewBox="0 0 741.1 416.87"><defs><style>.cls-1{fill:#bfb67f;}.cls-2{fill:#16140a;}.cls-3{fill:#ba3e4a;}</style></defs><polygon class="cls-1" points="0.33 389.05 0 -0.55 741.1 -0.55 741.1 19.04 0.33 389.05"/><polygon class="cls-2" points="741.1 19.04 741.1 416.87 0 416.87 0.33 389.05 741.1 19.04"/><path class="cls-1" d="M295.44,361.25l3.72-8.83-29.1-56.23-9.35-2.07-.5-3.83L291,274.37c7.6-3.93,14.81-6,20.85-6,8,0,14,3.52,17.43,10.17,4.53,8.74,2.44,18.67-5.68,27.55,15.31,9.88,29.25,17.83,43.47,17.83L368.9,325l.26.5-.73,2.67c-7.39,4.71-13.92,6.9-20.54,6.9h0c-12.16,0-24.13-7.46-42.24-18.77l-3.18-2v-3.48c11.09-6.93,14.47-14.18,10.34-22.17-2.37-4.58-6-7-10.45-7a18.19,18.19,0,0,0-8.29,2.29l-7.47,3.86,29,56.07L325,346l.5,3.84-27.17,14.06Z"/><path class="cls-2" d="M311.83,270.41c6.8,0,12.35,2.76,15.61,9.07,4.7,9.09,1.26,18.84-7.08,27,16.8,10.93,31.5,19.53,46.69,19.53h0l.26.5C360.19,331,354,333,347.89,333c-12.24,0-24.45-8.05-44.35-20.43,14.17-8.85,14.86-17.56,11.08-24.86-2.81-5.43-7.15-8.11-12.27-8.11a20.37,20.37,0,0,0-9.24,2.52L283.82,287l30.39,58.75,10.3,2.27-27.18,14.06,4.1-9.72-30-57.94-10.29-2.28,30.77-15.92c7.12-3.68,14-5.78,19.91-5.78m0-4.11h0c-6.46,0-13.79,2.1-21.8,6.24l-30.77,15.92,1,7.67,8.42,1.85,28.21,54.53-3.35,7.94,5.68,5.25,27.18-14.06-1-7.66L317,342.12l-12.44-24.05c18.42,11.49,30.59,19.09,43.35,19.09,7,0,13.9-2.3,21.65-7.22l1.44-5.36-.26-.5-3.65-2.22c-13.08,0-26.13-7.13-40.38-16.23,7.4-9.07,9-19.09,4.4-28-3.82-7.39-10.48-11.29-19.26-11.29Zm-22.47,22.43,5.64-2.92a16.34,16.34,0,0,1,7.35-2.06c3.7,0,6.6,2,8.62,5.89,1.44,2.79,5.27,10.19-9.6,19.48v2.82l-12-23.21Z"/><path class="cls-1" d="M378.51,320.05c-11.08,0-21.11-6.6-26.83-17.65-4.15-8-4.92-16.3-2.21-23.93a30.36,30.36,0,0,1,14.95-16.64,27.58,27.58,0,0,1,12.69-3.33c8.37,0,15.46,4.72,20,13.29l-.88,2.79-31.44,16.27c4.15,7.94,9.9,12.31,16.22,12.31a17.46,17.46,0,0,0,8-2.12c4.87-2.52,8.71-6.7,11.44-12.41l2.48-1.08.75.24,1.41,1.63c2,12.16-2.66,21.85-13.16,27.28A29,29,0,0,1,378.51,320.05ZM370,269.45a6.79,6.79,0,0,0-3.12.8c-4.32,2.24-6.09,6.91-4.94,12.75l15.88-8.21C375.6,271.41,372.77,269.45,370,269.45Z"/><path class="cls-2" d="M377.11,260.55c7,0,13.64,3.62,18.16,12.2L362,290l.88,1.7c4.48,8.67,10.85,13.56,18.11,13.56a19.39,19.39,0,0,0,9-2.36c4.1-2.12,8.82-6,12.34-13.35l.76.24c2.14,12.95-3.79,20.83-12.08,25.12A27,27,0,0,1,378.51,318c-10,0-19.49-5.88-25-16.54-8.21-15.88-1.33-31,11.86-37.79a25.8,25.8,0,0,1,11.75-3.11M360.59,286l20.08-10.39c-2.65-5.12-6.56-8.22-10.68-8.22a8.77,8.77,0,0,0-4.06,1c-5.7,2.94-7.92,9.41-5.34,17.58m16.52-29.57A29.69,29.69,0,0,0,363.47,260a32.45,32.45,0,0,0-15.94,17.78c-2.9,8.18-2.1,17,2.32,25.56,6.08,11.75,16.79,18.77,28.66,18.77a31,31,0,0,0,14.35-3.59c11.35-5.87,16.41-16.33,14.25-29.44l-2.81-3.25-.76-.24-5,2.15a23.92,23.92,0,0,1-10.52,11.47,15.42,15.42,0,0,1-7.07,1.9c-5,0-9.74-3.32-13.39-9.41l29.56-15.3,1.75-5.56c-4.89-9.28-12.63-14.4-21.8-14.4ZM363.65,279.8c0-2.86.81-6,4.17-7.72a4.57,4.57,0,0,1,2.17-.57,6.66,6.66,0,0,1,4.71,2.57l-11.05,5.72Z"/><path class="cls-1" d="M424.79,297.3c-5.72,0-10.4-2.95-13.17-8.31a16.93,16.93,0,0,1,1.06-17.65l.76-.68L432.2,261l-2.93-5.67c-2.94-5.68-5.65-6.33-7.43-6.33a12.21,12.21,0,0,0-5.48,1.64c-4.6,2.38-8.35,6.26-11.44,11.87l-2.43,1-.76-.24-1.43-2c.31-11.55,6.17-21.11,16.07-26.23a22.29,22.29,0,0,1,10.21-2.75c6.66,0,12.16,3.82,15.91,11.06l11.58,22.38c.95,1.85,1.93,2.79,2.91,2.79a3.76,3.76,0,0,0,1.65-.5c1.28-.66,2.27-1.54,3.52-4l2.46-1,.76.24,1.41,1.67c1.19,8.27-1.27,13.86-7.52,17.1a14.58,14.58,0,0,1-6.7,1.74,12.51,12.51,0,0,1-7.11-2.25,21.36,21.36,0,0,1-11.17,13.43A20.69,20.69,0,0,1,424.79,297.3Zm-.07-23.16a9.21,9.21,0,0,0,1.11,5.47c1.15,2.22,2.68,3.35,4.54,3.35h0a6.58,6.58,0,0,0,2.95-.8c2.45-1.26,4.37-3.78,5.87-7.69L436,268.31Z"/><path class="cls-2" d="M426.58,234.25c5.78,0,10.67,3.35,14.08,9.95l11.58,22.38c1.49,2.88,3.1,3.9,4.74,3.9a5.65,5.65,0,0,0,2.6-.73c1.8-.93,3-2.2,4.41-4.94l.76.24c1.17,8.13-1.54,12.45-6.44,15a12.41,12.41,0,0,1-5.75,1.51,11.06,11.06,0,0,1-8-3.63l-.5.26A19.35,19.35,0,0,1,433.33,293a18.69,18.69,0,0,1-8.54,2.29c-4.77,0-8.87-2.4-11.35-7.19a15,15,0,0,1,.95-15.56L435,261.84l-3.88-7.49c-2.66-5.15-5.63-7.45-9.25-7.45a14.14,14.14,0,0,0-6.42,1.88c-4.6,2.37-8.77,6.31-12.3,12.69l-.76-.24c.3-11.17,6.06-19.85,15-24.45a20.25,20.25,0,0,1,9.26-2.53M430.37,285a8.67,8.67,0,0,0,3.9-1c3.1-1.61,5.42-4.71,7.16-9.66l-4.55-8.79-14,7.23a10.84,10.84,0,0,0,1.12,7.79c1.66,3.21,4,4.46,6.36,4.46m-3.79-54.88a24.31,24.31,0,0,0-11.15,3c-10.59,5.48-16.85,15.69-17.18,28l2.86,4,.76.24,4.84-1.93c2.9-5.23,6.37-8.84,10.6-11a10.5,10.5,0,0,1,4.53-1.42c.79,0,2.9,0,5.6,5.22l2,3.85-16.93,8.76L411,270.2a19.21,19.21,0,0,0-1.18,19.74,16.57,16.57,0,0,0,15,9.41,22.59,22.59,0,0,0,10.43-2.75,23.42,23.42,0,0,0,11.38-12.25,14.25,14.25,0,0,0,6,1.3,16.49,16.49,0,0,0,7.64-2c7-3.63,9.93-10.1,8.62-19.21L466,261.13l-.76-.24L460.31,263c-1.11,2.22-1.81,2.71-2.62,3.13a2.7,2.7,0,0,1-.63.25,5.06,5.06,0,0,1-1.17-1.66l-11.58-22.38c-4.06-7.85-10.36-12.17-17.73-12.17Zm.13,45.28,8.41-4.34,1.81,3.5c-1.24,2.93-2.74,4.82-4.55,5.75a4.47,4.47,0,0,1-2,.58c-.43,0-1.55,0-2.71-2.24a7.86,7.86,0,0,1-1-3.25Z"/><polygon class="cls-1" points="469.79 271.05 473.51 262.22 443.89 204.98 435.64 203.1 434.49 199.81 448.54 182.41 451.97 182.75 488.95 254.23 498.31 256.3 498.81 260.13 472.63 273.67 469.79 271.05"/><path class="cls-2" d="M450.14,183.7,487.57,256l10.29,2.27-26.18,13.55,4.1-9.72-30.5-58.95-9.19-2.08,14.05-17.4m-3.2-2.59-14,17.4,2.28,6.59,7.33,1.67,28.73,55.54-3.34,7.94,5.67,5.25L499.75,262l-1-7.67-8.42-1.86-36.54-70.62-6.85-.7Z"/><path class="cls-1" d="M500.36,255.23l3.72-8.83-15-29-8.26-1.87-1.14-3.3,14.05-17.4,3.55.67,1.56,4.89a28.92,28.92,0,0,1,13.53-15.15,19.29,19.29,0,0,1,8.82-2.39,13.53,13.53,0,0,1,8.25,2.77c2.88-7.68,7.51-13.09,14.1-16.5a19.3,19.3,0,0,1,8.85-2.4c6,0,10.93,3.59,14.6,10.69l14.86,28.72,9.35,2.06.5,3.84L565.55,225.6,562.71,223l3.72-8.83-12.84-24.83c-2.85-5.49-4.94-6.19-6.44-6.19a9.07,9.07,0,0,0-4,1.22c-2.17,1.12-5,3.1-7.75,8.45l15.26,29.49,9.35,2.06.5,3.83-26.17,13.55-2.84-2.63,3.72-8.83-12.85-24.82c-2.84-5.49-4.93-6.2-6.43-6.2a8.94,8.94,0,0,0-4,1.23c-2.17,1.12-5,3.1-7.75,8.45l15.25,29.48,9.36,2.07.5,3.83L503.2,257.85Z"/><path class="cls-2" d="M552.41,168.8c4.61,0,9.14,2.55,12.77,9.58L580.49,208l10.29,2.27L564.6,223.77l4.1-9.71-13.29-25.68c-2.71-5.24-5.29-7.31-8.26-7.31a10.89,10.89,0,0,0-4.9,1.45c-3,1.56-6.18,4.22-9.12,10.29l16.18,31.28,10.3,2.27L533.43,239.9l4.09-9.71-13.28-25.68c-2.71-5.24-5.29-7.31-8.26-7.31a10.89,10.89,0,0,0-4.9,1.45c-3,1.55-6.18,4.21-9.12,10.29l16.18,31.27,10.3,2.28L502.26,256l4.09-9.72-15.87-30.67-9.18-2.09,14.05-17.4,3,9.57.75.24c1.92-7.07,5.79-14.52,14.18-18.86a17.35,17.35,0,0,1,7.88-2.17,12.19,12.19,0,0,1,9.21,4.35c2-6.87,5.89-14.07,14.09-18.31a17.42,17.42,0,0,1,7.9-2.17m0-4.11h0a21.42,21.42,0,0,0-9.79,2.63,30.9,30.9,0,0,0-14.12,15.29,15.39,15.39,0,0,0-7.29-1.79,21.31,21.31,0,0,0-9.77,2.63A29.89,29.89,0,0,0,499.29,195l0-.08-7.11-1.33-14,17.4,2.29,6.59,7.32,1.67,14.11,27.26-3.35,7.94,5.68,5.25,26.17-13.54-1-7.67-8.41-1.86L506.59,209c2.33-4.14,4.6-5.73,6.38-6.65a7.18,7.18,0,0,1,3-1c1.63,0,3.41,2.77,4.61,5.09l12.4,24-3.35,7.95,5.68,5.24L561.5,230l-1-7.67-8.41-1.85-14.32-27.67c2.34-4.14,4.61-5.73,6.38-6.64a7.27,7.27,0,0,1,3-1c1.64,0,3.41,2.77,4.61,5.09l12.4,24-3.34,7.94,5.67,5.24,26.18-13.54-1-7.66-8.42-1.86L568.84,176.5c-5.05-9.76-11.72-11.81-16.43-11.81Z"/><path class="cls-1" d="M596.67,208.7l-9.3-18,2.7-2.81,14.4,6.77a19.15,19.15,0,0,0,7.29-1.92c4.92-2.55,5.7-6.55,4.34-9.18-1.15-2.21-3.29-3.11-7.4-3.11-2,0-4.14.21-6.44.43-2.51.24-5.1.49-7.68.5h0c-5.17,0-12.51-.92-16.62-8.87a16.68,16.68,0,0,1,.29-16.24,28.89,28.89,0,0,1,12.27-11.44,34.27,34.27,0,0,1,11.33-3.5l3.74-4.37,3.38.38,9,17.49-2.68,2.81-15.15-6.9a15.89,15.89,0,0,0-4.21,1.47,10.1,10.1,0,0,0-5,4.84,5,5,0,0,0,.09,4.24c.6,1.15,1.76,2.33,5.84,2.33h0a60.74,60.74,0,0,0,6.88-.58,77.18,77.18,0,0,1,8.79-.69c5.2,0,12.59.95,16.82,9.13,5.28,10.2.23,22.2-12,28.53a35.13,35.13,0,0,1-13,3.76l-4.34,5.27Z"/><path class="cls-2" d="M607.15,138.31l9.05,17.48-15.75-7.18A18.5,18.5,0,0,0,595,150.4c-6.39,3.31-7.53,8.46-5.77,11.85,1.39,2.69,4.17,3.45,7.66,3.45,4.52,0,10.24-1.27,15.67-1.27,6,0,11.65,1.54,15,8,4.91,9.49-.42,20.23-11.11,25.76a33,33,0,0,1-13.08,3.6l-4.9,6-9.31-18,14.89,7a21.41,21.41,0,0,0,8.63-2.18c5.89-3.05,7.13-8.25,5.21-11.94-1.74-3.37-5.12-4.23-9.22-4.23-4.26,0-9.31.93-14.12.93-5.94,0-11.52-1.42-14.79-7.75-5.17-10,2-19.9,11.68-24.91a32.07,32.07,0,0,1,11.42-3.38l4.26-5M604,135.64l-3.23,3.79A36,36,0,0,0,589.58,143a31,31,0,0,0-13.14,12.29,18.9,18.9,0,0,0-.3,18.17c5.15,10,15.15,10,18.44,10,2.67,0,5.32-.26,7.88-.5,2.25-.22,4.37-.43,6.24-.43,4.19,0,5.07,1,5.57,2a3.49,3.49,0,0,1,.13,2.87,7.12,7.12,0,0,1-3.58,3.53,16.65,16.65,0,0,1-6,1.65l-13.9-6.53-5.4,5.61,9.31,18,6.82.72,3.81-4.62a37.37,37.37,0,0,0,12.89-3.9,28.83,28.83,0,0,0,13.26-13.35,20.25,20.25,0,0,0-.38-17.95c-3.57-6.88-9.67-10.23-18.65-10.23a77.88,77.88,0,0,0-9,.7,60.18,60.18,0,0,1-6.64.57c-3.38,0-3.82-.86-4-1.23a3,3,0,0,1,0-2.52,8.31,8.31,0,0,1,4-3.79,14,14,0,0,1,3-1.14l14.52,6.62,5.36-5.63-9.05-17.48-6.78-.78Z"/><path class="cls-3" d="M731.12.7a3.57,3.57,0,0,0-4.28-.89l-8.67,4.25a3.57,3.57,0,0,0-1.61,4.83l1.27,2.49L643.22,49.47l-9.8-16.29a3.1,3.1,0,0,0-4-1.16L619,37.33a3.08,3.08,0,0,0-1.44,4L623.36,55,5.54,376.23-13.28,398l28.65-2.49,622.56-312,7.65,12.72a3.09,3.09,0,0,0,4,1.16L660,92.07a3.07,3.07,0,0,0,1.44-4L654,70.62l74.62-38.09,1.08,2.12a3.56,3.56,0,0,0,4.75,1.58L743.15,32a3.58,3.58,0,0,0,1.9-4.05L741.36,12.7Z"/><path class="cls-3" d="M101,301.71,96.81,192.56l1.31-2.24.7-.36,2.56.21,80.93,60.74,9.83,2.75.46,4.47-38.58,20-3.45-2.73,2.18-8.72-14.83-11.61L112.4,268.27l.77,16,13.22,3.42.51,4.48-22.41,11.61Zm10.84-46.91,15.61-8.08-16.53-13Z"/><path class="cls-2" d="M99.93,192.1l81.29,61L191.49,256l-32.36,16.76h0l-6.2,3.21,2.56-10.22v0l-17.27-13.52-28.27,14.64.92,19.32,15,3.86-22.41,11.61L99.23,192.47l.7-.37m9.63,66.58,22.29-11.54-23.6-18.57,1.31,30.11M97.71,187.82l-.71.36-2.6,4.47L98.55,301.8l7,4.1L128,294.3l-1-9-11.51-3-.6-12.66,22.77-11.8L150,267.59l-1.81,7.2,6.91,5.46,6.2-3.21,32.38-16.77-.92-8.94-9.39-2.62-80.57-60.47-5.12-.42Zm16.35,63.1-.53-12L123,246.3l-8.92,4.62Z"/><polygon class="cls-3" points="216.9 249.4 136.28 190.71 125.8 187.85 125.32 183.38 165.44 162.6 168.9 165.33 166.71 174.05 206.26 204.25 203.15 158.11 189.89 154.68 189.38 150.2 216.48 136.17 219.86 139.13 216.05 149.66 221.43 246.95 220.13 249.22 219.43 249.59 216.9 249.4"/><path class="cls-2" d="M217.59,138.31l-4,11L219,247.08l-.7.37-81-58.95-10.92-3,40.13-20.78L164,175,209,209.4l-3.59-53.19-14.95-3.86,27.1-14M215.37,134l-27.1,14,1,9,11.57,3,2.64,39.09-34.05-26,1.8-7.17-6.9-5.47-40.13,20.78,1,9,10.06,2.74,80.25,58.43,5.07.38.7-.36,2.6-4.56L218.49,150,222.13,140,215.37,134Z"/><path class="cls-3" d="M241.41,229l-4.16-109.14,1.31-2.24.7-.36,2.56.21,80.93,60.74,9.83,2.74.46,4.47-32.38,16.77h0l-6.18,3.2L291,202.62l2.18-8.7-14.82-11.61-25.52,13.22.77,16,13.22,3.42.51,4.48L244.93,231Zm10.84-46.9L267.86,174l-16.53-13Z"/><path class="cls-2" d="M240.37,119.37l81.3,61,10.26,2.87L299.55,200v0l-6.2,3.21L295.9,193h0l-17.27-13.52L250.36,194.1l.92,19.31,15,3.87-22.41,11.6-4.15-109.15.7-.36M250,186l22.3-11.55-23.61-18.57L250,186m-11.85-70.87-.7.37-2.61,4.47L239,229.06l7,4.11,22.41-11.61-1-9-11.51-3-.6-12.67,22.77-11.79,12.36,9.68-1.8,7.19,6.9,5.46,6.18-3.2h0l32.38-16.77-.92-8.94L323.84,176l-80.57-60.46-5.12-.43Zm16.35,63.1L254,166.13l9.45,7.43-8.92,4.62Z"/><polygon class="cls-3" points="333.77 180.3 337.65 169.59 342.06 124.9 303.02 103.29 293.82 100.84 293.33 96.36 333.87 75.37 337.32 78.1 335.21 86.5 359.8 99.98 363.15 72.15 354.56 69.26 354.22 64.83 377.69 52.67 381.07 55.64 377.18 66.37 372.28 106.87 414.8 130.37 424.9 133.1 425.38 137.57 384.43 158.78 380.98 156.04 383.1 147.59 354.82 131.99 351.65 163.78 360.27 166.68 360.61 171.11 337.15 183.26 333.77 180.3"/><path class="cls-2" d="M378.8,54.82l-4,11-5.13,42.38,44.19,24.43,10.39,2.81-40.95,21.2,2.57-10.26-33.11-18.26-3.73,37.34h0L359.5,169l-6.8,3.52h0L336,181.12l4-11,4.6-46.57L303.93,101l-9.49-2.52,34.32-17.77.06,0L335,77.52l-2.55,10.15,0,.07,29.31,16.07,4-33.32h0L355.33,67l6.81-3.52h0l16.66-8.63m-2.22-4.29-16.66,8.63-6.81,3.52.69,8.87,6.72,2.26-2.69,22.34L338,85.28l1.65-6.59-6.9-5.46-6.16,3.19-.06,0L292.22,94.22l1,9,8.92,2.37,37.38,20.7-4.23,42.82-3.77,10.42,6.76,5.93,16.66-8.63h0l6.8-3.52-.68-8.87-6.8-2.29,2.61-26.23,23.46,12.94-1.67,6.65,6.9,5.46,40.95-21.21-1-8.94-9.82-2.66-40.84-22.57,4.68-38.61,3.79-10.47-6.76-5.93Z"/></svg>