<svg id="Layer_1" data-name="Layer 1" xmlns="http://www.w3.org/2000/svg" viewBox="0 0 753.73 753.72"><defs><style>.cls-1{fill:#bfb67f;}.cls-2{fill:#ba3e4a;}.cls-3{fill:#16140a;}</style></defs><rect class="cls-1" width="753.73" height="753.72"/><path class="cls-2" d="M606.29,252.82l-30.18,32.27a16.29,16.29,0,0,1-22.85,1l-8.09-7.31L288.43,562.52l60.21,62.6a14.09,14.09,0,0,1,.29,19.23l-35.76,39.53A14.1,14.1,0,0,1,294,685.51L240.67,643.6-52,962.29l-14.36,2.85L-98.37,804,132.1,545.38l-47-48.88a14.13,14.13,0,0,1-.3-19.25l35.76-39.52a14.11,14.11,0,0,1,19.17-1.62L208,489.76,464.74,206l-9.46-8.57a16.31,16.31,0,0,1-1-23.23L484.41,142a16.3,16.3,0,0,1,19.75-3.16l63.18,34.61,40.49,59A16.31,16.31,0,0,1,606.29,252.82Z"/><path class="cls-3" d="M256.11,508.77l-5.62-12.46,14.57-16.5L245.9,437.89H174.57l-16.18,35.28,25.11,22.52-5,13.08H114.33l-6.79-10.69L225.79,246.79l6.79-4.31h2l6.75,4.25L353,478.27l18.79,17.52-5.12,13ZM230.68,404.08l-20-44.06-20.43,44.06Z"/><path class="cls-1" d="M234.6,250,346.8,482.8l19.82,18.47H256.11l17.79-20.13v0l-23.18-50.73h-81l-20.5,44.68,29.23,26.2H114.33L232.58,250h2m-56.11,161.6h63.83L210.74,342l-32.25,69.55M234.6,235h-2L219,243.6,100.75,494.89l13.58,21.38h64.16l10-26.16-21-18.83,11.87-25.89h61.7l15.13,33.11-11.34,12.84,11.24,24.93H366.62l10.23-26-17.76-16.55-111-230.28L234.6,235ZM202,396.58,210.6,378,219,396.58Z"/><path class="cls-3" d="M620.26,511.24c-37.45,0-65.22-9.91-87.37-31.18-19.53-18.75-35.45-46.05-55-94.22l5.64-10.2c29.29-5.21,43.53-19.93,43.53-45,0-23.55-12.83-38.19-33.49-38.19h-16V478.28l15.92,18-5.62,12.46H386.44l-5.63-12.46,15.93-18V289.1l-15.93-18,5.63-12.47H503c65.28,0,104.25,25,104.25,67,0,26.42-15.55,47.78-44,60.79,19,44.25,42.11,87.1,79.84,108.38l3.81,6.53V503L640,510.43C633.1,511,626.46,511.24,620.26,511.24Z"/><path class="cls-1" d="M503,266.11c54.09,0,96.75,18.14,96.75,59.46,0,27.22-18.14,46-46.36,56.78,22.51,53.75,46.7,96.75,86,118.92V503q-10,.78-19.14.79c-72.4,0-101.61-37.34-135.39-120.72,35.94-6.38,49.72-26.54,49.72-52.41,0-29.56-17.81-45.69-41-45.69H470.09v196.2l17.8,20.15H386.44l17.8-20.15V286.27l-17.8-20.16H503m0-15H386.44L375.19,276l14.05,15.9v183.5l-14.05,15.9,11.25,24.93H487.89l11.24-24.93-14-15.9V421.17c14.1,29.93,27.24,49.54,42.6,64.3,23.64,22.69,53,33.27,92.57,33.27,6.39,0,13.22-.28,20.3-.83l13.84-15v-1.68l-7.63-13.06c-34-19.19-55.89-57.62-73.8-98.29,27.09-14.5,41.79-36.93,41.79-64.35a63.2,63.2,0,0,0-9.9-34.85c-6.06-9.39-14.77-17.29-25.9-23.48-19-10.55-45.22-16.13-76-16.13Zm-17.92,48.81h8.51c16.52,0,26,11.19,26,30.69,0,14-4,30.75-34.5,37.09V299.92Z"/></svg>