<svg id="Layer_1" data-name="Layer 1" xmlns="http://www.w3.org/2000/svg" viewBox="0 0 753.73 753.72"><defs><style>.cls-1{fill:#bfb67f;}.cls-2{fill:#16140a;}.cls-3{fill:#ba3e4a;}</style></defs><rect class="cls-1" width="753.73" height="753.72"/><path class="cls-2" d="M753.73,639.59v29.08L105.23,251.12l-10,13.2a3.43,3.43,0,0,1-4.63.8L79.68,258a3.45,3.45,0,0,1-1.12-4.56L88.92,234.9,10.68,183.69,9,186.3a4,4,0,0,1-5.57,1.12L0,185.11v-26l11.64-11a4,4,0,0,1,5-.4l8.93,6.06a4,4,0,0,1,1.1,5.49l-1.46,2.22,78.25,51.22,12.83-16.91a3.44,3.44,0,0,1,4.63-.8l10.89,7.13a3.45,3.45,0,0,1,1.13,4.57l-8.1,14.46Z"/><path class="cls-3" d="M192.6,374.65l-3.37-7.48,8.22-9.29-10.84-23.72H146.14L137,354.05l14.23,12.75-3,7.85H111.59l-4.07-6.41L175.07,224.7l4.07-2.58h1.15l4.05,2.54,63.73,132.22,10.7,10-3.06,7.79Zm-14.88-60.23L166.62,290l-11.33,24.44Z"/><path class="cls-1" d="M180.29,226.62l64.09,133,11.33,10.55H192.6l10.14-11.47v0l-13.24-29H143.26l-11.71,25.53,16.69,15H111.59l67.55-143.53h1.15m-32,92.3H184.7l-18-39.73-18.43,39.73m32-101.3h-1.15L171,222.78,103.45,366.32l8.14,12.83h36.65l6-15.7-11.76-10.54L149,338.66h34.69l8.42,18.43-6.28,7.11,6.74,14.95h63.11l6.13-15.58-10.08-9.4L188.4,222.71l-8.11-5.09Zm-17.95,92.3,4.24-9.15,4.15,9.15Z"/><polygon class="cls-3" points="296.01 381.56 291.98 379.07 227.3 249.71 215.82 239.14 218.87 231.33 284.5 231.33 287.87 238.81 279.66 248.1 309.28 310.9 334.92 251.98 320.64 239.18 323.64 231.33 367.97 231.33 371.02 239.13 359.23 250.02 301.26 378.91 297.16 381.56 296.01 381.56"/><path class="cls-1" d="M368,235.83,355.5,247.34,297.16,377.06H296L231,247l-12.09-11.13H284.5l-10.18,11.51,35.12,74.46,30.9-71-16.7-15H368m0-9H323.64l-6,15.7,11.86,10.63L309.11,300,285,248.86l6.25-7.07-6.74-15H218.87l-6.1,15.62,10.87,10L288,381.09l8.05,5h1.15l8.21-5.31,57.58-128,11.12-10.27L368,226.83Z"/><path class="cls-3" d="M432.45,374.65l0,0H422.31l-3.37-7.47,8.2-9.29-10.82-23.7H375.85l-9.12,19.89L381,366.8l-3,7.85H341.3l-4.07-6.41L404.78,224.7l4.07-2.58H410l4.05,2.54,63.73,132.22,10.7,10-3.07,7.79Zm-25-60.23L396.33,290,385,314.42Z"/><path class="cls-1" d="M410,226.62l64.09,133,11.32,10.55h-53v0H422.31l10.14-11.48h0l-13.24-29H373l-11.7,25.53,16.69,15H341.3l67.55-143.53H410M378,318.92h36.46l-18-39.73L378,318.92M410,217.62h-1.15l-8.15,5.16L333.16,366.32l8.14,12.83H378l6-15.7L372.2,352.91l6.54-14.25h34.69l8.41,18.41-6.27,7.1,6.74,15h10.11l0,0h53l6.14-15.58-10.09-9.4L418.1,222.71l-8.1-5.09Zm-17.95,92.3,4.24-9.15,4.15,9.15Z"/><polygon class="cls-3" points="569.47 374.65 566.1 367.17 573.97 358.26 549.17 321.14 525.11 358.09 533.75 367.03 530.51 374.65 492.13 374.65 489.08 366.85 501.14 355.72 536.26 301.68 500.78 248.38 490.64 239.16 493.67 231.33 559.97 231.33 563.34 238.81 555.52 247.65 576.98 279.61 598.61 247.84 590.03 238.96 593.26 231.33 631.64 231.33 634.69 239.13 622.6 250.3 589.67 298.61 628.37 356.65 639.48 366.84 636.44 374.65 569.47 374.65"/><path class="cls-1" d="M631.64,235.83l-12.47,11.51-34.93,51.24,40.69,61,11.51,10.55h-67l10.17-11.51L549.13,313l-29.75,45.67h0l11.13,11.51H492.13l12.48-11.51,37-57-37.42-56.23-10.55-9.59H560l-10.07,11.4v.11L577,287.64l27.44-40.3h0l-11.13-11.51h38.38m0-9H593.26l-6.47,15.25,6,6.25L577,271.57,561.2,248l5.51-6.24-6.75-15H493.67l-6.06,15.66,9.74,8.84,33.52,50.38-33.2,51.08L486,363.54l6.1,15.61h38.38L537,363.9l-6.14-6.36,18.38-28.23,19.08,28.57-5.58,6.32,6.75,14.95h67l6.08-15.63-10.71-9.82L595.1,298.63,626,253.26l11.72-10.82-6.11-15.61Z"/><path class="cls-2" d="M214.89,523.3c-30.39,0-41.41-18.57-63.37-55.56l-2.66-4.48,2.85-5.52c26.22-2.13,26.22-15.57,26.22-20,0-14.79-12.13-17-19.35-17h-10.9v86.66l9.95,8.3-2.34,6.47H112.71l-2.34-6.47,9.95-8.3V420.05l-9.95-8.29,2.34-6.47h48.22c28.46,0,45.45,11.37,45.45,30.42,0,13.8-8.78,24.85-24.27,30.83,12.37,21.55,24.37,39.85,41.55,48.73l2,3.25v.78L222.3,523C219.72,523.18,217.23,523.3,214.89,523.3Z"/><path class="cls-1" d="M160.93,409c23.95,0,41.79,8.29,41.79,26.76,0,14.25-10.49,24.11-26,28.81,13.77,24.26,26.45,44.29,45.23,54v.78c-2.48.22-4.84.34-7.08.34-29.46,0-39.61-19.13-62.89-58.25,23.17-1.88,29.59-12.21,29.59-23.64,0-13.31-8.92-20.66-23-20.66H144v92l11.27,9.39H112.71L124,509.13V418.34L112.71,409h48.22m0-7.33H112.71L108,414.57l8.63,7.2V505.7L108,512.89l4.68,13h42.58l4.69-13-8.64-7.19V474.61c9.63,16.17,17,28.14,25.66,36.83C187.62,522.17,199.31,527,214.89,527c2.45,0,5.05-.12,7.74-.36l6.67-7.3v-.78l-4-6.51c-15.39-7.94-26.63-24.25-38-43.72C201.89,461.44,210,449.9,210,435.71c0-11.44-5.37-20.65-15.52-26.62-8.43-4.95-19.73-7.47-33.59-7.47Zm-9.59,22.79h7.24c10.41,0,15.69,4.49,15.69,13.34,0,4.33,0,14.48-22.86,16.34l-.07.13V424.41Z"/><path class="cls-2" d="M258.61,523.75c-24,0-41.39-18.59-41.39-44.21,0-28.09,21.37-42.79,42.48-42.79,21.32,0,34.66,13,34.82,34l-3.67,3.69H242.4c.31,16.85,8.52,26.49,22.63,26.49,7.44,0,14.7-2.65,21.58-7.87l4.8.33.78.78.89,3.72C287.68,514.56,275.43,523.75,258.61,523.75Zm8.46-62.43c-.8-5.8-3.64-11-9.71-11s-10.86,3.95-13.19,11Z"/><path class="cls-1" d="M259.7,440.41c16.91,0,31,9.39,31.15,30.37H238.73v2.66c0,18.94,9.23,31.15,26.3,31.15,6.41,0,14.71-1.72,23.79-8.61l.78.78c-5.63,17.38-18,23.32-31,23.32-21.76,0-37.73-16.9-37.73-40.54,0-24.89,18.16-39.13,38.82-39.13M239.51,465H271c0-10.65-5-18.32-13.62-18.32-8.93,0-15.81,6.57-17.85,18.32m20.19-31.9c-12.33,0-23.75,4.33-32.16,12.21-9.14,8.57-14,20.41-14,34.24,0,13.27,4.5,25.39,12.68,34.14a43.73,43.73,0,0,0,32.37,13.73c18.54,0,32-10.09,38-28.39l-1.79-7.44-.78-.78-9.6-.65c-6.32,4.79-12.66,7.12-19.37,7.12-13.49,0-17.81-9.58-18.76-19.17h44.58l7.33-7.38c-.17-22.86-15.28-37.63-38.48-37.63Zm-9.62,24.57a8.81,8.81,0,0,1,7.28-3.67c2.53,0,4.05,1.64,5,3.67Z"/><path class="cls-2" d="M364.12,523.75c-7.48,0-13.41-3.2-16.91-8.93A30.56,30.56,0,0,1,325,523.75c-15.25,0-25.1-8.81-25.1-22.45a24.32,24.32,0,0,1,13-21.83l1.76-.46h28.59v-8.08c0-11.13-4.27-13.24-12.15-13.24-7,0-14,2.36-21.3,7.21l-4.62-.46-.78-.78-.61-4.36c7.9-14.33,21.51-22.55,37.32-22.55,17.39,0,27.77,10.38,27.77,27.77v35.06c0,4.95,1.57,4.95,3.38,4.95s3.47-.42,6.46-2.59l4.74.37.79.78.86,3.8C381.16,518.23,374.29,523.75,364.12,523.75Zm-37.33-31.62A12,12,0,0,0,325,498.8c0,4.73,2.3,7.14,6.83,7.14,3.54,0,7.27-1.75,11.37-5.32v-8.49Z"/><path class="cls-1" d="M341.1,440.41c15.34,0,24.11,8.61,24.11,24.11v35.06c0,6.89,3.13,8.61,7,8.61,2.82,0,5.17-.78,8.61-3.29l.79.78c-3.76,10.8-9.86,14.4-17.54,14.4-8,0-13.46-4.22-15.65-11.42h-.78A27,27,0,0,1,325,520.08c-12.83,0-21.44-7-21.44-18.78a20.85,20.85,0,0,1,11.11-18.63H346.9V470.93c0-12.36-5.17-16.9-15.81-16.9-7.2,0-14.87,2.19-23.33,7.82l-.78-.78c7.51-13.62,20.19-20.66,34.12-20.66m-9.23,69.19c4.85,0,9.7-2.35,15-7.36V488.47H325a15.06,15.06,0,0,0-3.6,10.33c0,7.82,5,10.8,10.49,10.8m9.23-76.51c-17.18,0-32,8.91-40.53,24.44l1.23,8.72.79.78,9.23.92c6.66-4.44,13-6.6,19.27-6.6,2.32,0,5.35.28,6.66,1.61s1.82,4,1.82,8v4.42H314.65l-3.53.91a28.26,28.26,0,0,0-14.91,25c0,15.62,11.57,26.11,28.77,26.11a34.38,34.38,0,0,0,21.71-7.23c4.25,4.63,10.31,7.23,17.42,7.23,11.77,0,20-6.5,24.45-19.32l-1.74-7.59-.78-.78-9.48-.74c-2.25,1.63-3.2,1.85-4,1.88a10.38,10.38,0,0,1-.07-1.28V464.52c0-19.39-12-31.43-31.43-31.43Zm-12,62.7h10.46v3.12c-2.86,2.26-5.4,3.37-7.7,3.37-2.52,0-3.17-.72-3.17-3.48a10.24,10.24,0,0,1,.41-3Z"/><polygon class="cls-2" points="385.88 522.18 383.53 515.71 393.48 507.41 393.48 418.47 384.77 411.12 385.65 404.97 414.14 392.45 419.28 395.8 419.28 507.41 429.23 515.71 426.89 522.18 385.88 522.18"/><path class="cls-1" d="M415.62,395.8V509.13l11.27,9.39h-41l11.27-9.39V416.77l-10-8.45,28.49-12.52m-2.95-6.71-28.49,12.53-1.77,12.3,7.41,6.26V505.7l-8.63,7.19,4.69,13h41l4.68-13-8.63-7.19V395.8l-10.27-6.71Z"/><path class="cls-2" d="M531.45,522.18l-2.34-6.47,9.95-8.3V468.9c0-11.19-3.35-12-8.86-12-3.23,0-7.71.6-14.18,5.09v45.41l10,8.3-2.34,6.47h-41l-2.35-6.47,10-8.3V468.9c0-11.19-3.34-12-8.86-12-3.22,0-7.7.6-14.18,5.09v45.41l9.95,8.3-2.34,6.47h-41l-2.35-6.47,10-8.3V462.77l-8.72-7.35.89-6.15L462,436.74l5.09,4-.85,5a40.45,40.45,0,0,1,25.26-8.92c10,0,17.21,3.74,21.11,10.9,8.36-7.24,17.66-10.9,27.73-10.9,15.78,0,24.48,9.25,24.48,26v44.62l9.95,8.3-2.35,6.47Z"/><path class="cls-1" d="M463.52,440.1l-2.35,13.77.78.78c6.89-7.51,16.44-14.24,29.59-14.24,8.92,0,16.9,3.29,19.72,13.62,6.89-7.2,16.28-13.62,29.12-13.62,11,0,20.81,5,20.81,22.38v46.34l11.27,9.39h-41l11.27-9.39V468.9c0-12.37-4.22-15.66-12.52-15.66-4.7,0-10.33,1.26-17.84,6.89v49l11.27,9.39h-41l11.27-9.39V468.9c0-12.37-4.23-15.66-12.53-15.66-4.69,0-10.33,1.26-17.84,6.89v49l11.27,9.39h-41l11.27-9.39V461.07l-10-8.45,28.49-12.52m76.86-7a44.21,44.21,0,0,0-26.92,9.2c-4.83-6-12.33-9.2-21.92-9.2a43.19,43.19,0,0,0-23,6.54l-8-6.24-28.49,12.53-1.77,12.3,7.42,6.25V505.7l-8.64,7.19,4.69,13h41L478.7,515l3.92,10.81h41L527.54,515l3.91,10.81h41l4.69-13-8.63-7.19V462.79c0-10.19-2.95-18-8.75-23.17-4.86-4.33-11.38-6.53-19.39-6.53ZM519.68,464c4.78-3,8.09-3.41,10.52-3.41s3.58.37,3.89.71,1.31,1.79,1.31,7.62v36.8l-7.86,6.55-7.86-6.55V464Zm-48.84,0c4.78-3,8.09-3.41,10.52-3.41s3.58.37,3.89.71,1.31,1.79,1.31,7.62v36.8l-7.86,6.55-7.86-6.55V464Z"/><path class="cls-2" d="M579.92,520.4V492.22l6.57-2.23,13.35,17.4a25.44,25.44,0,0,0,9.73,2.15c7.16,0,10.43-4,10.43-7.77,0-5.19-5.66-7.72-14.89-11.42-11.22-4.49-25.19-10.08-25.19-26.62,0-18.54,17.64-27,34-27a48.36,48.36,0,0,1,16.22,2.86l7.13-2.9,5,3.39v27.39l-6.54,2.26-14.14-18A21.72,21.72,0,0,0,616,451c-7.6,0-11.06,3.78-11.06,7.29,0,4,5.32,6.27,14.08,9.56,11.3,4.24,26.78,10.05,26.78,27.54,0,16.45-14.25,28.4-33.87,28.4a49.76,49.76,0,0,1-18.46-3.6L585,523.76Z"/><path class="cls-1" d="M638.68,440.1v27.39l-14.87-18.94A25.67,25.67,0,0,0,616,447.3c-10,0-14.72,5.63-14.72,10.95,0,15.66,40.86,10.65,40.86,37.1,0,14.87-13.46,24.73-30.21,24.73a46.28,46.28,0,0,1-18.47-3.91l-9.87,4.23V492.22l13.94,18.16a29.82,29.82,0,0,0,12.05,2.82c9.23,0,14.09-5.64,14.09-11.43,0-17.53-40.08-12.37-40.08-38,0-15.65,15.19-23.32,30.37-23.32a44.94,44.94,0,0,1,16.28,3.13l8.45-3.44m-24.73-7c-9.43,0-18.3,2.51-25,7.06a27.87,27.87,0,0,0-12.7,23.58,25.78,25.78,0,0,0,10.1,21c5.22,4.19,11.68,6.78,17.39,9.06,7.6,3.05,12.58,5.25,12.58,8,0,2-2.09,4.11-6.76,4.11a21.06,21.06,0,0,1-7.44-1.52l-12.74-16.6-13.13,4.46V520.4l10.21,6.73,7.06-3a53.5,53.5,0,0,0,18.39,3.31c9.9,0,19.11-3,25.93-8.38a29.72,29.72,0,0,0,11.6-23.68c0-12.18-6.49-19.39-14.19-24.15L646,467.49V440.1l-10.09-6.78-5.86,2.39A51.69,51.69,0,0,0,614,433.09Zm16.15,35.32c-3.39-1.62-6.8-2.9-9.8-4-4.09-1.53-11.71-4.39-11.71-6.13s2.54-3.63,7.4-3.63a17.39,17.39,0,0,1,3.57.37l10.54,13.42Z"/></svg>