<svg id="Layer_1" data-name="Layer 1" xmlns="http://www.w3.org/2000/svg" viewBox="0 0 753.73 753.72"><defs><style>.cls-1{fill:#16140a;}.cls-2{fill:#c1c1c1;}.cls-3{fill:#ba3e4a;}.cls-4{fill:#bfb67f;}</style></defs><rect class="cls-1" width="753.73" height="753.72"/><path class="cls-2" d="M753.73,639.59v29.08L105.23,251.12l-10,13.2a3.43,3.43,0,0,1-4.63.8L79.68,258a3.45,3.45,0,0,1-1.12-4.56L88.92,234.9,10.68,183.69,9,186.3a4,4,0,0,1-5.57,1.12L0,185.11v-26l11.64-11a4,4,0,0,1,5-.4l8.93,6.06a4,4,0,0,1,1.1,5.49l-1.46,2.22,78.25,51.22,12.83-16.91a3.44,3.44,0,0,1,4.63-.8l10.89,7.13a3.44,3.44,0,0,1,1.12,4.57l-8.09,14.46Z"/><path class="cls-3" d="M187.93,378l-3.38-7.48,8.22-9.3-10.83-23.71H141.47l-9.12,19.88,14.22,12.76-3,7.85H106.92l-4.07-6.42,67.54-143.54,4.08-2.58h1.15l4,2.55L243.4,360.24l10.7,10L251,378ZM173,317.77,162,293.34l-11.33,24.43Z"/><path class="cls-1" d="M175.62,230l64.09,133L251,373.51h-63.1L198.07,362v0l-13.24-29H138.58l-11.7,25.52,16.69,15H106.92L174.47,230h1.15m-32.05,92.3H180l-18-39.72-18.42,39.72M175.62,221h-1.15l-8.15,5.17L98.77,369.67l8.15,12.84h36.65l6-15.7-11.76-10.55L144.35,342H179l8.42,18.42-6.28,7.11,6.75,15H251l6.14-15.59-10.09-9.4L183.72,226.06l-8.1-5.09Zm-18,92.3,4.25-9.15,4.15,9.15Z"/><polygon class="cls-3" points="291.33 384.92 287.31 382.43 222.63 253.06 211.14 242.49 214.19 234.68 279.82 234.68 283.19 242.16 274.98 251.45 304.6 314.25 330.24 255.33 315.96 242.53 318.97 234.68 363.3 234.68 366.35 242.49 354.55 253.38 296.59 382.26 292.49 384.92 291.33 384.92"/><path class="cls-1" d="M363.3,239.18l-12.48,11.51L292.49,380.42h-1.16l-65-130.11-12.09-11.13h65.63l-10.17,11.51,35.12,74.46,30.89-71-16.69-15H363.3m0-9H319l-6,15.7,11.86,10.63-20.38,46.84-24.12-51.14,6.25-7.07-6.75-15H214.19L208.1,245.8l10.87,10,64.31,128.63,8.05,5h1.16l8.2-5.31,57.59-128,11.12-10.27-6.1-15.61Z"/><path class="cls-3" d="M427.78,378l0,0H417.64l-3.38-7.48,8.21-9.29-10.83-23.69H371.17l-9.12,19.88,14.23,12.76-3,7.85H336.62l-4.07-6.42L400.1,228.05l4.07-2.58h1.15l4.06,2.55L473.1,360.24l10.71,10L480.74,378Zm-25-60.24-11.09-24.43-11.34,24.43Z"/><path class="cls-1" d="M405.32,230l64.1,133,11.32,10.56h-53v0H417.64L427.77,362h0l-13.24-29H368.29l-11.71,25.52,16.7,15H336.62L404.17,230h1.15m-32,92.3h36.46l-18-39.72-18.42,39.72m32-101.3h-1.15L396,226.14,328.48,369.67l8.14,12.84h36.66l6-15.7-11.75-10.55L374.06,342h34.69l8.41,18.4-6.27,7.1,6.75,15h10.11l0,0h53l6.14-15.59-10.09-9.4L413.43,226.06,405.32,221Zm-17.95,92.3,4.24-9.15,4.16,9.15Z"/><polygon class="cls-3" points="564.79 378.01 561.42 370.53 569.3 361.61 544.5 324.5 520.43 361.45 529.07 370.38 525.84 378.01 487.46 378.01 484.41 370.2 496.47 359.07 531.58 305.03 496.11 251.73 485.97 242.51 488.99 234.68 555.29 234.68 558.66 242.16 550.85 251 572.3 282.96 593.94 251.19 585.35 242.31 588.59 234.68 626.97 234.68 630.02 242.49 617.92 253.65 585 301.96 623.69 360 634.81 370.19 631.76 378.01 564.79 378.01"/><path class="cls-1" d="M627,239.18l-12.48,11.51-34.92,51.24,40.68,61,11.51,10.56h-67L575,362l-30.51-45.67L514.71,362h0l11.12,11.51H487.46L499.93,362l37-57-37.42-56.23L489,239.18h66.3l-10.07,11.4v.11L572.28,291l27.44-40.3h0l-11.13-11.51H627m0-9H588.59l-6.47,15.26,6,6.24-15.83,23.24-15.81-23.54,5.52-6.24-6.75-15H489l-6.05,15.66,9.73,8.85,33.53,50.37L493,356.14l-11.65,10.75,6.11,15.62h38.37l6.48-15.26-6.15-6.35,18.39-28.23,19.08,28.56-5.58,6.32,6.74,15h67l6.09-15.64-10.71-9.82L590.42,302l30.93-45.38,11.72-10.82L627,230.18Z"/><path class="cls-4" d="M210.22,526.65c-30.4,0-41.42-18.57-63.38-55.57l-2.66-4.47,2.85-5.52c26.22-2.13,26.22-15.57,26.22-20,0-14.79-12.12-17-19.35-17H143v86.67l10,8.29-2.34,6.47H108l-2.34-6.47,10-8.29V423.41l-10-8.3,2.34-6.47h48.21c28.46,0,45.46,11.37,45.46,30.43,0,13.79-8.78,24.84-24.28,30.82,12.38,21.55,24.38,39.86,41.55,48.73l2,3.25v.79l-3.34,3.64C215.05,526.53,212.55,526.65,210.22,526.65Z"/><path class="cls-1" d="M156.25,412.3c23.95,0,41.8,8.3,41.8,26.77,0,14.24-10.49,24.1-26,28.8,13.78,24.26,26.46,44.3,45.24,54v.79q-3.72.33-7.08.33c-29.46,0-39.62-19.12-62.89-58.25,23.17-1.88,29.58-12.21,29.58-23.64,0-13.3-8.92-20.66-23-20.66H139.35v92l11.27,9.39H108l11.27-9.39V421.69L108,412.3h48.21m0-7.32H108l-4.69,12.94,8.64,7.2v83.93l-8.64,7.2L108,529.19h42.58l4.68-12.94-8.63-7.2V478c9.62,16.17,17,28.14,25.65,36.83,10.62,10.73,22.31,15.52,37.9,15.52,2.44,0,5-.12,7.73-.36l6.67-7.29v-.79l-4-6.5c-15.38-7.95-26.63-24.26-38-43.73,14.54-6.85,22.7-18.38,22.7-32.57,0-11.45-5.37-20.65-15.53-26.63-8.43-4.95-19.73-7.46-33.59-7.46Zm-9.58,22.78h7.23c10.41,0,15.69,4.49,15.69,13.34,0,4.34,0,14.49-22.85,16.34l-.07.13V427.76Z"/><path class="cls-4" d="M253.93,527.1c-24,0-41.38-18.59-41.38-44.2,0-28.1,21.37-42.8,42.48-42.8,21.32,0,34.65,13,34.81,34l-3.66,3.69H237.72c.31,16.85,8.52,26.49,22.63,26.49,7.44,0,14.7-2.65,21.58-7.87l4.8.33.79.78.89,3.72C283,517.92,270.76,527.1,253.93,527.1Zm8.47-62.42c-.8-5.81-3.64-11-9.72-11s-10.86,3.95-13.18,11Z"/><path class="cls-1" d="M255,443.76c16.91,0,31,9.39,31.15,30.37H234.05v2.66c0,18.94,9.24,31.15,26.3,31.15,6.42,0,14.72-1.72,23.8-8.61l.78.78c-5.64,17.38-18,23.33-31,23.33-21.75,0-37.72-16.91-37.72-40.54,0-24.89,18.16-39.14,38.82-39.14m-20.19,24.58H266.3c0-10.65-5-18.32-13.62-18.32-8.92,0-15.81,6.58-17.84,18.32M255,436.44c-12.34,0-23.76,4.34-32.16,12.21-9.15,8.57-14,20.41-14,34.25,0,13.26,4.5,25.38,12.67,34.13a43.74,43.74,0,0,0,32.37,13.73c18.55,0,32-10.08,38-28.39l-1.79-7.44-.78-.78-9.6-.65c-6.32,4.79-12.65,7.12-19.37,7.12-13.48,0-17.81-9.58-18.75-19.17h44.58l7.32-7.37c-.17-22.87-15.27-37.64-38.47-37.64ZM245.41,461a8.76,8.76,0,0,1,7.27-3.68c2.54,0,4.06,1.65,5,3.68Z"/><path class="cls-4" d="M359.44,527.1c-7.48,0-13.41-3.19-16.9-8.93a30.58,30.58,0,0,1-22.23,8.93c-15.25,0-25.11-8.81-25.11-22.45a24.33,24.33,0,0,1,13-21.83l1.77-.45h28.58v-8.08c0-11.14-4.27-13.25-12.15-13.25-7.05,0-14,2.36-21.29,7.21l-4.62-.45-.78-.79-.62-4.35c7.91-14.34,21.51-22.56,37.33-22.56,17.39,0,27.77,10.38,27.77,27.77v35.06c0,4.95,1.56,4.95,3.38,4.95s3.47-.41,6.46-2.59l4.74.37.78.79.87,3.79C376.48,521.58,369.62,527.1,359.44,527.1Zm-37.33-31.62a12,12,0,0,0-1.74,6.67c0,4.74,2.29,7.14,6.82,7.14,3.55,0,7.28-1.74,11.37-5.32v-8.49Z"/><path class="cls-1" d="M336.43,443.76c15.34,0,24.11,8.61,24.11,24.11v35.06c0,6.89,3.13,8.61,7,8.61,2.82,0,5.17-.78,8.61-3.29l.78.79c-3.75,10.8-9.86,14.4-17.53,14.4-8,0-13.46-4.23-15.65-11.43H343a27,27,0,0,1-22.69,11.43c-12.84,0-21.45-7.05-21.45-18.79A20.82,20.82,0,0,1,310,486h32.24V474.29c0-12.37-5.16-16.91-15.81-16.91-7.2,0-14.87,2.19-23.32,7.83l-.78-.79c7.51-13.61,20.19-20.66,34.12-20.66M327.19,513c4.86,0,9.71-2.35,15-7.36V491.82H320.31a15.06,15.06,0,0,0-3.6,10.33c0,7.83,5,10.8,10.48,10.8m9.24-76.51c-17.19,0-32,8.91-40.53,24.45l1.23,8.71.78.78,9.24.92c6.66-4.44,13-6.6,19.26-6.6,2.32,0,5.36.28,6.66,1.62s1.83,4,1.83,8v4.41H310l-3.53.91a28.27,28.27,0,0,0-14.91,25c0,15.62,11.56,26.11,28.77,26.11A34.36,34.36,0,0,0,342,523.53c4.25,4.64,10.3,7.23,17.42,7.23,11.76,0,20-6.5,24.45-19.32l-1.74-7.58-.78-.78-9.49-.75c-2.24,1.64-3.2,1.86-4,1.89,0-.33-.06-.75-.06-1.29V467.87c0-19.39-12-31.43-31.43-31.43Zm-12,62.7H334.9v3.12c-2.87,2.26-5.41,3.37-7.71,3.37-2.51,0-3.16-.72-3.16-3.48a10.25,10.25,0,0,1,.4-3Z"/><polygon class="cls-4" points="381.2 525.53 378.86 519.06 388.81 510.77 388.81 421.83 380.09 414.47 380.98 408.32 409.47 395.8 414.6 399.15 414.6 510.77 424.56 519.06 422.21 525.53 381.2 525.53"/><path class="cls-1" d="M410.94,399.15V512.48l11.27,9.39h-41l11.27-9.39V420.13l-10-8.46,28.49-12.52m-2.94-6.7L379.51,405l-1.78,12.3,7.42,6.26v85.52l-8.64,7.2,4.69,12.94h41l4.69-12.94-8.64-7.2V399.15L408,392.45Z"/><path class="cls-4" d="M526.78,525.53l-2.34-6.47,9.95-8.29V472.25c0-11.18-3.35-12-8.86-12-3.23,0-7.71.61-14.19,5.1v45.41l10,8.29L519,525.53h-41l-2.34-6.47,9.95-8.29V472.25c0-11.18-3.35-12-8.86-12-3.23,0-7.71.61-14.19,5.1v45.41l10,8.29-2.35,6.47h-41l-2.34-6.47,9.95-8.29V466.13L428,458.77l.89-6.15,28.49-12.52,5.08,4-.84,4.95a40.46,40.46,0,0,1,25.25-8.92c10,0,17.22,3.74,21.11,10.9,8.36-7.24,17.67-10.9,27.73-10.9,15.79,0,24.48,9.25,24.48,26v44.62l10,8.29-2.34,6.47Z"/><path class="cls-1" d="M458.84,443.45l-2.35,13.77.79.79c6.89-7.52,16.43-14.25,29.58-14.25,8.93,0,16.91,3.29,19.73,13.62,6.88-7.2,16.28-13.62,29.11-13.62,11,0,20.82,5,20.82,22.39v46.33l11.27,9.39h-41l11.27-9.39V472.25c0-12.37-4.23-15.65-12.52-15.65-4.7,0-10.33,1.25-17.85,6.89v49L519,521.87h-41l11.27-9.39V472.25c0-12.37-4.23-15.65-12.52-15.65-4.7,0-10.33,1.25-17.85,6.89v49l11.27,9.39h-41l11.27-9.39V464.42l-10-8.45,28.49-12.52m76.86-7a44.13,44.13,0,0,0-26.91,9.21c-4.83-6-12.33-9.21-21.93-9.21a43.16,43.16,0,0,0-23,6.54l-8-6.23-28.49,12.52-1.78,12.3,7.42,6.26v41.22l-8.64,7.2,4.69,12.94h41L474,518.38l3.91,10.81h41l3.92-10.81,3.91,10.81h41l4.69-12.94-8.64-7.2v-42.9c0-10.2-2.94-18-8.74-23.17-4.86-4.34-11.39-6.54-19.4-6.54ZM515,467.33c4.79-3,8.1-3.41,10.53-3.41s3.58.37,3.88.72,1.32,1.78,1.32,7.61v36.8l-7.86,6.55L515,509.05V467.33Zm-48.84,0c4.79-3,8.1-3.41,10.53-3.41s3.58.37,3.89.72,1.31,1.78,1.31,7.61v36.8L474,515.6l-7.87-6.55V467.33Z"/><path class="cls-4" d="M575.25,523.75V495.57l6.56-2.22,13.35,17.4a25.61,25.61,0,0,0,9.73,2.14c7.17,0,10.43-4,10.43-7.77,0-5.19-5.66-7.72-14.89-11.41-11.22-4.5-25.18-10.09-25.18-26.62,0-18.54,17.64-27,34-27A48,48,0,0,1,625.49,443l7.14-2.91,5,3.39v27.39l-6.54,2.26-14.15-18a21.22,21.22,0,0,0-5.67-.78c-7.59,0-11,3.78-11,7.3,0,4,5.32,6.26,14.08,9.55,11.3,4.25,26.77,10.06,26.77,27.55,0,16.45-14.24,28.39-33.87,28.39a49.76,49.76,0,0,1-18.46-3.6l-8.43,3.62Z"/><path class="cls-1" d="M634,443.45v27.39L619.14,451.9a25.73,25.73,0,0,0-7.83-1.25c-10,0-14.71,5.63-14.71,11,0,15.65,40.85,10.64,40.85,37.1,0,14.87-13.46,24.73-30.21,24.73a46.29,46.29,0,0,1-18.47-3.92l-9.86,4.23V495.57l13.93,18.16a29.9,29.9,0,0,0,12,2.82c9.24,0,14.09-5.63,14.09-11.43,0-17.53-40.07-12.36-40.07-38,0-15.66,15.18-23.33,30.37-23.33a45,45,0,0,1,16.28,3.13l8.45-3.44m-24.73-7c-9.43,0-18.31,2.51-25,7.06a27.9,27.9,0,0,0-12.69,23.59,25.76,25.76,0,0,0,10.1,21c5.21,4.19,11.68,6.78,17.38,9.06,7.61,3,12.59,5.25,12.59,8,0,2.05-2.09,4.11-6.77,4.11a21.26,21.26,0,0,1-7.44-1.51l-12.73-16.6-13.13,4.45v28.18l10.2,6.73,7.07-3a53.4,53.4,0,0,0,18.38,3.31c9.91,0,19.12-3,25.93-8.37a29.71,29.71,0,0,0,11.6-23.68c0-12.19-6.49-19.39-14.18-24.15l10.74-3.72V443.45l-10.08-6.78-5.87,2.39a51.63,51.63,0,0,0-16.1-2.62Zm16.14,35.32c-3.39-1.62-6.79-2.9-9.8-4-4.09-1.54-11.7-4.4-11.7-6.13s2.54-3.64,7.39-3.64a17.48,17.48,0,0,1,3.58.37l10.53,13.42Z"/></svg>