<svg id="Layer_1" data-name="Layer 1" xmlns="http://www.w3.org/2000/svg" viewBox="0 0 1362.61 400"><defs><style>.cls-1{fill:#bfb67f;}.cls-2{fill:#16140a;}.cls-3{fill:none;stroke:#ba3e4a;stroke-linecap:square;stroke-miterlimit:10;stroke-width:8px;}.cls-4{fill:#ba3e4a;}</style></defs><rect class="cls-1" width="1362.61" height="400"/><path class="cls-2" d="M792.75,49.88l-8.64,9.4a4.7,4.7,0,0,1-6.6.33l-2.36-2.08-73.44,82.64,17.55,17.93a4.08,4.08,0,0,1,.13,5.56l-10.22,11.51a4.08,4.08,0,0,1-5.53.52l-15.52-12L566.58,298.43H514L656.5,135.62l-13.71-14a4.08,4.08,0,0,1-.15-5.56l10.24-11.51a4.07,4.07,0,0,1,5.53-.52l19.87,15.32,73.44-82.64L749,34.25a4.72,4.72,0,0,1-.33-6.71l8.62-9.37a4.71,4.71,0,0,1,5.69-1L781.28,27l11.85,17A4.72,4.72,0,0,1,792.75,49.88Z"/><line class="cls-3" x1="136.19" y1="298.43" x2="1210.3" y2="298.43"/><path class="cls-4" d="M208.39,275.23,206.05,270l7.7-8.72-10.13-22.18H166.41L157.78,258l13.16,11.81-2.08,5.45H136.19l-2.83-4.46,60.21-127.93,2.82-1.8h1l2.82,1.77,56.87,118,9.66,9-2.13,5.41ZM196.5,223.31l-11.25-24.78-11.5,24.78Z"/><path class="cls-1" d="M197.42,144.17,254.55,262.7l10.09,9.4H208.39l9-10.23v0L205.63,236H164.41L154,258.76l14.88,13.34H136.19l60.2-127.93h1m-28.56,82.27h32.49L185.28,191l-16.42,35.41m28.56-88.52h-1l-5.65,3.59L130.53,269.44l5.66,8.91h32.67l4.17-10.9-11.45-10.27,6.84-14.91h33.19l8.46,18.5-6.36,7.2,4.68,10.38h56.25l4.26-10.82-9.23-8.6L203.05,141.46l-5.63-3.54Zm-18.77,82.27L185.22,206l6.43,14.17Z"/><polygon class="cls-4" points="300.56 281.39 297.76 279.66 240.04 164.21 229.69 154.68 231.8 149.25 290.3 149.25 292.64 154.45 284.94 163.17 312.42 221.44 336.3 166.54 323.1 154.71 325.19 149.25 364.7 149.25 366.82 154.68 356.17 164.5 304.43 279.54 301.58 281.39 300.56 281.39"/><path class="cls-1" d="M364.7,152.38l-11.12,10.26-52,115.62h-1l-58-116-10.78-9.92h58.5l-9.07,10.26L312.53,229l27.54-63.28-14.88-13.34H364.7m0-6.25H325.19L321,157l11.52,10.33L312.3,213.87,288.64,163.7l6.34-7.18-4.68-10.39H231.8L227.57,157l9.93,9.14L295,281.06l5.59,3.45h1l5.7-3.69,51.48-114.45,10.18-9.4-4.24-10.84Z"/><path class="cls-4" d="M422.17,275.23l0,0h-9L410.79,270l7.69-8.71-10.12-22.16H371.15L362.51,258l13.17,11.81-2.09,5.45H340.93l-2.83-4.46,60.2-127.93,2.83-1.8h1l2.81,1.77,56.87,118,9.66,9-2.13,5.41Zm-20.93-51.92L390,198.53l-11.49,24.78Z"/><path class="cls-1" d="M402.16,144.17,459.28,262.7l10.09,9.4h-47.2v0h-9l9-10.23h0L410.37,236H369.15l-10.44,22.74,14.88,13.34H340.93l60.2-127.93h1m-28.57,82.27h32.5L390,191l-16.42,35.41m28.57-88.52h-1l-5.66,3.59-60.2,127.93,5.66,8.91h32.66l4.18-10.9-11.46-10.27,6.85-14.91h33.19l8.45,18.48-6.35,7.19,4.68,10.39h9l0,0h47.2l4.26-10.82-9.23-8.6L407.79,141.46l-5.63-3.54Zm-18.78,82.27L390,206l6.44,14.17Z"/><polygon class="cls-4" points="544.29 275.23 541.95 270.04 549.42 261.58 526.19 226.81 503.63 261.46 511.81 269.93 509.57 275.23 475.36 275.23 473.24 269.81 484.07 259.81 515.75 211.06 483.75 162.98 474.63 154.69 476.73 149.25 535.82 149.25 538.16 154.45 530.75 162.84 550.98 192.98 571.4 162.99 563.25 154.55 565.5 149.25 599.71 149.25 601.83 154.68 590.97 164.7 561.23 208.33 596.11 260.65 606.09 269.8 603.98 275.23 544.29 275.23"/><path class="cls-1" d="M599.71,152.38l-11.12,10.26-31.13,45.67,36.26,54.39L604,272.1H544.29l9.07-10.26-27.2-40.7-26.51,40.7h0l9.92,10.25H475.36l11.12-10.26,33-50.8-33.35-50.11-9.41-8.55h59.09l-9,10.16v.1L551,198.56l24.46-35.92h0l-9.92-10.26h34.21m0-6.25H565.5L561,156.72l6.38,6.61L551,187.4l-16.32-24.29,5.82-6.59-4.68-10.39H476.73L472.53,157l8.83,8L512,211.09l-30.34,46.69-10.55,9.73,4.24,10.84h34.21l4.49-10.59-6.46-6.68,18.63-28.59,19.25,28.82L539.61,268l4.68,10.38H604l4.23-10.85-9.71-8.9L565,208.35l28.35-41.6L604,157l-4.24-10.84Z"/><path class="cls-2" d="M745.48,276.45c-32.71,0-44.67-20.15-68.49-60.28l-2.91-4.9,2.44-4.71c19.81-1.6,29.45-9,29.45-22.71,0-12.36-8-19.45-22-19.45H671.17v96l11.19,9.32-2,5.53H633.84l-2-5.53L643,260.38V164.11l-11.19-9.33,2-5.53h52.68c30.55,0,48.79,12.11,48.79,32.38,0,15-9.75,26.91-26.92,33.22,13.77,24.06,27.06,44.55,46.27,54.48l1.69,2.77V273l-2.85,3.11C750.71,276.32,748,276.45,745.48,276.45Z"/><path class="cls-1" d="M686.52,152.38c26.17,0,45.66,9.06,45.66,29.25,0,15.56-11.46,26.34-28.39,31.47,15.05,26.51,28.91,48.4,49.43,59V273q-4.07.36-7.74.36c-32.18,0-43.28-20.89-68.71-63.64,25.31-2.06,32.32-13.34,32.32-25.83,0-14.54-9.74-22.58-25.14-22.58h-15.9V261.84l12.31,10.26H633.84l12.31-10.26v-99.2l-12.31-10.26h52.68m0-6.25H633.84l-4,11.05,10.06,8.39v93.35l-10.06,8.38,4,11.05h46.52l4-11.05-10.06-8.38V217.75h0C698,257.62,711,279.57,745.48,279.57c2.62,0,5.41-.13,8.3-.39l5.69-6.22v-.86l-3.38-5.55c-17.65-9.12-30.3-27.87-43.19-50.13,16.33-7.08,25.53-19.47,25.53-34.79,0-22.23-19.4-35.5-51.91-35.5ZM674.3,167.52H684c8.62,0,18.89,2.84,18.89,16.33,0,4.77,0,17.44-26.58,19.6l-2,3.81V167.52Z"/><path class="cls-2" d="M793.25,276.94c-25.69,0-44.34-19.94-44.34-47.42,0-13.74,4.74-25.45,13.73-33.86,8.27-7.76,19.57-12,31.81-12,22.75,0,37,13.91,37.16,36.29l-3.13,3.14H774.65c.07,19.51,9.4,30.7,25.61,30.7,8.33,0,16.44-2.95,24.11-8.77l4.1.28.85.85.77,3.17C824.31,267.12,811.22,276.94,793.25,276.94Zm10.23-66.45c-.72-7.12-4-13.77-11.6-13.77-7.4,0-13,5.08-15.58,13.77Z"/><path class="cls-1" d="M794.45,186.76c18.47,0,33.86,10.26,34,33.18h-57v2.91c0,20.69,10.09,34,28.73,34,7,0,16.08-1.88,26-9.4l.86.85c-6.16,19-19.67,25.48-33.87,25.48-23.77,0-41.22-18.47-41.22-44.29,0-27.2,19.84-42.76,42.42-42.76m-22.07,26.85h34.38c0-11.63-5.47-20-14.88-20-9.75,0-17.27,7.18-19.5,20m22.07-33.1c-13,0-25.09,4.57-34,12.87-9.63,9-14.72,21.52-14.72,36.14,0,14,4.75,26.87,13.38,36.1a46.06,46.06,0,0,0,34.09,14.44c19.44,0,33.58-10.58,39.81-29.8l-1.53-6.35-.85-.86-8.2-.55c-7.11,5.39-14.59,8.13-22.22,8.13-17.58,0-21.72-14.06-22.38-24.44h50.6l6.25-6.3c-.09-12.54-4.34-22.85-12.28-29.83-7.11-6.25-16.79-9.55-28-9.55Zm-13.59,26.85c1.93-3.89,5.27-7.51,11-7.51,4.75,0,6.89,3.83,7.86,7.51Z"/><path class="cls-2" d="M908.53,276.94c-8.25,0-14.71-3.71-18.28-10.33a32.54,32.54,0,0,1-24.48,10.33c-16.13,0-26.55-9.28-26.55-23.65A25.73,25.73,0,0,1,853,230.2l1.5-.39h32.11v-9.7c0-11.33-3.7-15.35-14.15-15.35-7.88,0-15.65,2.63-23.75,8l-3.94-.39-.86-.86-.52-3.72c8.48-15.37,23.07-24.19,40-24.19,18.45,0,29.46,11,29.46,29.47v38.31c0,6.28,2.54,6.28,4.57,6.28,2.19,0,4.13-.49,7.57-3l4,.31.86.86.74,3.24C926.47,271.11,919.23,276.94,908.53,276.94Zm-41.25-34.55a14,14,0,0,0-2.32,8.16c0,7.18,4.54,8.68,8.34,8.68,4.18,0,8.54-2.06,13.29-6.29V242.39Z"/><path class="cls-1" d="M883.39,186.76c16.76,0,26.34,9.4,26.34,26.34v38.31c0,7.52,3.42,9.41,7.69,9.41,3.08,0,5.65-.86,9.41-3.6l.86.86c-4.11,11.8-10.78,15.73-19.16,15.73-8.72,0-14.71-4.61-17.1-12.48h-.86a29.44,29.44,0,0,1-24.8,12.48c-14,0-23.43-7.69-23.43-20.52a22.75,22.75,0,0,1,12.14-20.35h35.24V220.11c0-13.51-5.65-18.47-17.28-18.47-7.86,0-16.25,2.39-25.48,8.55l-.86-.86c8.21-14.88,22.07-22.57,37.29-22.57m-10.09,75.6c5.3,0,10.6-2.57,16.42-8v-15h-24a16.48,16.48,0,0,0-3.93,11.28c0,8.56,5.47,11.81,11.46,11.81m10.09-81.85c-18.13,0-33.71,9.4-42.76,25.8l1,7.44.86.86,7.89.78c7.57-5,14.77-7.5,22-7.5,7.78,0,11,1.7,11,12.22v6.58h-29l-3,.77a29.15,29.15,0,0,0-15.38,25.83c0,16,11.93,26.77,29.68,26.77a35.71,35.71,0,0,0,24-8.61c4.35,5.51,10.94,8.61,18.81,8.61,12,0,20.46-6.7,25.06-19.93l-1.48-6.47-.86-.86-8.09-.63c-3.06,2.22-4.36,2.4-5.74,2.4a4.23,4.23,0,0,1-1-.1,7.75,7.75,0,0,1-.42-3.06V213.1c0-10-3-18.27-8.73-23.95s-13.93-8.64-23.86-8.64Zm-14.31,65h14.39v6c-3.73,3.09-7.07,4.6-10.17,4.6-3.7,0-5.21-1.61-5.21-5.56a11.67,11.67,0,0,1,1-5Z"/><polygon class="cls-2" points="932.31 275.23 930.31 269.7 941.5 260.38 941.5 162.38 931.66 154.08 932.42 148.84 963.55 135.15 967.93 138.01 967.93 260.38 979.12 269.7 977.12 275.23 932.31 275.23"/><path class="cls-1" d="M964.8,138V261.84l12.32,10.26H932.31l12.31-10.26V160.93l-10.94-9.23L964.8,138m-2.51-5.72L931.16,146l-1.51,10.5,8.72,7.37v95.08l-10.06,8.38,4,11.05h44.81l4-11.05-10.07-8.38V138l-8.76-5.72Z"/><path class="cls-2" d="M1091.37,275.23l-2-5.53,11.19-9.32V217.89c0-13-4.37-14-10.56-14-3.71,0-8.89.7-16.37,6v50.48l11.19,9.32-2,5.53H1038l-2-5.53,11.19-9.32V217.89c0-13-4.38-14-10.56-14-3.72,0-8.9.7-16.37,6v50.48l11.19,9.32-2,5.53H984.65l-2-5.53,11.19-9.32V210.79l-9.84-8.3.76-5.25,31.13-13.68,4.33,3.38-1.31,7.7c8.68-7.31,18.35-11,28.85-11,11,0,18.82,4.28,22.8,12.44,9.19-8.26,19.45-12.44,30.56-12.44,16.69,0,25.87,9.8,25.87,27.59v49.16l11.2,9.32-2,5.53Z"/><path class="cls-1" d="M1017.14,186.42l-2.56,15.05.85.85c7.53-8.21,18-15.56,32.33-15.56,9.75,0,18.47,3.59,21.55,14.88,7.53-7.87,17.79-14.88,31.81-14.88,12,0,22.75,5.47,22.75,24.46v50.62l12.31,10.26h-44.81l12.32-10.26V217.89c0-13.52-4.62-17.11-13.69-17.11-5.13,0-11.28,1.37-19.49,7.53v53.53l12.31,10.26H1038l12.31-10.26V217.89c0-13.52-4.61-17.11-13.68-17.11-5.13,0-11.29,1.37-19.5,7.53v53.53l12.32,10.26H984.65L997,261.84V209.33l-11-9.23,31.13-13.68m84-5.91c-10.75,0-20.73,3.62-29.76,10.79-4.9-7-13-10.79-23.6-10.79a45.57,45.57,0,0,0-24.48,7.07l0-.11-8.67-6.78L983.5,194.38,982,204.88l8.73,7.36v46.68l-10.06,8.38,4,11.05h44.81l4-11.05-10.07-8.38V211.55c6-4,10.22-4.52,13.25-4.52,4.34,0,5.26,1,5.56,1.38.7.79,1.87,3.07,1.87,9.48v41L1034,267.3l4,11.05h44.81l4-11.05-10.06-8.39V211.55c6-4,10.21-4.52,13.24-4.52,4.35,0,5.26,1,5.56,1.38.7.79,1.88,3.07,1.88,9.48v41l-10.07,8.38,4,11.05h44.81l4-11.05-10.07-8.38v-47.7c0-19.52-10.57-30.71-29-30.71Z"/><path class="cls-2" d="M1145.21,274.16V243.37l5.6-1.9,14.73,19.2a29.16,29.16,0,0,0,11.19,2.49c8.42,0,12.26-4.85,12.26-9.36,0-6.11-6.35-9.09-16.81-13.28-12-4.82-27-10.81-27-28.28,0-19.65,18.82-28.61,36.3-28.61a52.14,52.14,0,0,1,17.74,3.19l8.11-3.3,4.3,2.9v29.93l-5.58,1.93-15.63-19.92a24.37,24.37,0,0,0-6.71-1c-8.9,0-13,4.58-13,8.85,0,4.91,6,7.53,16,11.26,12.78,4.8,28.69,10.77,28.69,29.27,0,17.47-15.2,30.15-36.14,30.15a53.62,53.62,0,0,1-20.18-4l-9.54,4.09Z"/><path class="cls-1" d="M1208.54,186.42v29.93l-16.25-20.7a28.14,28.14,0,0,0-8.55-1.37c-11,0-16.08,6.16-16.08,12,0,17.1,44.64,11.63,44.64,40.53,0,16.25-14.71,27-33,27a50.7,50.7,0,0,1-20.18-4.27l-10.78,4.62V243.37l15.23,19.84a32.66,32.66,0,0,0,13.17,3.08c10.09,0,15.39-6.16,15.39-12.49,0-19.15-43.79-13.51-43.79-41.56,0-17.1,16.59-25.48,33.18-25.48a49.21,49.21,0,0,1,17.79,3.42l9.24-3.76m-27-5.91c-10,0-19.3,2.63-26.32,7.41a28.77,28.77,0,0,0-13.11,24.32c0,19.59,16.72,26.29,28.93,31.18,9.25,3.7,14.86,6.24,14.86,10.38,0,3.11-2.83,6.24-9.14,6.24a25.3,25.3,0,0,1-9.22-2l-14.22-18.52-11.21,3.8v30.79l8.72,5.74,8.36-3.58a56.85,56.85,0,0,0,20.13,3.74c10.43,0,20.11-3.11,27.25-8.76a30.77,30.77,0,0,0,12-24.51,27.24,27.24,0,0,0-11.1-22.5c-5.86-4.54-13.17-7.28-19.61-9.7-6.85-2.57-13.93-5.23-13.93-8.33,0-2.76,3.08-5.73,9.83-5.73a20.7,20.7,0,0,1,4.9.59l15,19.09,11.17-3.86V186.42l-8.61-5.79-7,2.85a55,55,0,0,0-17.66-3Z"/></svg>