<svg id="Layer_1" data-name="Layer 1" xmlns="http://www.w3.org/2000/svg" viewBox="0 0 1979.12 1113.26"><defs><style>.cls-1{fill:#16140a;}.cls-2{fill:#c1c1c1;}.cls-3{fill:none;stroke:#ba3e4a;stroke-linecap:square;stroke-miterlimit:10;stroke-width:6px;}.cls-4{fill:#ba3e4a;}.cls-5{fill:#bfb67f;}</style></defs><rect class="cls-1" width="1979.12" height="1113.26"/><path class="cls-2" d="M1578.42,514l-6.48,7.06a3.54,3.54,0,0,1-5,.24l-1.77-1.56-55.09,62,13.17,13.46a3.06,3.06,0,0,1,.1,4.17l-7.67,8.63a3.07,3.07,0,0,1-4.15.39l-11.64-9-91.16,101h-39.45l106.89-122.11-10.28-10.5a3.07,3.07,0,0,1-.11-4.18l7.68-8.63a3.06,3.06,0,0,1,4.15-.39l14.9,11.49,55.09-62-2.07-1.85a3.52,3.52,0,0,1-.25-5l6.46-7a3.53,3.53,0,0,1,4.27-.73l13.76,7.37,8.89,12.72A3.54,3.54,0,0,1,1578.42,514Z"/><line class="cls-3" x1="1085.96" y1="700.46" x2="1891.61" y2="700.46"/><path class="cls-4" d="M1140.12,683.72l-2.25-5,5.49-6.22-7.24-15.86h-27.07L1103,670l9.52,8.53-2,5.24H1086l-2.72-4.28,45.16-96,2.72-1.72h.77l2.7,1.69,42.6,88.4,7.16,6.67-2,5.2Zm-9.94-40.26-7.43-16.36-7.59,16.36Z"/><path class="cls-1" d="M1131.89,584.76l42.84,88.9,7.57,7.06h-42.18l6.78-7.68v0L1138,653.65h-30.91l-7.83,17.06,11.16,10H1086l45.16-96h.77m-21.43,61.7h24.38l-12.06-26.55-12.32,26.55m21.43-67.7h-.77l-5.43,3.44-45.16,96,5.43,8.56h24.5l4-10.47-7.87-7.06,4.38-9.54h23.21l5.64,12.33-4.21,4.76,4.5,10h42.18l4.1-10.39-6.75-6.29-42.36-87.89-5.4-3.39Zm-12,61.7,2.86-6.17,2.8,6.17Z"/><polygon class="cls-4" points="1209.25 688.33 1206.56 686.67 1163.32 600.19 1155.64 593.12 1157.67 587.91 1201.55 587.91 1203.8 592.9 1198.31 599.12 1218.12 641.12 1235.27 601.71 1225.72 593.15 1227.72 587.91 1257.35 587.91 1259.39 593.12 1251.5 600.4 1212.75 686.56 1210.02 688.33 1209.25 688.33"/><path class="cls-1" d="M1257.35,590.91l-8.33,7.7-39,86.72h-.77l-43.49-87-8.09-7.45h43.88l-6.8,7.7,23.48,49.78,20.65-47.47-11.16-10h29.63m0-6h-29.63l-4,10.47,7.94,7.12L1218,633.85l-16.15-34.23,4.19-4.73-4.5-10h-43.88l-4.06,10.42,7.27,6.69,43,86,5.37,3.31h.77l5.47-3.54,38.5-85.6,7.43-6.87-4.07-10.41Z"/><path class="cls-4" d="M1300.46,683.72l0,0h-6.76l-2.25-5,5.49-6.21-7.24-15.85h-27.06l-6.11,13.3,9.52,8.53-2,5.24h-24.51l-2.71-4.28,45.16-96,2.71-1.72h.77l2.7,1.69,42.61,88.4,7.15,6.67-2,5.2Zm-16.72-40.26-7.43-16.36-7.58,16.36Z"/><path class="cls-1" d="M1285.45,584.76l42.85,88.9,7.57,7.06h-35.41v0h-6.78l6.78-7.68h0l-8.85-19.37h-30.92l-7.82,17.06,11.16,10h-24.51l45.16-96h.77M1264,646.46h24.37l-12.06-26.55L1264,646.46m21.42-67.7h-.77l-5.43,3.44-45.15,96,5.42,8.56H1264l4-10.47-7.87-7.06,4.38-9.54h23.21l5.63,12.32-4.19,4.75,4.49,10h6.76l0,0h35.41l4.09-10.39-6.74-6.29-42.36-87.89-5.41-3.39Zm-12,61.7,2.87-6.17,2.8,6.17Z"/><polygon class="cls-4" points="1392.06 683.72 1389.81 678.73 1395.08 672.76 1378.49 647.93 1362.4 672.65 1368.17 678.63 1366.02 683.72 1340.36 683.72 1338.33 678.51 1346.39 671.07 1369.87 634.94 1346.15 599.3 1339.37 593.13 1341.39 587.91 1385.71 587.91 1387.96 592.9 1382.73 598.82 1397.08 620.2 1411.56 598.94 1405.81 593 1407.97 587.91 1433.63 587.91 1435.66 593.12 1427.58 600.58 1405.56 632.88 1431.43 671.69 1438.86 678.5 1436.83 683.72 1392.06 683.72"/><path class="cls-1" d="M1433.63,590.91l-8.34,7.7-23.35,34.25,27.2,40.8,7.69,7.06h-44.77l6.8-7.7-20.4-30.53L1358.58,673h0l7.44,7.7h-25.66l8.34-7.7,24.76-38.1-25-37.59-7-6.42h44.32l-6.73,7.63v.07l18.08,26.94,18.35-26.94h0l-7.44-7.7h25.66m0-6H1408l-4.32,10.18,4,4.18-10.6,15.57-10.59-15.77,3.7-4.18-4.5-10h-44.32l-4,10.44,6.51,5.92L1366.28,635l-22.2,34.16-7.79,7.19,4.07,10.41H1366l4.31-10.18-4.12-4.25,12.32-18.91,12.77,19.13-3.74,4.23,4.5,10h44.77l4.06-10.43-7.16-6.56-24.55-36.83,20.68-30.34,7.84-7.24-4.07-10.41Z"/><path class="cls-5" d="M1543,684.63c-24.91,0-34-15.22-51.94-45.54l-2.18-3.67,2.34-4.52c21.48-1.74,21.48-12.76,21.48-16.38,0-12.12-9.93-13.93-15.85-13.93h-8.93v71l8.15,6.8-1.92,5.31h-34.89l-1.92-5.31,8.15-6.8V600l-8.15-6.8,1.92-5.31h39.51c23.33,0,37.25,9.33,37.25,24.94,0,11.31-7.19,20.37-19.89,25.27,10.14,17.66,20,32.66,34.05,39.93l1.62,2.67v.64l-2.73,3C1546.93,684.53,1544.88,684.63,1543,684.63Z"/><path class="cls-1" d="M1498.74,590.91c19.63,0,34.25,6.8,34.25,21.94,0,11.68-8.59,19.76-21.29,23.61,11.29,19.88,21.68,36.3,37.07,44.26v.64q-3,.27-5.8.27c-24.14,0-32.47-15.67-51.54-47.74,19-1.54,24.24-10,24.24-19.37,0-10.91-7.31-16.93-18.85-16.93h-11.93V673l9.23,7.7h-34.89l9.23-7.7V598.61l-9.23-7.7h39.51m0-6h-39.51l-3.84,10.61,7.07,5.9v68.79l-7.07,5.9,3.84,10.61h34.89l3.84-10.61-7.07-5.9V644.73c16.5,27.71,26.69,42.9,52.08,42.9,2,0,4.13-.1,6.34-.3l5.46-6v-.64l-3.24-5.34c-12.61-6.51-21.83-19.88-31.14-35.83,11.92-5.61,18.6-15.07,18.6-26.7,0-17.49-15-27.94-40.25-27.94Zm-7.85,18.68h5.93c8.53,0,12.85,3.67,12.85,10.93,0,3.55,0,11.87-18.73,13.39l0,.11V603.59Z"/><path class="cls-5" d="M1578.8,685c-19.66,0-33.92-15.24-33.92-36.23,0-23,17.51-35.07,34.81-35.07,17.47,0,28.41,10.68,28.53,27.87l-3,3h-39.71c.26,13.81,7,21.71,18.55,21.71,6.09,0,12-2.17,17.68-6.45l3.94.27.64.64.73,3C1602.62,677.47,1592.58,685,1578.8,685Zm6.93-51.16c-.65-4.76-3-9-8-9s-8.9,3.24-10.8,9Z"/><path class="cls-1" d="M1579.69,616.7c13.86,0,25.41,7.7,25.53,24.89H1562.5v2.18c0,15.52,7.57,25.53,21.56,25.53,5.26,0,12.06-1.41,19.5-7.06l.64.64c-4.62,14.24-14.76,19.12-25.4,19.12-17.84,0-30.92-13.86-30.92-33.23,0-20.4,14.88-32.07,31.81-32.07m-16.54,20.14h25.78c0-8.72-4.1-15-11.16-15-7.31,0-13,5.39-14.62,15m16.54-26.14c-18.79,0-37.81,13.08-37.81,38.07,0,10.87,3.69,20.81,10.39,28A35.85,35.85,0,0,0,1578.8,688c15.19,0,26.24-8.26,31.11-23.27l-1.47-6.09-.64-.64-7.87-.54c-5.18,3.93-10.37,5.84-15.87,5.84-11,0-14.6-7.85-15.38-15.71h36.54l6-6.05c-.14-18.73-12.51-30.84-31.53-30.84Zm-7.88,20.14a7.2,7.2,0,0,1,6-3c2.08,0,3.32,1.35,4.07,3Z"/><path class="cls-5" d="M1665.26,685c-6.12,0-11-2.62-13.85-7.32a25.06,25.06,0,0,1-18.22,7.32c-12.5,0-20.57-7.22-20.57-18.4a19.94,19.94,0,0,1,10.66-17.89l1.45-.37h23.42v-6.62c0-9.13-3.5-10.86-10-10.86-5.78,0-11.49,1.93-17.46,5.91l-3.78-.37-.64-.65-.51-3.57c6.48-11.74,17.64-18.48,30.6-18.48,14.25,0,22.75,8.51,22.75,22.76v28.73c0,4.06,1.29,4.06,2.78,4.06s2.84-.34,5.29-2.12l3.88.3.64.64.72,3.11C1679.23,680.48,1673.61,685,1665.26,685Zm-30.59-25.92a9.88,9.88,0,0,0-1.43,5.47c0,3.88,1.88,5.85,5.6,5.85,2.9,0,6-1.43,9.31-4.35v-7Z"/><path class="cls-1" d="M1646.41,616.7c12.57,0,19.75,7.06,19.75,19.76v28.73c0,5.65,2.57,7.06,5.78,7.06,2.3,0,4.23-.64,7-2.7l.64.65c-3.08,8.85-8.08,11.8-14.37,11.8-6.54,0-11-3.47-12.82-9.37h-.65a22.08,22.08,0,0,1-18.6,9.37c-10.52,0-17.57-5.77-17.57-15.4a17.05,17.05,0,0,1,9.11-15.26h26.42v-9.62c0-10.14-4.23-13.86-13-13.86-5.91,0-12.19,1.8-19.12,6.42l-.64-.65c6.16-11.16,16.55-16.93,28-16.93m-7.57,56.7c4,0,8-1.92,12.31-6V656.08h-18a12.39,12.39,0,0,0-3,8.47c0,6.42,4.11,8.85,8.6,8.85m7.57-62.7c-14.09,0-26.2,7.3-33.22,20l1,7.15.64.64,7.57.75c5.46-3.64,10.62-5.41,15.79-5.41,1.9,0,4.39.23,5.46,1.32s1.49,3.31,1.49,6.54v3.62h-20.42l-2.9.74a23.16,23.16,0,0,0-12.21,20.52c0,12.8,9.47,21.4,23.57,21.4a28.18,28.18,0,0,0,17.8-5.93,18.85,18.85,0,0,0,14.27,5.93c9.65,0,16.39-5.33,20-15.83l-1.43-6.22-.64-.64-7.77-.61c-1.84,1.34-2.62,1.52-3.24,1.54a8.88,8.88,0,0,1-.06-1V636.46c0-15.89-9.87-25.76-25.75-25.76Zm-9.84,51.38h8.58v2.56c-2.35,1.86-4.43,2.76-6.31,2.76-2.06,0-2.6-.58-2.6-2.85a8.54,8.54,0,0,1,.33-2.47Z"/><polygon class="cls-5" points="1683.1 683.72 1681.18 678.41 1689.33 671.61 1689.33 598.72 1682.19 592.69 1682.92 587.65 1706.27 577.39 1710.47 580.14 1710.47 671.61 1718.63 678.41 1716.71 683.72 1683.1 683.72"/><path class="cls-1" d="M1707.47,580.14V673l9.24,7.7H1683.1l9.23-7.7V597.33l-8.21-6.93,23.35-10.26m-2.41-5.5-23.35,10.27L1680.25,595l6.08,5.13v70.09l-7.07,5.9,3.84,10.61h33.61l3.84-10.61-7.08-5.9V580.14l-8.41-5.5Z"/><path class="cls-5" d="M1802.41,683.72l-1.92-5.31,8.15-6.8V640.05c0-9.17-2.74-9.83-7.26-9.83-2.64,0-6.32.5-11.62,4.18v37.21l8.15,6.8-1.92,5.31h-33.61l-1.92-5.31,8.16-6.8V640.05c0-9.17-2.75-9.83-7.26-9.83-2.65,0-6.32.5-11.63,4.18v37.21l8.16,6.8-1.92,5.31h-33.61l-1.92-5.31,8.15-6.8V635l-7.14-6,.73-5,23.34-10.26,4.17,3.25L1749,621a33.1,33.1,0,0,1,20.69-7.31c8.22,0,14.11,3.07,17.31,8.93,6.85-5.93,14.47-8.93,22.72-8.93,12.94,0,20.06,7.58,20.06,21.35v36.56l8.16,6.8-1.92,5.31Z"/><path class="cls-1" d="M1746.73,616.44l-1.92,11.29.64.64c5.64-6.15,13.47-11.67,24.24-11.67,7.32,0,13.86,2.69,16.17,11.16,5.64-5.9,13.34-11.16,23.86-11.16,9,0,17.06,4.1,17.06,18.35v38l9.24,7.7h-33.61l9.23-7.7v-33c0-10.14-3.46-12.83-10.26-12.83-3.85,0-8.47,1-14.62,5.64V673l9.23,7.7h-33.61l9.24-7.7v-33c0-10.14-3.47-12.83-10.26-12.83-3.85,0-8.47,1-14.63,5.64V673l9.24,7.7h-33.61l9.23-7.7V633.63l-8.21-6.92,23.35-10.27m63-5.74a36.21,36.21,0,0,0-22.06,7.54c-4-4.91-10.1-7.54-18-7.54a35.41,35.41,0,0,0-18.82,5.36l-6.55-5.11L1721,621.21l-1.46,10.08,6.08,5.13v33.79l-7.08,5.9,3.85,10.61H1756l3.2-8.86,3.21,8.86H1796l3.21-8.86,3.21,8.86H1836l3.84-10.61-7.08-5.9V635.05c0-8.36-2.41-14.75-7.17-19-4-3.56-9.32-5.36-15.89-5.36Zm-17,25.31c3.92-2.43,6.63-2.79,8.62-2.79s2.94.3,3.19.59,1.07,1.46,1.07,6.24v30.16l-6.44,5.37-6.44-5.37V636Zm-40,0c3.92-2.43,6.63-2.79,8.63-2.79s2.93.3,3.18.59,1.08,1.46,1.08,6.24v30.16l-6.45,5.37-6.44-5.37V636Z"/><path class="cls-5" d="M1842.13,682.26v-23.1l5.38-1.82,10.94,14.26a21,21,0,0,0,8,1.75c5.87,0,8.54-3.3,8.54-6.36,0-4.26-4.63-6.33-12.2-9.36-9.19-3.68-20.64-8.27-20.64-21.81,0-15.2,14.46-22.12,27.89-22.12a39.54,39.54,0,0,1,13.29,2.35l5.85-2.38,4.13,2.77v22.45l-5.36,1.86L1876.34,626a17.71,17.71,0,0,0-4.65-.64c-6.23,0-9.06,3.1-9.06,6,0,3.27,4.36,5.14,11.54,7.84,9.26,3.47,21.94,8.24,21.94,22.57,0,13.48-11.67,23.27-27.76,23.27a40.91,40.91,0,0,1-15.13-3l-6.91,3Z"/><path class="cls-1" d="M1890.29,616.44v22.45l-12.19-15.52a21,21,0,0,0-6.41-1c-8.21,0-12.06,4.62-12.06,9,0,12.83,33.48,8.73,33.48,30.41,0,12.19-11,20.27-24.76,20.27a37.94,37.94,0,0,1-15.14-3.21l-8.08,3.47v-23.1L1856.55,674a24.48,24.48,0,0,0,9.88,2.31c7.57,0,11.54-4.61,11.54-9.36,0-14.37-32.84-10.14-32.84-31.17,0-12.83,12.45-19.12,24.89-19.12a36.88,36.88,0,0,1,13.34,2.57l6.93-2.83M1870,610.7c-7.73,0-15,2-20.49,5.79a22.85,22.85,0,0,0-10.4,19.33,21.12,21.12,0,0,0,8.28,17.17c4.27,3.43,9.57,5.55,14.25,7.43,6.23,2.49,10.31,4.3,10.31,6.57,0,1.67-1.71,3.36-5.54,3.36a17.19,17.19,0,0,1-6.1-1.24l-10.44-13.6-10.76,3.65v23.1l8.37,5.51,5.78-2.48a43.8,43.8,0,0,0,15.07,2.71c8.12,0,15.67-2.44,21.25-6.86a24.35,24.35,0,0,0,9.51-19.41c0-10-5.32-15.89-11.63-19.79l8.81-3.05V616.44l-8.26-5.55-4.81,2a42.26,42.26,0,0,0-13.2-2.15Zm13.23,28.95c-2.78-1.33-5.57-2.38-8-3.3-3.35-1.26-9.59-3.6-9.59-5s2.08-3,6.06-3a14,14,0,0,1,2.93.3l8.63,11Z"/></svg>