<svg id="Layer_1" data-name="Layer 1" xmlns="http://www.w3.org/2000/svg" viewBox="0 0 753.73 753.72"><defs><style>.cls-1{fill:#16140a;}.cls-2{fill:#ba3e4a;}</style></defs><polygon class="cls-1" points="348.75 370.16 341.3 370.16 343.08 366.38 348.75 370.16"/><path class="cls-1" d="M160.56,245,145.47,277l-40.24-25.91-10,13.2a3.43,3.43,0,0,1-4.63.8L79.68,258a3.45,3.45,0,0,1-1.12-4.56L88.92,234.9,10.68,183.69,9,186.3a4,4,0,0,1-5.57,1.12L0,185.11v-26l11.64-11a4,4,0,0,1,5-.4l8.93,6.06a4,4,0,0,1,1.1,5.49l-1.46,2.22,78.25,51.22,12.83-16.91a3.44,3.44,0,0,1,4.63-.8l10.89,7.13a3.45,3.45,0,0,1,1.13,4.57l-8.1,14.46Z"/><polygon class="cls-1" points="231.18 332.22 174.03 295.42 166.67 279.2 162.57 288.04 153.1 281.94 168.14 250 202.61 272.93 231.18 332.22"/><polygon class="cls-1" points="278.88 362.93 245.68 341.55 217.32 282.72 249.46 304.11 278.88 362.93"/><polygon class="cls-1" points="311.43 345.33 297.98 375.23 293.72 372.48 264.55 314.14 311.43 345.33"/><polygon class="cls-1" points="382.41 413.92 389.82 420.18 389.82 434.36 305.64 380.16 319.03 350.38 335.5 361.34 333.16 366.32 341.3 379.16 362.28 379.16 391.32 398.48 384.18 401.62 382.41 413.92"/><polygon class="cls-1" points="415.62 414.65 415.62 450.97 397.15 439.08 397.15 416.77 387.13 408.32 398.56 403.3 415.62 414.65"/><polygon class="cls-1" points="430.31 458.22 437.73 464.47 437.73 465.21 422.94 455.68 422.94 419.52 450.47 437.84 432.08 445.92 430.31 458.22"/><path class="cls-1" d="M475,454.13a34.54,34.54,0,0,0-11.44,6v21.68l-18.47-11.89v-8.85l-10-8.45,22.68-10,4.83,3.21-1.37,8,.78.79a54.3,54.3,0,0,1,5.69-5.41Z"/><path class="cls-1" d="M485.25,461.29c.22.24,1.31,1.78,1.31,7.61v27.75l-15.72-10.12V464c4.78-3,8.09-3.41,10.52-3.41S484.94,460.94,485.25,461.29Z"/><path class="cls-1" d="M512.36,509.13l11.27,9.39h-3.1l-26.64-17.15V468.9c0-.77,0-1.51-.05-2.21L512.36,479Z"/><polygon class="cls-1" points="527.54 515.03 531.31 525.46 525.19 521.52 527.54 515.03"/><polygon class="cls-1" points="527.54 512.25 519.68 505.7 519.68 483.88 535.4 494.34 535.4 505.7 527.54 512.25"/><polygon class="cls-1" points="571.75 518.52 531.45 518.52 542.72 509.13 542.72 499.21 571.75 518.52"/><polygon class="cls-1" points="753.73 639.59 753.73 668.67 531.9 525.84 572.46 525.84 574.46 520.32 753.73 639.59"/><path class="cls-2" d="M192.6,370.16h63.11L244.38,359.6l-13.2-27.38-28.57-59.29-22.32-46.31h-1.15l-11,23.38-15,31.94-41.51,88.22h36.65l-16.69-15,11.71-25.53H189.5l13.24,29v0Zm-44.36-51.24L162.57,288l4.1-8.84L174,295.42l10.67,23.5Z"/><path class="cls-2" d="M323.64,235.83l16.7,15-30.9,71-35.12-74.46,10.18-11.51H218.87L231,247l62.76,125.52,2.29,4.58h1.15l.82-1.83,13.45-29.9,44.07-98L368,235.83Z"/><path class="cls-2" d="M485.41,370.16,474.09,359.6,410,226.62h-1.15L343.08,366.38l-1.78,3.78H378l-16.69-15L373,329.66h46.25l13.24,29h0l-10.14,11.48h10.14v0ZM378,318.92l18.42-39.72,18,39.72Z"/><polygon class="cls-2" points="569.47 370.16 579.64 358.64 549.13 312.97 519.38 358.64 519.38 358.65 530.51 370.16 492.13 370.16 504.61 358.64 541.64 301.65 504.22 245.42 493.67 235.83 559.96 235.83 549.89 247.23 549.89 247.34 576.95 287.64 604.39 247.34 593.26 235.83 631.64 235.83 619.17 247.34 584.24 298.58 624.93 359.6 636.44 370.16 569.47 370.16"/><path class="cls-1" d="M176.74,464.52c15.49-4.7,26-14.56,26-28.81,0-18.47-17.84-26.76-41.79-26.76H112.71L124,418.34v90.79l-11.27,9.39h42.58L144,509.13v-92h14.56c14.09,0,23,7.35,23,20.66,0,11.43-6.42,21.76-29.59,23.64,9.82,16.5,17.31,29.45,24.89,38.9.56.7,1.13,1.38,1.69,2a63.11,63.11,0,0,0,6.9,7c.59.5,1.19,1,1.79,1.47.3.24.61.47.92.69.61.45,1.23.88,1.85,1.3.29.2.59.39.88.57.6.37,1.2.72,1.8,1.06l.92.49c.41.22.83.43,1.25.63h0l1.08.49c1.09.48,2.2.91,3.35,1.29.77.25,1.55.48,2.34.7s1.61.41,2.44.57c1.24.25,2.51.46,3.83.62l1.33.14a65.72,65.72,0,0,0,9.07.17c1.18-.06,2.39-.14,3.63-.25v-.78C203.19,508.82,190.51,488.78,176.74,464.52Z"/><path class="cls-1" d="M265,504.59c-17.07,0-26.3-12.21-26.3-31.15v-2.66h52.12c-.15-21-14.24-30.37-31.15-30.37-20.66,0-38.82,14.25-38.82,39.13,0,23.64,16,40.55,37.73,40.55,13,0,25.36-6,31-23.33l-.78-.78C279.74,502.87,271.44,504.59,265,504.59Zm-7.67-57.92C266,446.67,271,454.34,271,465H239.51C241.55,453.25,248.43,446.67,257.36,446.67Z"/><path class="cls-1" d="M380.86,504.9c-3.44,2.51-5.79,3.29-8.61,3.29-3.91,0-7-1.72-7-8.61V464.52c0-15.5-8.77-24.11-24.11-24.11-13.93,0-26.61,7-34.12,20.66l.78.79c8.46-5.64,16.13-7.83,23.33-7.83,10.64,0,15.81,4.54,15.81,16.9v11.74H314.65a20.85,20.85,0,0,0-11.11,18.63c0,11.74,8.61,18.79,21.44,18.79a27,27,0,0,0,22.7-11.43h.78c2.19,7.2,7.67,11.43,15.66,11.43,7.67,0,13.77-3.6,17.53-14.41Zm-34-2.66c-5.33,5-10.18,7.36-15,7.36-5.48,0-10.49-3-10.49-10.8a15.06,15.06,0,0,1,3.6-10.33H346.9Z"/><path class="cls-1" d="M397.15,509.13l-11.27,9.39h41l-11.27-9.39V395.8l-17.06,7.5-11.43,5,10,8.45Z"/><path class="cls-1" d="M561.19,509.13V462.79c0-17.37-9.86-22.38-20.81-22.38-12.84,0-22.23,6.42-29.12,13.62-2.82-10.33-10.8-13.62-19.72-13.62a37,37,0,0,0-23.9,8.84,54.3,54.3,0,0,0-5.69,5.41l-.78-.79,1.37-8,1-5.76-5.81,2.55-22.68,10,10,8.45v48.06l-11.27,9.39h41l-11.27-9.39v-49a34.54,34.54,0,0,1,11.44-6,22.83,22.83,0,0,1,6.4-.88c7.78,0,12,2.88,12.48,13.44,0,.7.05,1.44.05,2.21v40.23l-11.27,9.39h41l-11.27-9.39v-49c7.51-5.63,13.14-6.88,17.84-6.88,8.3,0,12.52,3.28,12.52,15.65v40.23l-11.27,9.39h41Z"/><path class="cls-1" d="M601.27,458.26c0-5.33,4.7-11,14.72-11a25.67,25.67,0,0,1,7.82,1.25l14.87,18.94V440.1l-8.45,3.44A44.94,44.94,0,0,0,614,440.41c-15.18,0-30.37,7.67-30.37,23.32,0,25.68,40.08,20.51,40.08,38,0,5.79-4.86,11.43-14.09,11.43a29.82,29.82,0,0,1-12.05-2.82l-13.94-18.16V520.4l9.87-4.23a46.29,46.29,0,0,0,18.47,3.92c16.75,0,30.21-9.87,30.21-24.74C642.13,468.9,601.27,473.91,601.27,458.26Z"/></svg>