<svg id="Layer_1" data-name="Layer 1" xmlns="http://www.w3.org/2000/svg" viewBox="0 0 753.73 753.72"><defs><style>.cls-1{fill:#bfb67f;}.cls-2{fill:#ba3e4a;}</style></defs><path class="cls-1" d="M515.36,311.69l-30.27,33.46V299.92h8.51C503.65,299.92,511.09,304.06,515.36,311.69Z"/><path class="cls-1" d="M348.93,644.35l-35.75,39.52A14.1,14.1,0,0,1,294,685.51L240.67,643.6,139.53,753.72H0V693.61L132.1,545.37l-47-48.88a14.1,14.1,0,0,1-.29-19.24l35.75-39.52a14.09,14.09,0,0,1,9.27-4.59l-29.06,61.74,13.58,21.39h64.16l10-26.17-21-18.82,4.49-9.8,36,28.28,35.44-39.18,12.77,27.92-11.35,12.84,11.24,24.93h74.17l-41.84,46.25,60.2,62.6A14.09,14.09,0,0,1,348.93,644.35Z"/><polygon class="cls-1" points="389.24 451.1 364.33 478.63 359.09 473.74 311.61 375.23 388.12 290.67 389.24 451.1"/><path class="cls-1" d="M606.29,252.82l-18.66,19.95a82.54,82.54,0,0,0-8.66-5.53c-19-10.55-45.23-16.13-76-16.13H423.9L464.74,206l-9.46-8.57a16.31,16.31,0,0,1-1-23.23L484.41,142a16.28,16.28,0,0,1,19.75-3.16l63.18,34.61,40.49,59A16.31,16.31,0,0,1,606.29,252.82Z"/><path class="cls-2" d="M256.11,501.27H366.62l-12.35-11.52-7.47-7-46.05-95.55L234.6,250h-2l-89,189.16-29.24,62.13h64.16l-29.22-26.2L159.87,452l9.89-21.56h81l3.69,8.08,19.49,42.64v0Zm-77.62-89.7L210.74,342l31.58,69.54Z"/><path class="cls-2" d="M532.42,468.81c1.23,1.36,2.48,2.67,3.75,3.95C534.91,471.48,533.66,470.17,532.42,468.81Z"/><path class="cls-2" d="M639.41,501.27V503q-10.06.78-19.15.78c-17,0-31.56-2.05-44.4-6.26q-2.57-.84-5-1.8a98.09,98.09,0,0,1-34.65-22.91c-1.26-1.28-2.51-2.59-3.75-3.95-8-8.82-15.32-19.38-22.32-31.75q-2.43-4.29-4.81-8.86-1.59-3-3.16-6.22-2.37-4.77-4.71-9.83c-1-2.25-2.09-4.55-3.13-6.89Q492,400,489.6,394.44c-1.05-2.47-2.1-5-3.15-7.55-.53-1.28-1.05-2.57-1.58-3.87,36-6.39,49.72-26.54,49.72-52.41,0-12.67-3.27-22.88-8.84-30.4-7.42-10-18.91-15.29-32.15-15.29H470.09V481.11l17.8,20.16H386.44l17.8-20.16V286.26l-6-6.79-11.81-13.36H503c30.09,0,56.65,5.61,74.29,17.71,14.07,9.65,22.46,23.42,22.46,41.75,0,27.21-18.14,46-46.36,56.78C575.91,436.1,600.1,479.1,639.41,501.27Z"/><path class="cls-2" d="M532.42,468.81c1.23,1.36,2.48,2.67,3.75,3.95C534.91,471.48,533.66,470.17,532.42,468.81Z"/></svg>