<svg id="Layer_1" data-name="Layer 1" xmlns="http://www.w3.org/2000/svg" viewBox="0 0 1362.61 400"><defs><style>.cls-1{fill:#16140a;}.cls-2{fill:#c1c1c1;}.cls-3{fill:none;stroke:#ba3e4a;stroke-linecap:square;stroke-miterlimit:10;stroke-width:8px;}.cls-4{fill:#ba3e4a;}</style></defs><polygon class="cls-1" points="544.29 302.83 583.12 302.83 566.58 321.17 513.99 321.17 539.45 292.08 544.29 302.83"/><polygon class="cls-2" points="596.51 287.98 590.33 294.83 544.29 294.83 553.36 284.57 550.18 279.81 572.77 254 593.72 285.42 596.51 287.98"/><polygon class="cls-1" points="638.15 189.11 638.15 241.84 601.87 282.04 599.84 280.18 578.23 247.78 633.19 184.98 638.15 189.11"/><polygon class="cls-1" points="676.05 192 683.1 192 676.05 199.82 676.05 192"/><path class="cls-1" d="M792.75,72.6,784.11,82a4.72,4.72,0,0,1-6.6.33l-2.35-2.09-73.45,82.64,6.36,6.5a92.64,92.64,0,0,0-21.55-2.29H648.84l7.66-8.75-13.71-14a4.08,4.08,0,0,1-.15-5.56l10.24-11.52a4.08,4.08,0,0,1,5.53-.52l19.87,15.32,73.45-82.64L749,57a4.71,4.71,0,0,1-.34-6.71l8.62-9.38a4.7,4.7,0,0,1,5.69-1l18.34,9.82,11.85,17A4.72,4.72,0,0,1,792.75,72.6Z"/><line class="cls-3" x1="136.19" y1="321.16" x2="1210.3" y2="321.16"/><path class="cls-4" d="M208.39,294.83h56.25l-10.09-9.41L197.42,166.89h-1L136.19,294.83h32.67L154,281.49l10.43-22.75h41.22l11.8,25.83v0Zm-39.53-45.67,16.42-35.4,16.08,35.4Z"/><path class="cls-4" d="M325.19,175.1l14.88,13.34-27.54,63.29-31.3-66.37,9.07-10.26H231.8L242.58,185l58,116h1l52-115.62L364.7,175.1Z"/><path class="cls-4" d="M469.37,294.83l-10.09-9.41L402.16,166.89h-1l-60.2,127.94h32.66l-14.88-13.34,10.44-22.75h41.22l11.8,25.83-9,10.23h9v0Zm-95.78-45.67L390,213.76l16.08,35.4Z"/><polygon class="cls-4" points="603.98 294.83 544.29 294.83 553.36 284.57 550.18 279.81 526.16 243.86 499.65 284.57 509.57 294.83 475.36 294.83 486.48 284.57 519.49 233.78 486.14 183.66 476.73 175.1 535.82 175.1 526.85 185.26 526.85 185.36 550.96 221.28 575.42 185.36 565.5 175.1 599.71 175.1 588.59 185.36 557.46 231.03 572.77 254 593.72 285.42 596.51 287.98 603.98 294.83"/><path class="cls-1" d="M753.22,294.84v.85l-2,.16q-3,.21-5.73.21c-1.89,0-3.7-.07-5.45-.22-1.16-.1-2.3-.22-3.41-.38s-2.19-.36-3.25-.58c-.53-.11-1-.23-1.57-.36-1.24-.31-2.44-.66-3.62-1.06-.78-.27-1.55-.56-2.31-.86-.38-.15-.75-.31-1.13-.48a43.06,43.06,0,0,1-4.33-2.22c-.36-.2-.7-.41-1-.63s-.69-.43-1-.66c-.68-.46-1.36-.93-2-1.42l-.87-.66c-.58-.45-1.15-.91-1.72-1.39s-1.13-1-1.69-1.49l-.84-.78-1.65-1.63c-.94-1-1.88-2-2.8-3-.61-.7-1.23-1.42-1.85-2.16-1.84-2.24-3.67-4.66-5.53-7.27l-1.86-2.67c-2.18-3.2-4.4-6.65-6.7-10.36l-2-3.24q-1.51-2.47-3.09-5.1l-2.13-3.56-2.19-3.69-2.27-3.82-2.34-3.94c25.31-2,32.33-13.34,32.33-25.83a26.29,26.29,0,0,0-1.09-7.77c-2.94-9.6-11.67-14.8-24.06-14.8h-15.9V284.58l12.31,10.26H633.84l12.31-10.26V185.37L638.46,179l-4.62-3.85h52.68c13.73,0,25.62,2.5,33.82,7.8,7.44,4.78,11.84,11.86,11.84,21.45,0,15.56-11.45,26.34-28.39,31.47C718.84,262.34,732.7,284.23,753.22,294.84Z"/><path class="cls-1" d="M800.26,279.6c-18.64,0-28.73-13.34-28.73-34v-2.91h57c-.17-22.92-15.56-33.18-34-33.18C771.87,209.48,752,225,752,252.24c0,25.83,17.45,44.3,41.22,44.3,14.2,0,27.71-6.5,33.87-25.49l-.86-.85C816.34,277.72,807.28,279.6,800.26,279.6Zm-8.38-63.28c9.41,0,14.88,8.38,14.88,20H772.38C774.61,223.5,782.13,216.32,791.88,216.32Z"/><path class="cls-1" d="M926.83,280c-3.76,2.73-6.33,3.59-9.4,3.59-4.28,0-7.7-1.88-7.7-9.41V235.82c0-16.93-9.58-26.34-26.34-26.34-15.22,0-29.08,7.7-37.29,22.58l.86.85c9.24-6.16,17.62-8.55,25.48-8.55,11.63,0,17.28,5,17.28,18.47v12.83H854.48A22.77,22.77,0,0,0,842.34,276c0,12.83,9.41,20.53,23.43,20.53a29.45,29.45,0,0,0,24.8-12.49h.86c2.39,7.87,8.38,12.49,17.1,12.49,8.38,0,15.05-3.94,19.16-15.74ZM889.72,277c-5.82,5.47-11.12,8-16.42,8-6,0-11.46-3.25-11.46-11.8A16.51,16.51,0,0,1,865.77,262h24Z"/><path class="cls-1" d="M932.31,294.83h44.81l-12.31-10.26V160.74l-31.13,13.68,10.94,9.23V284.57Z"/><path class="cls-1" d="M1091.37,294.83h44.81l-12.31-10.26V233.94c0-19-10.77-24.46-22.75-24.46-14,0-24.28,7-31.81,14.88-3.08-11.29-11.8-14.88-21.55-14.88-14.37,0-24.8,7.35-32.33,15.56l-.85-.85,2.56-15.05L986,222.82,997,232.06v52.51l-12.31,10.26h44.81l-12.32-10.26V231c8.21-6.16,14.37-7.53,19.5-7.53,9.07,0,13.69,3.6,13.69,17.11v44L1038,294.83h44.81l-12.31-10.26V231c8.21-6.16,14.36-7.53,19.5-7.53,9.06,0,13.68,3.6,13.68,17.11v44Z"/><path class="cls-1" d="M1167.66,229c0-5.82,5.13-12,16.08-12a28.14,28.14,0,0,1,8.55,1.36l16.25,20.7V209.14l-9.24,3.76a49.21,49.21,0,0,0-17.79-3.42c-16.58,0-33.18,8.38-33.18,25.48,0,28,43.79,22.41,43.79,41.57,0,6.32-5.3,12.48-15.39,12.48a32.5,32.5,0,0,1-13.17-3.08l-15.23-19.84v30.79l10.78-4.62a50.57,50.57,0,0,0,20.18,4.28c18.3,0,33-10.78,33-27C1212.3,240.61,1167.66,246.08,1167.66,229Z"/></svg>