<svg id="Layer_1" data-name="Layer 1" xmlns="http://www.w3.org/2000/svg" viewBox="0 0 1366.11 461.49"><defs><style>.cls-1{fill:#16140a;}.cls-2{fill:#c1c1c1;}.cls-3{fill:none;stroke:#ba3e4a;stroke-linecap:square;stroke-miterlimit:10;stroke-width:5.95px;}.cls-12,.cls-4{fill:#ba3e4a;}.cls-5,.cls-6{fill:#bfb67f;}.cls-6{font-size:23.99px;font-family:NocturneSerif-Medium, Nocturne Serif;font-weight:500;}.cls-7{letter-spacing:-0.01em;}.cls-8{letter-spacing:-0.04em;}.cls-9{letter-spacing:0em;}.cls-10{letter-spacing:-0.01em;}.cls-11{letter-spacing:0em;}.cls-12{font-size:29.5px;font-family:NocturneSerif-Bold, Nocturne Serif;font-weight:700;letter-spacing:0.05em;}.cls-13{letter-spacing:0em;}.cls-14{letter-spacing:0.05em;}.cls-15{letter-spacing:0.01em;}.cls-16{letter-spacing:0.03em;}</style></defs><rect class="cls-1" width="1366.11" height="461.49"/><path class="cls-2" d="M968.62,132.32l-6.43,7a3.5,3.5,0,0,1-4.91.24L955.53,138l-54.62,61.46L914,212.81a3,3,0,0,1,.1,4.13l-7.6,8.56a3,3,0,0,1-4.12.39L890.8,217,800.42,317.17H761.3l106-121.08-10.2-10.41a3,3,0,0,1-.11-4.14L864.6,173a3,3,0,0,1,4.11-.38L883.48,184l54.63-61.46-2.06-1.83a3.5,3.5,0,0,1-.24-5l6.4-7a3.52,3.52,0,0,1,4.24-.72l13.64,7.31,8.81,12.61A3.51,3.51,0,0,1,968.62,132.32Z"/><line class="cls-3" x1="480.34" y1="317.17" x2="1279.15" y2="317.17"/><path class="cls-4" d="M534,300.56l-2.23-4.94,5.45-6.17-7.19-15.72H503.24l-6.06,13.19,9.44,8.46-2,5.18H480.34l-2.69-4.24,44.77-95.14,2.69-1.71h.77l2.68,1.68L570.8,288.8l7.09,6.61-2,5.15Zm-9.86-39.91-7.36-16.22-7.53,16.22Z"/><path class="cls-1" d="M525.88,202.45l42.48,88.14,7.5,7H534l6.72-7.61v0L532,270.75H501.33l-7.76,16.92,11.06,9.92H480.34l44.77-95.14h.77m-21.25,61.18H528.8l-12-26.33-12.21,26.33m21.25-67.13h-.77l-5.38,3.41L475,295.06l5.38,8.48h24.29l4-10.38-7.81-7,4.34-9.46h23l5.59,12.23-4.17,4.72,4.46,9.89h41.82l4.06-10.3L573.23,287l-42-87.14-5.36-3.36ZM514,257.68l2.84-6.12,2.78,6.12Z"/><polygon class="cls-4" points="602.58 305.14 599.92 303.5 557.04 217.75 549.43 210.74 551.45 205.58 594.95 205.58 597.18 210.52 591.73 216.69 611.37 258.33 628.38 219.25 618.91 210.77 620.9 205.58 650.28 205.58 652.3 210.74 644.48 217.96 606.05 303.39 603.34 305.14 602.58 305.14"/><path class="cls-1" d="M650.28,208.55,642,216.18l-38.67,86h-.76l-43.12-86.24-8-7.38H595l-6.74,7.63,23.27,49.36L632,218.47l-11.06-9.92h29.38m0-6H620.9l-4,10.38,7.87,7.06-13.53,31.09-16-33.94,4.15-4.7L595,202.6h-43.5l-4,10.33,7.21,6.64,42.63,85.26,5.32,3.29h.76l5.43-3.51,38.17-84.88,7.37-6.81-4-10.32Z"/><path class="cls-4" d="M693,300.56H686.3l-2.23-4.95,5.44-6.16-7.18-15.71H655.5l-6,13.19,9.43,8.46-2,5.18H632.6l-2.69-4.24,44.77-95.14,2.69-1.71h.77l2.68,1.68,42.24,87.65,7.09,6.61-2,5.15Zm-16.58-39.91-7.36-16.22-7.53,16.22Z"/><path class="cls-1" d="M678.14,202.45l42.48,88.14,7.51,7H693v0H686.3L693,290h0l-8.78-19.21H653.59l-7.76,16.92,11.06,9.92H632.6l44.77-95.14h.77m-21.25,61.18h24.17L669.11,237.3l-12.22,26.33m21.25-67.13h-.77L672,199.91l-44.77,95.15,5.38,8.48h24.29l4-10.38-7.81-7,4.34-9.46h23L686,288.92l-4.16,4.71,4.46,9.89H693l0,0h35.11l4-10.3L725.49,287l-42-87.14-5.36-3.36Zm-11.93,61.18,2.84-6.12,2.78,6.12Z"/><polygon class="cls-4" points="783.84 300.56 781.61 295.62 786.84 289.71 770.39 265.09 754.43 289.6 760.15 295.52 758.02 300.56 732.58 300.56 730.56 295.4 738.56 288.02 761.84 252.2 738.32 216.87 731.6 210.75 733.6 205.58 777.54 205.58 779.77 210.52 774.59 216.39 788.82 237.59 803.17 216.51 797.48 210.62 799.61 205.58 825.05 205.58 827.07 210.74 819.05 218.14 797.22 250.16 822.88 288.64 830.24 295.4 828.23 300.56 783.84 300.56"/><path class="cls-1" d="M825.05,208.55l-8.27,7.63-23.15,34,27,40.44,7.63,7H783.84l6.74-7.63-20.22-30.27L750.64,290h0l7.38,7.63H732.58l8.27-7.63,24.55-37.78-24.81-37.27-7-6.36h43.94l-6.67,7.56v.07L788.8,242.9,807,216.18h0l-7.38-7.63h25.44m0-6H799.61l-4.27,10.09,4,4.15-10.51,15.43-10.5-15.63,3.66-4.15-4.46-9.89H733.6l-4,10.35,6.45,5.87,22.23,33.4-22,33.87-7.73,7.13,4,10.32H758l4.27-10.08-4.08-4.23,12.21-18.74,12.67,19-3.71,4.2,4.46,9.89h44.39l4-10.34-7.1-6.5-24.34-36.52,20.51-30.08,7.77-7.18-4-10.32Z"/><path class="cls-5" d="M933.46,301.47c-24.69,0-33.65-15.09-51.5-45.16l-2.15-3.63,2.31-4.48c21.31-1.73,21.31-12.65,21.31-16.24,0-12-9.85-13.82-15.72-13.82h-8.86v70.42l8.09,6.75L885,300.56H850.44l-1.91-5.25,8.09-6.75v-71l-8.09-6.74,1.91-5.26h39.17c23.13,0,36.94,9.24,36.94,24.72,0,11.21-7.13,20.19-19.72,25,10,17.51,19.8,32.39,33.76,39.6l1.61,2.64v.64l-2.71,3C937.39,301.38,935.36,301.47,933.46,301.47Z"/><path class="cls-1" d="M889.61,208.55c19.46,0,34,6.74,34,21.75,0,11.58-8.53,19.59-21.12,23.41,11.19,19.71,21.5,36,36.76,43.88v.64q-3,.27-5.75.27c-23.94,0-32.19-15.54-51.11-47.34,18.83-1.52,24-9.92,24-19.2,0-10.82-7.25-16.79-18.69-16.79H875.88V290l9.15,7.63H850.44l9.15-7.63V216.18l-9.15-7.63h39.17m0-6H850.44l-3.81,10.52,7,5.85v68.2l-7,5.85,3.81,10.52H885L888.84,293l-7-5.85V261.91c16.36,27.47,26.46,42.54,51.64,42.54,2,0,4.1-.1,6.28-.3l5.42-5.92v-.64L942,292.3c-12.5-6.45-21.64-19.71-30.87-35.53,11.82-5.56,18.44-14.94,18.44-26.47,0-17.34-14.92-27.7-39.91-27.7Zm-7.78,18.52h5.88c8.45,0,12.74,3.64,12.74,10.84,0,3.52,0,11.77-18.57,13.27l0,.11V221.12Z"/><path class="cls-5" d="M969,301.84c-19.49,0-33.63-15.11-33.63-35.92,0-22.83,17.37-34.78,34.52-34.78,17.32,0,28.16,10.59,28.29,27.63l-3,3H955.82c.25,13.69,6.92,21.52,18.38,21.52,6,0,11.95-2.15,17.54-6.39l3.9.27.64.64.72,3C992.61,294.38,982.66,301.84,969,301.84Zm6.88-50.73c-.65-4.71-3-8.93-7.9-8.93s-8.82,3.21-10.71,8.93Z"/><path class="cls-1" d="M969.88,234.12c13.74,0,25.19,7.63,25.31,24.67H952.84V261c0,15.39,7.5,25.31,21.36,25.31,5.22,0,12-1.4,19.34-7l.63.64C989.6,294,979.55,298.86,969,298.86c-17.68,0-30.66-13.74-30.66-32.94,0-20.23,14.76-31.8,31.55-31.8m-16.41,20H979c0-8.65-4.07-14.88-11.07-14.88-7.25,0-12.84,5.34-14.5,14.88m16.41-25.92c-18.63,0-37.49,13-37.49,37.75,0,10.78,3.65,20.63,10.3,27.73A35.49,35.49,0,0,0,969,304.81c15.07,0,26-8.19,30.84-23.07l-1.45-6-.64-.63-7.8-.54c-5.13,3.9-10.28,5.79-15.74,5.79-11,0-14.47-7.78-15.24-15.58h36.23l5.95-6c-.14-18.58-12.41-30.58-31.26-30.58Zm-7.82,20a7.16,7.16,0,0,1,5.91-3,4.35,4.35,0,0,1,4,3Z"/><path class="cls-5" d="M1054.72,301.84c-6.07,0-10.89-2.6-13.73-7.26a24.85,24.85,0,0,1-18.07,7.26c-12.39,0-20.4-7.16-20.4-18.24a19.78,19.78,0,0,1,10.57-17.74l1.44-.37h23.23v-6.57c0-9.05-3.47-10.76-9.88-10.76-5.72,0-11.38,1.92-17.3,5.86l-3.75-.37-.64-.64-.5-3.54c6.43-11.65,17.48-18.33,30.33-18.33,14.13,0,22.57,8.44,22.57,22.57V282.2c0,4,1.27,4,2.75,4s2.81-.33,5.24-2.1l3.86.3.63.64.71,3.08C1068.57,297.35,1063,301.84,1054.72,301.84Zm-30.33-25.7a9.81,9.81,0,0,0-1.42,5.42c0,3.85,1.87,5.81,5.55,5.81,2.88,0,5.91-1.42,9.24-4.32v-6.91Z"/><path class="cls-1" d="M1036,234.12c12.47,0,19.59,7,19.59,19.59V282.2c0,5.6,2.55,7,5.73,7,2.29,0,4.19-.64,7-2.68l.64.64c-3,8.78-8,11.7-14.25,11.7-6.48,0-10.94-3.43-12.72-9.28h-.63a21.93,21.93,0,0,1-18.45,9.28c-10.43,0-17.42-5.72-17.42-15.26a16.94,16.94,0,0,1,9-15.14h26.2v-9.54c0-10.05-4.2-13.74-12.85-13.74-5.85,0-12.08,1.79-19,6.36l-.63-.63c6.1-11.07,16.4-16.79,27.72-16.79m-7.5,56.22c3.94,0,7.89-1.91,12.21-6V273.17h-17.81a12.28,12.28,0,0,0-2.92,8.39c0,6.36,4.07,8.78,8.52,8.78m7.5-62.17c-14,0-26,7.24-32.93,19.86l1,7.09.63.63,7.51.74c5.41-3.6,10.53-5.36,15.65-5.36,1.89,0,4.36.23,5.42,1.32s1.48,3.27,1.48,6.47v3.59h-20.25l-2.87.74a23,23,0,0,0-12.11,20.35c0,12.69,9.39,21.21,23.37,21.21a28,28,0,0,0,17.65-5.87,18.68,18.68,0,0,0,14.15,5.87c9.56,0,16.25-5.28,19.87-15.7l-1.42-6.16-.63-.63-7.71-.61c-1.82,1.33-2.6,1.51-3.21,1.53a8.83,8.83,0,0,1-.06-1V253.71c0-15.76-9.78-25.54-25.54-25.54Zm-9.74,51h8.5v2.53c-2.33,1.84-4.39,2.74-6.26,2.74-2,0-2.57-.58-2.57-2.83a8.33,8.33,0,0,1,.33-2.44Z"/><polygon class="cls-5" points="1072.4 300.56 1070.5 295.31 1078.59 288.56 1078.59 216.29 1071.51 210.32 1072.23 205.32 1095.38 195.14 1099.55 197.87 1099.55 288.56 1107.63 295.31 1105.73 300.56 1072.4 300.56"/><path class="cls-1" d="M1096.57,197.87V290l9.16,7.63h-33.32l9.15-7.63v-75l-8.14-6.87,23.15-10.17m-2.39-5.45L1071,202.6l-1.44,10,6,5.09v69.49l-7,5.85,3.81,10.52h33.32l3.81-10.52-7-5.85v-89.3l-8.34-5.45Z"/><path class="cls-5" d="M1190.7,300.56l-1.9-5.25,8.08-6.75V257.27c0-9.09-2.72-9.75-7.2-9.75-2.62,0-6.26.5-11.52,4.15v36.89l8.09,6.75-1.91,5.25H1151l-1.91-5.25,8.09-6.75V257.27c0-9.09-2.72-9.75-7.2-9.75-2.62,0-6.27.5-11.53,4.15v36.89l8.09,6.75-1.91,5.25h-33.32l-1.91-5.25,8.09-6.75V252.29l-7.08-6,.72-5,23.15-10.18,4.13,3.22-.69,4a32.92,32.92,0,0,1,20.53-7.25c8.14,0,14,3.05,17.15,8.86,6.79-5.88,14.35-8.86,22.53-8.86,12.83,0,19.89,7.52,19.89,21.17v36.25l8.09,6.75-1.9,5.25Z"/><path class="cls-1" d="M1135.5,233.86l-1.91,11.2.63.63c5.6-6.1,13.36-11.57,24-11.57,7.25,0,13.73,2.67,16,11.06,5.6-5.85,13.23-11.06,23.66-11.06,8.9,0,16.92,4.07,16.92,18.19V290l9.16,7.63H1190.7l9.16-7.63V257.27c0-10-3.44-12.72-10.18-12.72-3.81,0-8.39,1-14.5,5.6V290l9.16,7.63H1151l9.15-7.63V257.27c0-10-3.43-12.72-10.17-12.72-3.82,0-8.4,1-14.5,5.6V290l9.15,7.63h-33.32l9.16-7.63v-39l-8.14-6.87,23.15-10.18m62.45-5.69a35.88,35.88,0,0,0-21.87,7.48c-3.92-4.88-10-7.48-17.81-7.48a35,35,0,0,0-18.67,5.32l-6.5-5.07L1110,238.59l-1.44,10,6,5.08v33.5l-7,5.85,3.81,10.52h33.32l3.19-8.78,3.18,8.78h33.32l3.18-8.78,3.18,8.78H1224l3.81-10.52-7-5.85V252.31c0-8.28-2.39-14.62-7.11-18.83-4-3.52-9.25-5.31-15.76-5.31Zm-16.82,25.1c3.89-2.42,6.58-2.77,8.55-2.77s2.91.3,3.16.58,1.07,1.45,1.07,6.19v29.9l-6.39,5.33-6.39-5.33v-33.9Zm-39.68,0c3.88-2.42,6.57-2.77,8.55-2.77s2.91.3,3.16.58,1.06,1.45,1.06,6.19v29.9l-6.38,5.33-6.39-5.33v-33.9Z"/><path class="cls-5" d="M1230.09,299.12v-22.9l5.33-1.81,10.85,14.14a20.88,20.88,0,0,0,7.91,1.74c5.82,0,8.47-3.27,8.47-6.31,0-4.22-4.6-6.27-12.1-9.28-9.12-3.65-20.46-8.19-20.46-21.63,0-15.06,14.33-21.93,27.65-21.93a39.43,39.43,0,0,1,13.18,2.33l5.79-2.36,4.1,2.75v22.26L1275.5,258,1264,243.32a17.29,17.29,0,0,0-4.61-.63c-6.17,0-9,3.07-9,5.93,0,3.24,4.32,5.09,11.44,7.76,9.18,3.45,21.76,8.17,21.76,22.39,0,13.36-11.58,23.07-27.52,23.07a40.34,40.34,0,0,1-15-2.93l-6.86,2.94Z"/><path class="cls-1" d="M1277.84,233.86v22.26l-12.09-15.39a21,21,0,0,0-6.36-1c-8.14,0-12,4.57-12,8.9,0,12.72,33.19,8.65,33.19,30.14,0,12.09-10.93,20.1-24.55,20.1a37.58,37.58,0,0,1-15-3.18l-8,3.44v-22.9L1244.38,291a24.42,24.42,0,0,0,9.8,2.29c7.5,0,11.44-4.58,11.44-9.29,0-14.25-32.56-10.05-32.56-30.91,0-12.72,12.34-18.95,24.68-18.95a36.75,36.75,0,0,1,13.23,2.54l6.87-2.8m-20.1-5.69c-7.66,0-14.88,2-20.31,5.74a22.65,22.65,0,0,0-10.32,19.16,20.92,20.92,0,0,0,8.21,17c4.24,3.4,9.49,5.51,14.13,7.36,6.17,2.48,10.23,4.27,10.23,6.52,0,1.66-1.71,3.34-5.5,3.34a17.35,17.35,0,0,1-6-1.23l-10.35-13.49-10.67,3.62v22.9l8.3,5.47,5.74-2.46a43.46,43.46,0,0,0,14.93,2.68c8.06,0,15.54-2.41,21.08-6.8a24.16,24.16,0,0,0,9.42-19.25c0-9.89-5.27-15.75-11.53-19.62l8.74-3V233.86l-8.2-5.51-4.77,2a41.7,41.7,0,0,0-13.08-2.13Zm13.12,28.7c-2.76-1.32-5.52-2.35-8-3.27-3.33-1.25-9.52-3.57-9.52-5s2.07-3,6-3a13.78,13.78,0,0,1,2.91.31l8.56,10.9Z"/><text class="cls-6" transform="translate(42.82 193.66)"><tspan class="cls-7">J</tspan><tspan x="8.06" y="0">oin the ad</tspan><tspan class="cls-8" x="120.75" y="0">v</tspan><tspan class="cls-9" x="133.59" y="0">entu</tspan><tspan class="cls-10" x="185.86" y="0">r</tspan><tspan class="cls-11" x="195.52" y="0">e.</tspan></text><text class="cls-12" transform="translate(42.82 227.75)">plunde<tspan class="cls-13" x="113.29" y="0">r</tspan><tspan class="cls-14" x="126.98" y="0">.</tspan><tspan class="cls-13" x="137.07" y="0">a</tspan><tspan class="cls-15" x="154.48" y="0">v</tspan><tspan x="172.12" y="0">ax</tspan><tspan class="cls-16" x="210.65" y="0">r</tspan><tspan class="cls-14" x="225.34" y="0">ealms.com</tspan></text></svg>