<svg id="Layer_1" data-name="Layer 1" xmlns="http://www.w3.org/2000/svg" viewBox="0 0 1979.12 1113.26"><defs><style>.cls-1{fill:#16140a;}.cls-2{fill:#c1c1c1;}.cls-3{fill:none;stroke:#ba3e4a;stroke-linecap:square;stroke-miterlimit:10;stroke-width:7.38px;}.cls-4{fill:#ba3e4a;}.cls-5{fill:#bfb67f;}</style></defs><rect class="cls-1" width="1979.12" height="1113.26"/><path class="cls-2" d="M1098.88,426.5l-8,8.67a4.35,4.35,0,0,1-6.1.31l-2.17-1.93-67.75,76.24,16.19,16.55a3.76,3.76,0,0,1,.12,5.13l-9.43,10.61a3.78,3.78,0,0,1-5.11.49l-14.31-11.05L890.24,655.8H841.72L973.19,505.6l-12.65-12.92a3.76,3.76,0,0,1-.13-5.13l9.44-10.62a3.77,3.77,0,0,1,5.1-.48l18.33,14.14L1061,414.35l-2.55-2.27a4.34,4.34,0,0,1-.3-6.19l7.94-8.65a4.35,4.35,0,0,1,5.25-.89l16.93,9.07,10.93,15.64A4.36,4.36,0,0,1,1098.88,426.5Z"/><line class="cls-3" x1="493.18" y1="655.8" x2="1484.09" y2="655.8"/><path class="cls-4" d="M559.8,635.2,557,629.07l6.76-7.66-8.92-19.5H521.59l-7.51,16.36,11.7,10.49-2.46,6.44H493.18l-3.33-5.26,55.54-118,3.34-2.12h.94l3.33,2.09L605.4,620.6l8.8,8.21-2.52,6.39Zm-12.23-49.51-9.14-20.13-9.33,20.13Z"/><path class="cls-1" d="M549.67,513.48l52.7,109.35,9.31,8.68H559.8l8.33-9.44v0l-10.88-23.82h-38l-9.63,21,13.73,12.31H493.18l55.55-118h.94m-26.35,75.9h30l-14.83-32.66-15.15,32.66m26.35-83.28h-.94l-6.68,4.24-55.54,118,6.67,10.52h30.14L528.25,626l-9.68-8.67L524,605.6H552.5l6.94,15.17-5.18,5.85,5.54,12.27h51.88l5-12.78-8.29-7.73-52.1-108.1-6.65-4.18ZM534.88,582l3.52-7.59,3.44,7.59Z"/><polygon class="cls-4" points="644.82 640.88 641.52 638.84 588.33 532.47 578.89 523.77 581.39 517.37 635.35 517.37 638.12 523.5 631.37 531.15 655.73 582.81 676.82 534.34 665.08 523.81 667.54 517.37 703.99 517.37 706.49 523.77 696.79 532.73 649.13 638.7 645.77 640.88 644.82 640.88"/><path class="cls-1" d="M704,521.06l-10.25,9.47-48,106.66h-.95l-53.49-107-9.94-9.15h54L627,530.53l28.88,61.22,25.4-58.38-13.73-12.31H704m0-7.38H667.54l-4.92,12.87,9.76,8.76L655.6,573.87l-19.86-42.1,5.15-5.83-5.54-12.26h-54l-5,12.81,9,8.23,52.88,105.77,6.6,4.08h.95l6.73-4.35,47.35-105.29,9.15-8.45-5-12.8Z"/><path class="cls-4" d="M757,635.2l0,0h-8.32L745.91,629l6.75-7.64-8.91-19.49H710.46L703,618.27l11.7,10.49-2.46,6.44H682.06l-3.34-5.26,55.54-118,3.34-2.12h.95l3.32,2.09,52.4,108.72,8.81,8.21-2.52,6.39Zm-20.56-49.51-9.14-20.13L718,585.69Z"/><path class="cls-1" d="M738.55,513.48l52.7,109.35,9.31,8.68H757v0h-8.34l8.34-9.44h0l-10.89-23.82h-38l-9.63,21,13.73,12.31H682.06l55.54-118h.95m-26.35,75.9h30l-14.83-32.66L712.2,589.38m26.35-83.28h-.95l-6.68,4.24-55.54,118,6.68,10.52H712.2L717.12,626l-9.67-8.67,5.38-11.74h28.55l6.93,15.15-5.17,5.85,5.53,12.27H757l0,0h43.55l5-12.78-8.29-7.73-52.1-108.1-6.65-4.18ZM723.76,582l3.51-7.59,3.45,7.59Z"/><polygon class="cls-4" points="869.67 635.2 866.91 629.07 873.39 621.73 852.99 591.19 833.19 621.59 840.29 628.95 837.64 635.2 806.09 635.2 803.58 628.8 813.5 619.64 842.38 575.2 813.21 531.37 804.87 523.79 807.35 517.37 861.86 517.37 864.63 523.5 858.2 530.78 875.85 557.07 893.65 530.93 886.59 523.62 889.24 517.37 920.8 517.37 923.3 523.77 913.35 532.95 886.27 572.68 918.1 620.41 927.23 628.79 924.74 635.2 869.67 635.2"/><path class="cls-1" d="M920.8,521.06l-10.26,9.47-28.72,42.12,33.45,50.18,9.47,8.68H869.67L878,622,853,584.49,828.49,622h0l9.15,9.47H806.08L816.34,622l30.45-46.86L816,529l-8.68-7.89h54.51l-8.28,9.37v.1l22.25,33.13,22.56-33.13h0l-9.15-9.47H920.8m0-7.38H889.24l-5.31,12.51,5,5.15-13,19.15-13-19.4,4.54-5.15-5.53-12.26H807.35l-5,12.84,8,7.28L838,575.23l-27.3,42-9.58,8.84,5,12.8h31.56L843,626.38l-5.07-5.24L853,597.89l15.71,23.53-4.6,5.2,5.53,12.27h55.07l5-12.82L920.92,618l-30.2-45.29,25.44-37.32,9.64-8.9-5-12.8Z"/><path class="cls-5" d="M1055.28,636.32c-30.64,0-41.75-18.72-63.89-56l-2.67-4.5,2.87-5.56c26.43-2.14,26.43-15.7,26.43-20.15,0-14.91-12.22-17.14-19.5-17.14h-11v87.36l10,8.36-2.36,6.53H952.28l-2.36-6.53,10-8.36V532.25l-10-8.36,2.36-6.52h48.6c28.69,0,45.82,11.46,45.82,30.67,0,13.9-8.85,25.05-24.47,31.07,12.48,21.73,24.57,40.18,41.88,49.12l2,3.28v.79l-3.36,3.67C1060.15,636.21,1057.63,636.32,1055.28,636.32Z"/><path class="cls-1" d="M1000.88,521.06c24.14,0,42.13,8.36,42.13,27,0,14.36-10.57,24.3-26.19,29,13.88,24.46,26.67,44.66,45.6,54.44v.79q-3.75.33-7.14.33c-29.69,0-39.93-19.27-63.39-58.71,23.35-1.9,29.82-12.31,29.82-23.83,0-13.41-9-20.83-23.19-20.83H983.84V622l11.36,9.47H952.28L963.65,622V530.53l-11.37-9.47h48.6m0-7.38h-48.6l-4.72,13.05,8.7,7.25v84.61l-8.7,7.25,4.72,13H995.2l4.73-13-8.71-7.25V587.25c9.71,16.29,17.19,28.36,25.86,37.12,10.71,10.82,22.49,15.64,38.2,15.64,2.46,0,5.09-.12,7.8-.36l6.72-7.35v-.79l-4-6.56c-15.51-8-26.84-24.45-38.3-44.08,14.66-6.9,22.88-18.53,22.88-32.83,0-11.54-5.41-20.82-15.65-26.83-8.49-5-19.89-7.53-33.86-7.53Zm-9.66,23h7.3c10.49,0,15.81,4.53,15.81,13.45,0,4.37,0,14.6-23,16.47l-.07.14V536.64Z"/><path class="cls-5" d="M1099.35,636.78c-24.17,0-41.72-18.74-41.72-44.56,0-28.32,21.54-43.14,42.82-43.14,21.49,0,34.93,13.14,35.09,34.28l-3.69,3.71H1083c.31,17,8.58,26.71,22.81,26.71,7.5,0,14.82-2.67,21.75-7.93l4.84.33.79.79.9,3.75C1128.65,627.52,1116.31,636.78,1099.35,636.78Zm8.53-62.92c-.81-5.86-3.67-11.09-9.79-11.09s-10.95,4-13.29,11.09Z"/><path class="cls-1" d="M1100.45,552.77c17,0,31.24,9.47,31.4,30.61h-52.54v2.69c0,19.09,9.31,31.4,26.51,31.4,6.47,0,14.83-1.74,24-8.68l.79.79c-5.68,17.51-18.15,23.51-31.24,23.51-21.94,0-38-17-38-40.87,0-25.09,18.3-39.45,39.13-39.45m-20.35,24.78h31.71c0-10.73-5-18.47-13.72-18.47-9,0-15.94,6.63-18,18.47m20.35-32.16c-12.43,0-24,4.37-32.42,12.31-9.22,8.64-14.09,20.57-14.09,34.52,0,13.37,4.54,25.59,12.78,34.41a44.09,44.09,0,0,0,32.63,13.84c18.69,0,32.28-10.17,38.26-28.62l-1.8-7.49-.79-.79-9.68-.66c-6.37,4.83-12.75,7.18-19.52,7.18-13.59,0-18-9.66-18.91-19.33h44.94l7.38-7.43c-.17-23.05-15.39-37.94-38.78-37.94Zm-9.7,24.78a8.88,8.88,0,0,1,7.34-3.71c2.55,0,4.08,1.66,5,3.71Z"/><path class="cls-5" d="M1205.7,636.78c-7.54,0-13.52-3.22-17-9a30.84,30.84,0,0,1-22.41,9c-15.37,0-25.3-8.88-25.3-22.63a24.55,24.55,0,0,1,13.11-22l1.78-.45h28.81v-8.15c0-11.22-4.3-13.35-12.24-13.35-7.11,0-14.13,2.38-21.47,7.27l-4.65-.46-.79-.79-.62-4.39c8-14.45,21.68-22.74,37.62-22.74,17.53,0,28,10.47,28,28v35.35c0,5,1.58,5,3.41,5s3.5-.41,6.51-2.6l4.78.37.79.79.88,3.82C1222.88,631.22,1216,636.78,1205.7,636.78Zm-37.63-31.88a12.15,12.15,0,0,0-1.76,6.73c0,4.77,2.32,7.19,6.88,7.19,3.58,0,7.34-1.75,11.46-5.35V604.9Z"/><path class="cls-1" d="M1182.5,552.77c15.47,0,24.3,8.68,24.3,24.3v35.35c0,6.94,3.16,8.68,7.1,8.68,2.84,0,5.21-.79,8.68-3.32l.79.79c-3.79,10.89-9.94,14.52-17.67,14.52-8,0-13.57-4.26-15.78-11.52h-.79a27.19,27.19,0,0,1-22.88,11.52c-12.94,0-21.61-7.1-21.61-18.94a21,21,0,0,1,11.2-18.77h32.5V583.54c0-12.46-5.2-17-15.93-17-7.26,0-15,2.21-23.51,7.89l-.79-.79c7.57-13.73,20.35-20.83,34.39-20.83m-9.31,69.75c4.9,0,9.79-2.37,15.15-7.42V601.21h-22.09a15.22,15.22,0,0,0-3.63,10.42c0,7.89,5.05,10.89,10.57,10.89m9.31-77.13c-17.32,0-32.21,9-40.86,24.65l1.25,8.78.79.79,9.31.92c6.71-4.47,13.06-6.65,19.42-6.65,2.33,0,5.4.28,6.71,1.63s1.84,4.06,1.84,8V588h-25.12l-3.56.91a28.48,28.48,0,0,0-15,25.24c0,15.74,11.66,26.32,29,26.32a34.67,34.67,0,0,0,21.89-7.29c4.28,4.67,10.38,7.29,17.56,7.29,11.86,0,20.15-6.55,24.64-19.48l-1.75-7.64-.79-.79-9.56-.75c-2.26,1.65-3.22,1.87-4,1.9a10.57,10.57,0,0,1-.07-1.29V577.07c0-19.54-12.14-31.68-31.68-31.68Zm-12.09,63.2H1181v3.15c-2.89,2.28-5.45,3.39-7.77,3.39-2.53,0-3.19-.72-3.19-3.5a10.5,10.5,0,0,1,.41-3Z"/><polygon class="cls-5" points="1227.63 635.2 1225.27 628.67 1235.3 620.31 1235.3 530.66 1226.52 523.25 1227.41 517.05 1256.13 504.43 1261.3 507.8 1261.3 620.31 1271.34 628.67 1268.97 635.2 1227.63 635.2"/><path class="cls-1" d="M1257.61,507.8V622l11.36,9.47h-41.34L1239,622V529l-10.09-8.52,28.71-12.63m-3-6.75-28.71,12.62-1.79,12.4,7.47,6.31v86.21l-8.7,7.25,4.72,13H1269l4.73-13-8.71-7.25V507.8l-10.35-6.75Z"/><path class="cls-5" d="M1374.38,635.2l-2.36-6.53,10-8.36V581.49c0-11.27-3.38-12.09-8.94-12.09-3.25,0-7.76.61-14.29,5.14v45.77l10,8.36-2.36,6.53h-41.34l-2.36-6.53,10-8.36V581.49c0-11.27-3.38-12.09-8.93-12.09-3.26,0-7.77.61-14.3,5.14v45.77l10,8.36-2.36,6.53h-41.34l-2.36-6.53,10-8.36v-45l-8.79-7.42.9-6.2,28.71-12.62,5.12,4-.85,5a40.81,40.81,0,0,1,25.46-9c10.1,0,17.35,3.78,21.28,11,8.43-7.29,17.81-11,27.95-11,15.91,0,24.68,9.33,24.68,26.26v45l10,8.36-2.36,6.53Z"/><path class="cls-1" d="M1305.9,552.46l-2.37,13.88.79.79c6.94-7.57,16.57-14.36,29.82-14.36,9,0,17,3.32,19.88,13.73,7-7.26,16.41-13.73,29.35-13.73,11.05,0,21,5.05,21,22.57V622l11.36,9.47h-41.34l11.36-9.47V581.49c0-12.46-4.26-15.78-12.63-15.78-4.73,0-10.41,1.26-18,6.94V622l11.36,9.47h-41.34l11.36-9.47V581.49c0-12.46-4.26-15.78-12.63-15.78-4.73,0-10.41,1.26-18,6.94V622l11.36,9.47h-41.34l11.36-9.47V573.6l-10.1-8.52,28.72-12.62m77.47-7.07a44.58,44.58,0,0,0-27.13,9.28c-4.87-6-12.43-9.28-22.1-9.28A43.51,43.51,0,0,0,1311,552l-8-6.29-28.72,12.62-1.79,12.4,7.48,6.31v41.56l-8.71,7.25,4.73,13h41.34l3.94-10.9,4,10.9h41.34l3.94-10.9,4,10.9h41.34l4.72-13-8.7-7.25V575.34c0-10.28-3-18.13-8.82-23.36-4.9-4.37-11.47-6.59-19.55-6.59Zm-20.86,31.14c4.82-3,8.16-3.44,10.6-3.44s3.61.38,3.92.73,1.33,1.79,1.33,7.67v37.1l-7.93,6.6-7.92-6.6V576.53Zm-49.23,0c4.82-3,8.16-3.44,10.6-3.44s3.61.38,3.92.73,1.33,1.79,1.33,7.67v37.1l-7.93,6.6-7.92-6.6V576.53Z"/><path class="cls-5" d="M1423.24,633.4V605l6.61-2.25,13.46,17.55a25.82,25.82,0,0,0,9.81,2.15c7.22,0,10.51-4.05,10.51-7.82,0-5.24-5.7-7.79-15-11.51-11.31-4.53-25.38-10.17-25.38-26.84,0-18.68,17.78-27.2,34.3-27.2a48.54,48.54,0,0,1,16.34,2.89l7.19-2.93,5.09,3.42v27.61l-6.6,2.28-14.25-18.16a21.69,21.69,0,0,0-5.72-.78c-7.66,0-11.14,3.81-11.14,7.35,0,4,5.36,6.32,14.19,9.63,11.39,4.28,27,10.14,27,27.77,0,16.58-14.36,28.62-34.14,28.62a50.09,50.09,0,0,1-18.61-3.63l-8.5,3.64Z"/><path class="cls-1" d="M1482.47,552.46v27.61l-15-19.09a25.82,25.82,0,0,0-7.89-1.26c-10.1,0-14.83,5.68-14.83,11,0,15.78,41.18,10.73,41.18,37.4,0,15-13.57,24.93-30.45,24.93a46.61,46.61,0,0,1-18.62-4l-9.94,4.26V605l14,18.3a30,30,0,0,0,12.15,2.84c9.31,0,14.2-5.68,14.2-11.51,0-17.68-40.39-12.47-40.39-38.35,0-15.77,15.3-23.51,30.61-23.51a45.49,45.49,0,0,1,16.41,3.16l8.52-3.47m-24.93-7.07c-9.51,0-18.46,2.53-25.2,7.12a28.1,28.1,0,0,0-12.79,23.77,26,26,0,0,0,10.18,21.13c5.25,4.22,11.77,6.83,17.52,9.13,7.66,3.07,12.69,5.29,12.69,8.09,0,2.06-2.11,4.13-6.82,4.13a21.37,21.37,0,0,1-7.5-1.52l-12.84-16.73L1419.55,605v28.4l10.28,6.79,7.12-3.06a53.85,53.85,0,0,0,18.54,3.34c10,0,19.27-3,26.14-8.44a30,30,0,0,0,11.69-23.87c0-12.28-6.54-19.55-14.3-24.35l10.83-3.74V552.46l-10.17-6.84-5.91,2.41a52.16,52.16,0,0,0-16.23-2.64ZM1473.81,581c-3.42-1.64-6.85-2.92-9.87-4.06-4.13-1.55-11.8-4.43-11.8-6.18s2.56-3.66,7.45-3.66a17.6,17.6,0,0,1,3.6.37L1473.81,581Z"/></svg>