<svg id="Layer_1" data-name="Layer 1" xmlns="http://www.w3.org/2000/svg" viewBox="0 0 1362.61 400"><defs><style>.cls-1{fill:#16140a;}.cls-2{fill:#c1c1c1;}.cls-3{fill:none;stroke:#ba3e4a;stroke-linecap:square;stroke-miterlimit:10;stroke-width:8px;}.cls-4{fill:#ba3e4a;}.cls-5{fill:#bfb67f;}</style></defs><rect class="cls-1" width="1362.61" height="400"/><path class="cls-2" d="M792.75,49.88l-8.64,9.4a4.7,4.7,0,0,1-6.6.33l-2.36-2.08-73.44,82.64,17.55,17.93a4.08,4.08,0,0,1,.13,5.56l-10.22,11.51a4.08,4.08,0,0,1-5.53.52l-15.52-12L566.58,298.43H514L656.5,135.62l-13.71-14a4.08,4.08,0,0,1-.15-5.56l10.24-11.51a4.07,4.07,0,0,1,5.53-.52l19.87,15.32,73.44-82.64L749,34.25a4.72,4.72,0,0,1-.33-6.71l8.62-9.37a4.71,4.71,0,0,1,5.69-1L781.28,27l11.85,17A4.72,4.72,0,0,1,792.75,49.88Z"/><line class="cls-3" x1="136.19" y1="298.43" x2="1210.3" y2="298.43"/><path class="cls-4" d="M208.39,276.1l-3-6.64,7.32-8.3L203.06,240H167l-8.14,17.73,12.69,11.38-2.67,7H136.19l-3.62-5.7,60.21-127.93,3.61-2.3h1l3.6,2.26,56.8,117.85,9.54,8.9-2.72,6.92Zm-13.25-53.66-9.9-21.82-10.12,21.82Z"/><path class="cls-1" d="M197.42,144.17,254.55,262.7l10.09,9.4H208.39l9-10.23v0L205.63,236H164.41L154,258.76l14.88,13.34H136.19l60.2-127.93h1m-28.56,82.27h32.49L185.28,191l-16.42,35.41m28.56-90.27h-1l-7.23,4.59L129,268.7l7.24,11.4h32.67l5.34-14-10.49-9.41L169.54,244h31L208,260.46l-5.6,6.35,6,13.29h56.25l5.45-13.85-9-8.38L204.63,140.7l-7.21-4.53Zm-16,82.27,3.81-8.23,3.73,8.23Z"/><polygon class="cls-4" points="300.56 282.26 296.98 280.05 239.33 164.75 229.09 155.32 231.8 148.38 290.3 148.38 293.3 155.03 285.97 163.32 312.38 219.32 335.25 166.77 322.52 155.36 325.19 148.38 364.7 148.38 367.41 155.32 356.89 165.03 305.23 279.9 301.58 282.26 300.56 282.26"/><path class="cls-1" d="M364.7,152.38l-11.12,10.26-52,115.62h-1l-58-116-10.78-9.92h58.5l-9.07,10.26L312.53,229l27.54-63.28-14.88-13.34H364.7m0-8H325.19l-5.34,14,10.58,9.48-18.19,41.81L290.71,164l5.58-6.31-6-13.3H231.8l-5.42,13.89,9.7,8.92L293.4,281.84l7.16,4.42h1l7.3-4.72,51.33-114.13,9.91-9.15-5.42-13.88Z"/><path class="cls-4" d="M422.17,276.1l0,0h-9l-3-6.65,7.32-8.28L407.8,240H371.71l-8.13,17.73,12.68,11.38-2.67,7H340.93l-3.62-5.7,60.2-127.93,3.62-2.3h1l3.6,2.26,56.8,117.85,9.54,8.9-2.73,6.92Zm-22.29-53.66L390,200.62l-10.11,21.82Z"/><path class="cls-1" d="M402.16,144.17,459.28,262.7l10.09,9.4h-47.2v0h-9l9-10.23h0L410.37,236H369.15l-10.44,22.74,14.88,13.34H340.93l60.2-127.93h1m-28.57,82.27h32.5L390,191l-16.42,35.41m28.57-90.27h-1l-7.24,4.59L333.69,268.7l7.24,11.4h32.66l5.34-14-10.49-9.41L374.28,244h31l7.5,16.42-5.6,6.34,6,13.3h9l0,0h47.2l5.46-13.85-9-8.38L409.36,140.7l-7.2-4.53Zm-16,82.27,3.82-8.23,3.73,8.23Z"/><polygon class="cls-4" points="544.29 276.1 541.29 269.46 548.32 261.5 526.2 228.4 504.74 261.36 512.44 269.32 509.57 276.1 475.36 276.1 472.65 269.17 483.4 259.24 514.7 211.07 483.08 163.56 474.04 155.34 476.73 148.38 535.82 148.38 538.82 155.03 531.85 162.92 550.98 191.42 570.28 163.08 562.62 155.16 565.5 148.38 599.71 148.38 602.42 155.32 591.64 165.27 562.28 208.33 596.78 260.07 606.68 269.15 603.98 276.1 544.29 276.1"/><path class="cls-1" d="M599.71,152.38l-11.12,10.26-31.13,45.67,36.26,54.39L604,272.1H544.29l9.07-10.26-27.2-40.7-26.51,40.7h0l9.92,10.25H475.36l11.12-10.26,33-50.8-33.35-50.11-9.41-8.55h59.09l-9,10.16v.1L551,198.56l24.46-35.92h0l-9.92-10.26h34.21m0-8H565.5l-5.75,13.56,5.39,5.58L551,184.28l-14.12-21,4.93-5.57-6-13.3H476.73l-5.38,13.92,8.68,7.89,29.89,44.91-29.6,45.54-10.38,9.59,5.42,13.87h34.21l5.75-13.56-5.49-5.67,16.42-25.21,17,25.5-5,5.65,6,13.29H604l5.41-13.89-9.55-8.76-32.73-49.09,27.58-40.46,10.44-9.64-5.42-13.88Z"/><path class="cls-5" d="M745.48,277.32c-33.21,0-45.25-20.29-69.24-60.71l-2.91-4.89,3.12-6c28.64-2.32,28.64-17,28.64-21.84,0-16.16-13.24-18.58-21.14-18.58h-11.9V260L682.92,269l-2.56,7.07H633.84L631.28,269,642.15,260V164.51l-10.87-9.06,2.56-7.07h52.68c31.1,0,49.66,12.43,49.66,33.25,0,15.07-9.59,27.15-26.52,33.68,13.52,23.54,26.63,43.55,45.4,53.24l2.16,3.55V273l-3.64,4C750.76,277.2,748,277.32,745.48,277.32Z"/><path class="cls-1" d="M686.52,152.38c26.17,0,45.66,9.06,45.66,29.25,0,15.56-11.46,26.34-28.39,31.47,15.05,26.51,28.91,48.4,49.43,59V273q-4.07.36-7.74.36c-32.18,0-43.28-20.89-68.71-63.64,25.31-2.06,32.32-13.34,32.32-25.83,0-14.54-9.74-22.58-25.14-22.58h-15.9V261.84l12.31,10.26H633.84l12.31-10.26v-99.2l-12.31-10.26h52.68m0-8H633.84l-5.12,14.15,9.43,7.86V258.1L628.72,266l5.12,14.14h46.52L685.48,266l-9.43-7.86v-34c10.51,17.67,18.62,30.75,28,40.25,11.6,11.72,24.37,16.95,41.4,16.95,2.67,0,5.52-.13,8.45-.39l7.29-8v-.86l-4.33-7.1c-16.8-8.69-29.09-26.51-41.5-47.78,15.88-7.48,24.79-20.09,24.79-35.59,0-12.51-5.86-22.57-17-29.09-9.21-5.42-21.56-8.16-36.7-8.16Zm-10.47,24.89H684c11.38,0,17.14,4.91,17.14,14.58,0,4.74,0,15.83-25,17.85l-.07.15V169.27Z"/><path class="cls-5" d="M793.25,277.81c-26.2,0-45.22-20.31-45.22-48.29,0-14,4.84-25.92,14-34.5,8.44-7.91,20-12.26,32.41-12.26,23.29,0,37.86,14.23,38,37.15l-4,4H775.54c.34,18.41,9.31,28.94,24.72,28.94,8.13,0,16.07-2.89,23.58-8.59l5.25.36.85.85,1,4.06C825,267.78,811.63,277.81,793.25,277.81Zm9.25-68.2c-.88-6.34-4-12-10.62-12s-11.87,4.31-14.4,12Z"/><path class="cls-1" d="M794.45,186.76c18.47,0,33.86,10.26,34,33.18h-57v2.91c0,20.69,10.09,34,28.73,34,7,0,16.08-1.88,26-9.4l.86.85c-6.16,19-19.67,25.48-33.87,25.48-23.77,0-41.22-18.47-41.22-44.29,0-27.2,19.84-42.76,42.42-42.76m-22.07,26.85h34.38c0-11.63-5.47-20-14.88-20-9.75,0-17.27,7.18-19.5,20m22.07-34.85c-13.48,0-26,4.74-35.15,13.34-10,9.36-15.27,22.3-15.27,37.42,0,14.49,4.92,27.74,13.85,37.29a47.74,47.74,0,0,0,35.37,15c20.26,0,35-11,41.47-31l-2-8.13-.85-.85-10.49-.72c-6.91,5.24-13.83,7.78-21.17,7.78-14.73,0-19.45-10.46-20.49-20.94h48.71l8-8.06c-.18-25-16.68-41.12-42-41.12Zm-10.52,26.85a9.62,9.62,0,0,1,8-4c2.77,0,4.43,1.79,5.42,4Z"/><path class="cls-5" d="M908.53,277.81c-8.17,0-14.65-3.48-18.47-9.75a33.4,33.4,0,0,1-24.29,9.75c-16.66,0-27.43-9.62-27.43-24.52a26.59,26.59,0,0,1,14.22-23.86l1.92-.49h31.24v-8.83c0-12.17-4.67-14.47-13.28-14.47-7.7,0-15.31,2.58-23.26,7.88l-5-.5-.85-.86-.68-4.76c8.64-15.66,23.51-24.64,40.79-24.64,19,0,30.34,11.34,30.34,30.34v38.31c0,5.41,1.71,5.41,3.69,5.41s3.79-.45,7.06-2.83l5.18.4.85.86,1,4.14C927.15,271.79,919.65,277.81,908.53,277.81Zm-40.78-34.54a13.11,13.11,0,0,0-1.91,7.28c0,5.18,2.51,7.81,7.46,7.81,3.87,0,8-1.91,12.42-5.81v-9.28Z"/><path class="cls-1" d="M883.39,186.76c16.76,0,26.34,9.4,26.34,26.34v38.31c0,7.52,3.42,9.41,7.69,9.41,3.08,0,5.65-.86,9.41-3.6l.86.86c-4.11,11.8-10.78,15.73-19.16,15.73-8.72,0-14.71-4.61-17.1-12.48h-.86a29.44,29.44,0,0,1-24.8,12.48c-14,0-23.43-7.69-23.43-20.52a22.75,22.75,0,0,1,12.14-20.35h35.24V220.11c0-13.51-5.65-18.47-17.28-18.47-7.86,0-16.25,2.39-25.48,8.55l-.86-.86c8.21-14.88,22.07-22.57,37.29-22.57m-10.09,75.6c5.3,0,10.6-2.57,16.42-8v-15h-24a16.48,16.48,0,0,0-3.93,11.28c0,8.56,5.47,11.81,11.46,11.81m10.09-83.6c-18.78,0-34.93,9.73-44.29,26.71l1.35,9.52.85.86,10.1,1c7.27-4.85,14.16-7.21,21-7.21,2.54,0,5.86.3,7.28,1.76s2,4.41,2,8.71v4.83H854.48l-3.85,1a30.88,30.88,0,0,0-16.29,27.36c0,17.06,12.63,28.52,31.43,28.52a37.55,37.55,0,0,0,23.73-7.9c4.64,5.07,11.25,7.9,19,7.9,12.85,0,21.84-7.1,26.71-21.1l-1.9-8.29-.85-.85-10.36-.82c-2.46,1.79-3.5,2-4.33,2.06a12.42,12.42,0,0,1-.07-1.4V213.1c0-21.18-13.16-34.34-34.34-34.34Zm-13.11,68.51h11.44v3.4c-3.14,2.48-5.91,3.69-8.42,3.69-2.75,0-3.46-.79-3.46-3.81a11,11,0,0,1,.44-3.28Zm46.54,5.5Z"/><polygon class="cls-5" points="932.31 276.1 929.75 269.03 940.62 259.97 940.62 162.79 931.1 154.75 932.07 148.03 963.2 134.35 968.8 138.01 968.8 259.97 979.68 269.03 977.12 276.1 932.31 276.1"/><path class="cls-1" d="M964.8,138V261.84l12.32,10.26H932.31l12.31-10.26V160.93l-10.94-9.23L964.8,138m-3.22-7.32-31.12,13.68-1.94,13.44,8.1,6.84V258.1L927.19,266l5.12,14.14h44.81L982.24,266l-9.44-7.86V138l-11.22-7.32Z"/><path class="cls-5" d="M1091.37,276.1l-2.56-7.07,10.88-9.06V217.89c0-12.23-3.66-13.11-9.69-13.11-3.52,0-8.42.67-15.49,5.57V260l10.87,9.06-2.56,7.07H1038l-2.56-7.07,10.87-9.06V217.89c0-12.23-3.65-13.11-9.68-13.11-3.52,0-8.42.67-15.5,5.57V260L1032,269l-2.56,7.07H984.65L982.09,269,993,260V211.19l-9.52-8,1-6.72,31.12-13.69,5.56,4.34-.93,5.41a44.24,44.24,0,0,1,27.6-9.74c11,0,18.81,4.09,23.07,11.91,9.13-7.91,19.3-11.91,30.29-11.91,17.25,0,26.75,10.1,26.75,28.46V260l10.87,9.06-2.56,7.07Z"/><path class="cls-1" d="M1017.14,186.42l-2.56,15.05.85.85c7.53-8.21,18-15.56,32.33-15.56,9.75,0,18.47,3.59,21.55,14.88,7.53-7.87,17.79-14.88,31.81-14.88,12,0,22.75,5.47,22.75,24.46v50.62l12.31,10.26h-44.81l12.32-10.26V217.89c0-13.52-4.62-17.11-13.69-17.11-5.13,0-11.28,1.37-19.49,7.53v53.53l12.31,10.26H1038l12.31-10.26V217.89c0-13.52-4.61-17.11-13.68-17.11-5.13,0-11.29,1.37-19.5,7.53v53.53l12.32,10.26H984.65L997,261.84V209.33l-11-9.23,31.13-13.68m84-7.66a48.19,48.19,0,0,0-29.4,10.06c-5.28-6.56-13.48-10.06-24-10.06a47.09,47.09,0,0,0-25.1,7.15l-8.74-6.82L982.8,192.77l-1.94,13.44,8.1,6.84V258.1L979.53,266l5.12,14.14h44.81l4.27-11.81L1038,280.1h44.81l4.28-11.81,4.27,11.81h44.81l5.13-14.14-9.44-7.86V211.22c0-11.14-3.22-19.66-9.56-25.32-5.3-4.74-12.43-7.14-21.19-7.14Zm-22.61,33.75c5.22-3.25,8.84-3.73,11.49-3.73s3.92.41,4.25.79,1.44,1.94,1.44,8.32V258.1l-8.59,7.15-8.59-7.15V212.51Zm-53.37,0c5.23-3.25,8.85-3.73,11.5-3.73s3.91.41,4.25.79,1.43,1.94,1.43,8.32V258.1l-8.59,7.15-8.59-7.15V212.51Z"/><path class="cls-5" d="M1144.33,274.16V243.37l7.18-2.44,14.58,19a28,28,0,0,0,10.64,2.34c7.82,0,11.39-4.4,11.39-8.49,0-5.67-6.18-8.43-16.27-12.47-12.26-4.91-27.52-11-27.52-29.09,0-20.26,19.28-29.48,37.18-29.48a52.77,52.77,0,0,1,17.73,3.13l7.79-3.18,5.51,3.71v29.93l-7.15,2.47-15.45-19.69a23.25,23.25,0,0,0-6.2-.85c-8.3,0-12.08,4.14-12.08,8,0,4.35,5.81,6.84,15.38,10.44,12.35,4.63,29.26,11,29.26,30.09,0,18-15.56,31-37,31a54.36,54.36,0,0,1-20.17-3.93l-9.21,3.95Z"/><path class="cls-1" d="M1208.54,186.42v29.93l-16.25-20.7a28.14,28.14,0,0,0-8.55-1.37c-11,0-16.08,6.16-16.08,12,0,17.1,44.64,11.63,44.64,40.53,0,16.25-14.71,27-33,27a50.7,50.7,0,0,1-20.18-4.27l-10.78,4.62V243.37l15.23,19.84a32.66,32.66,0,0,0,13.17,3.08c10.09,0,15.39-6.16,15.39-12.49,0-19.15-43.79-13.51-43.79-41.56,0-17.1,16.59-25.48,33.18-25.48a49.21,49.21,0,0,1,17.79,3.42l9.24-3.76m-27-7.66c-10.3,0-20,2.74-27.31,7.71a30.49,30.49,0,0,0-13.87,25.77,28.17,28.17,0,0,0,11,22.9c5.7,4.58,12.76,7.4,19,9.9,8.31,3.33,13.76,5.74,13.76,8.76,0,2.24-2.29,4.49-7.39,4.49a23.23,23.23,0,0,1-8.13-1.65l-13.92-18.14-14.35,4.87v30.79l11.15,7.35,7.72-3.31a58.45,58.45,0,0,0,20.09,3.61c10.83,0,20.89-3.24,28.34-9.14a32.51,32.51,0,0,0,12.67-25.88c0-13.31-7.09-21.18-15.5-26.39l11.74-4.05V186.42l-11-7.41-6.41,2.61a56.43,56.43,0,0,0-17.6-2.86Zm17.65,38.59c-3.71-1.77-7.43-3.17-10.71-4.4-4.47-1.68-12.79-4.8-12.79-6.69s2.77-4,8.08-4a18.62,18.62,0,0,1,3.91.41l11.51,14.66Z"/></svg>