<svg id="Layer_1" data-name="Layer 1" xmlns="http://www.w3.org/2000/svg" viewBox="0 0 1362.61 400"><defs><style>.cls-1{font-size:119.93px;font-family:NocturneSerif-Bold, Nocturne Serif;font-weight:700;letter-spacing:0.15em;}.cls-1,.cls-4{fill:#16140a;}.cls-2{letter-spacing:0.12em;}.cls-3{fill:#ba3e4a;}</style></defs><text class="cls-1" transform="translate(317.38 188.04)">P<tspan class="cls-2" x="99.18" y="0">L</tspan><tspan x="188.29" y="0">UNDER</tspan></text><rect class="cls-3" x="219.08" y="221.75" width="924.45" height="11.71"/><path class="cls-3" d="M555.15,301.79l-17.4-36.11h-.32l-18.34,39h10l-4.54-4.07,3.18-6.93h12.56l3.59,7.87h0l-2.75,3.12h17.13Zm-26.1-11.05,5-10.78,4.9,10.78Z"/><rect class="cls-3" x="520.97" y="311.51" width="322.37" height="2.38"/><path class="cls-3" d="M588.41,271.31l-15.84,35.22h-.31L554.6,271.2l-3.28-3h17.82l-2.77,3.13,9.54,20.22,8.39-19.28-4.53-4.07h12Z"/><path class="cls-3" d="M623.69,304.66l-3.07-2.87-17.41-36.11h-.31l-18.34,39h10L590,300.59l3.18-6.93h12.55l3.6,7.87h0l-2.75,3.12h17.13Zm-29.18-13.92,5-10.78,4.9,10.78Z"/><polygon class="cls-3" points="663.7 304.66 660.57 301.79 649.53 285.22 659.01 271.31 662.4 268.18 655 268.18 655 268.18 651.98 268.18 655 271.31 655 271.31 647.55 282.25 640.2 271.31 640.2 271.28 642.93 268.18 640.2 268.18 640.17 268.18 624.93 268.18 627.8 270.79 637.96 286.06 627.9 301.53 624.52 304.66 631.91 304.66 631.91 304.66 634.94 304.66 631.91 301.53 631.91 301.53 639.99 289.13 648.28 301.53 645.51 304.66 663.7 304.66"/><path class="cls-4" d="M703.47,304.66v.26c-11.67,1-15-5.27-23.29-19.28,7.71-.63,9.85-4.07,9.85-7.87,0-4.43-3-6.88-7.66-6.88h-4.84v30.64l3.75,3.13H667.1l3.76-3.13V271.31l-3.76-3.13h16c8,0,13.91,2.76,13.91,8.91,0,4.74-3.49,8-8.64,9.59C693,294.76,697.22,301.43,703.47,304.66Z"/><path class="cls-4" d="M725.73,297.15l.26.26c-1.88,5.79-6,7.77-10.32,7.77-7.24,0-12.56-5.63-12.56-13.5,0-8.28,6-13,12.92-13,5.63,0,10.32,3.12,10.37,10.1H709.05v.89c0,6.31,3.08,10.37,8.76,10.37A12.84,12.84,0,0,0,725.73,297.15Zm-16.42-10.31h10.48c0-3.55-1.67-6.1-4.54-6.1S710,282.93,709.31,286.84Z"/><path class="cls-4" d="M756.63,300.38c-1.26,3.6-3.29,4.8-5.84,4.8a5.09,5.09,0,0,1-5.21-3.81h-.26a9,9,0,0,1-7.56,3.81c-4.27,0-7.14-2.35-7.14-6.25a7,7,0,0,1,3.7-6.21h10.74v-3.9c0-4.12-1.72-5.63-5.27-5.63a13.82,13.82,0,0,0-7.76,2.6l-.26-.26a12.71,12.71,0,0,1,11.36-6.87c5.11,0,8,2.86,8,8v11.67c0,2.29,1.05,2.87,2.35,2.87a4.47,4.47,0,0,0,2.86-1.1Zm-11.57-1.14v-4.59h-7.3a5,5,0,0,0-1.2,3.44,3.26,3.26,0,0,0,3.5,3.6C741.67,301.69,743.29,300.91,745.06,299.24Z"/><path class="cls-4" d="M771.68,304.66H758l3.75-3.13V270.79L758.45,268l9.48-4.16v37.72Z"/><path class="cls-4" d="M820.14,304.66H806.49l3.75-3.13V288.14c0-4.12-1.4-5.21-4.16-5.21a9.55,9.55,0,0,0-5.94,2.29v16.31l3.75,3.13H790.24l3.75-3.13V288.14c0-4.12-1.41-5.21-4.17-5.21a9.56,9.56,0,0,0-5.94,2.29v16.31l3.75,3.13H774l3.75-3.13v-16l-3.34-2.81,9.49-4.17-.78,4.59.26.26a13.17,13.17,0,0,1,9.85-4.74c3,0,5.62,1.09,6.56,4.53a13.19,13.19,0,0,1,9.69-4.53c3.65,0,6.93,1.66,6.93,7.45v15.42Z"/><path class="cls-4" d="M843.33,296.94c0,5-4.48,8.24-10.05,8.24a15.45,15.45,0,0,1-6.15-1.3l-3.28,1.4V295.9l4.63,6.05a10.06,10.06,0,0,0,4,.94c3.07,0,4.68-1.88,4.68-3.81,0-5.83-13.33-4.11-13.33-12.66,0-5.21,5-7.76,10.1-7.76a14.86,14.86,0,0,1,5.42,1l2.82-1.15v9.12l-5-6.3a8.3,8.3,0,0,0-2.61-.42c-3.33,0-4.9,1.87-4.9,3.65C829.73,289.81,843.33,288.14,843.33,296.94Z"/></svg>