<svg id="Layer_1" data-name="Layer 1" xmlns="http://www.w3.org/2000/svg" viewBox="0 0 924.45 209.91"><defs><style>.cls-1{font-size:119.93px;font-family:NocturneSerif-Bold, Nocturne Serif;font-weight:700;letter-spacing:0.15em;}.cls-1,.cls-4{fill:#bfb67f;}.cls-2{letter-spacing:0.12em;}.cls-3{fill:#ba3e4a;}</style></defs><text class="cls-1" transform="translate(98.3 83.95)">P<tspan class="cls-2" x="99.18" y="0">L</tspan><tspan x="188.29" y="0">UNDER</tspan></text><rect class="cls-3" y="117.66" width="924.45" height="11.71"/><path class="cls-3" d="M315.57,197.81l-17.4-36.11h-.31l-18.34,39h10l-4.53-4.06,3.17-6.93h12.56l3.6,7.87h0l-2.76,3.11h17.14Zm-26.1-11.05,5-10.79,4.9,10.79Z"/><rect class="cls-3" x="281.39" y="207.53" width="322.37" height="2.38"/><path class="cls-3" d="M348.84,167.32,333,202.55h-.31L315,167.22l-3.28-3h17.82l-2.76,3.12,9.53,20.22,8.39-19.28-4.53-4.06h12Z"/><path class="cls-3" d="M384.12,200.67,381,197.81l-17.4-36.11h-.31l-18.35,39h10l-4.54-4.06,3.18-6.93h12.56l3.59,7.87h0L367,200.66h17.14Zm-29.18-13.91,5-10.79,4.9,10.79Z"/><polygon class="cls-3" points="424.12 200.67 421 197.81 409.95 181.24 419.44 167.32 422.82 164.2 415.42 164.2 415.42 164.2 412.4 164.2 415.42 167.32 415.42 167.32 407.97 178.27 400.62 167.32 400.62 167.29 403.36 164.2 400.62 164.2 400.6 164.2 385.36 164.2 388.22 166.8 398.38 182.07 388.33 197.55 384.94 200.67 392.34 200.67 392.34 200.67 395.36 200.67 392.34 197.55 392.34 197.55 400.42 185.14 408.7 197.55 405.94 200.67 424.12 200.67"/><path class="cls-4" d="M463.9,200.67v.26c-11.67,1-15-5.26-23.29-19.28,7.71-.62,9.84-4.06,9.84-7.86,0-4.43-3-6.88-7.66-6.88H438v30.64l3.75,3.12H427.53l3.75-3.12V167.32l-3.75-3.12h16.05c8,0,13.91,2.76,13.91,8.91,0,4.74-3.49,8-8.65,9.59C453.42,190.77,457.65,197.44,463.9,200.67Z"/><path class="cls-4" d="M486.15,193.17l.26.26c-1.88,5.78-6,7.76-10.32,7.76-7.24,0-12.55-5.62-12.55-13.49,0-8.29,6-13,12.92-13,5.62,0,10.31,3.13,10.37,10.11H469.48v.89c0,6.3,3.07,10.36,8.75,10.36A12.84,12.84,0,0,0,486.15,193.17Zm-16.41-10.32h10.47c0-3.54-1.67-6.09-4.53-6.09S470.41,178.94,469.74,182.85Z"/><path class="cls-4" d="M517.05,196.4c-1.25,3.59-3.28,4.79-5.84,4.79a5.09,5.09,0,0,1-5.21-3.8h-.26a9,9,0,0,1-7.55,3.8c-4.28,0-7.14-2.34-7.14-6.25a6.93,6.93,0,0,1,3.7-6.2h10.73v-3.91c0-4.11-1.72-5.63-5.26-5.63a13.79,13.79,0,0,0-7.77,2.61l-.26-.26a12.75,12.75,0,0,1,11.36-6.88c5.11,0,8,2.87,8,8v11.67c0,2.29,1,2.86,2.34,2.86a4.55,4.55,0,0,0,2.87-1.09Zm-11.57-1.15v-4.58h-7.29a5,5,0,0,0-1.2,3.44,3.25,3.25,0,0,0,3.49,3.59C502.09,197.7,503.71,196.92,505.48,195.25Z"/><path class="cls-4" d="M532.11,200.67H518.46l3.75-3.12V166.8L518.87,164l9.49-4.17v37.73Z"/><path class="cls-4" d="M580.57,200.67H566.92l3.75-3.12v-13.4c0-4.11-1.41-5.21-4.17-5.21a9.53,9.53,0,0,0-5.94,2.3v16.31l3.75,3.12H550.66l3.75-3.12v-13.4c0-4.11-1.41-5.21-4.17-5.21a9.53,9.53,0,0,0-5.94,2.3v16.31l3.75,3.12H534.4l3.75-3.12v-16l-3.33-2.81,9.48-4.17-.78,4.58.26.26a13.17,13.17,0,0,1,9.85-4.74c3,0,5.63,1.1,6.56,4.53a13.25,13.25,0,0,1,9.7-4.53c3.64,0,6.93,1.67,6.93,7.45v15.43Z"/><path class="cls-4" d="M603.76,193c0,4.95-4.48,8.23-10.06,8.23a15.45,15.45,0,0,1-6.15-1.3l-3.28,1.41v-9.38l4.64,6a9.85,9.85,0,0,0,4,.94c3.07,0,4.69-1.88,4.69-3.8,0-5.84-13.34-4.12-13.34-12.66,0-5.22,5.05-7.77,10.11-7.77a15.11,15.11,0,0,1,5.42,1l2.81-1.14v9.12l-5-6.31a8.53,8.53,0,0,0-2.6-.42c-3.34,0-4.9,1.88-4.9,3.65C590.16,185.82,603.76,184.15,603.76,193Z"/></svg>