<svg id="Layer_1" data-name="Layer 1" xmlns="http://www.w3.org/2000/svg" viewBox="0 0 924.45 209.8"><defs><style>.cls-1{font-size:119.93px;font-family:NocturneSerif-Bold, Nocturne Serif;font-weight:700;letter-spacing:0.15em;}.cls-1,.cls-4{fill:#16140a;}.cls-2{letter-spacing:0.12em;}.cls-3{fill:#ba3e4a;}</style></defs><text class="cls-1" transform="translate(98.3 83.95)">P<tspan class="cls-2" x="99.18" y="0">L</tspan><tspan x="188.29" y="0">UNDER</tspan></text><rect class="cls-3" y="117.66" width="924.45" height="11.71"/><path class="cls-3" d="M336.07,197.7l-17.4-36.11h-.31l-18.34,39h10l-4.54-4.06,3.18-6.93h12.56l3.6,7.87h0L322,200.56h17.14Zm-26.1-11,5-10.78,4.9,10.78Z"/><rect class="cls-3" x="301.89" y="207.42" width="322.37" height="2.38"/><path class="cls-3" d="M369.34,167.22,353.5,202.44h-.32l-17.66-35.33-3.28-3h17.82l-2.76,3.13,9.53,20.21,8.39-19.28-4.53-4.06h12Z"/><path class="cls-3" d="M404.61,200.56l-3.07-2.86-17.4-36.11h-.32l-18.34,39h9.95l-4.53-4.06,3.18-6.93h12.56l3.59,7.87h0l-2.75,3.12h17.13Zm-29.18-13.91,5-10.78,4.89,10.78Z"/><polygon class="cls-3" points="444.62 200.56 441.5 197.7 430.45 181.13 439.93 167.22 443.32 164.09 435.92 164.09 435.92 164.09 432.9 164.09 435.92 167.22 435.92 167.22 428.47 178.16 421.12 167.22 421.12 167.19 423.86 164.09 421.12 164.09 421.1 164.09 405.86 164.09 408.72 166.7 418.88 181.96 408.83 197.44 405.44 200.56 412.84 200.56 412.84 200.56 415.86 200.56 412.84 197.44 412.84 197.44 420.92 185.04 429.2 197.44 426.44 200.56 444.62 200.56"/><path class="cls-4" d="M484.4,200.56v.27c-11.68,1-15-5.27-23.29-19.28,7.71-.63,9.84-4.07,9.84-7.87,0-4.43-3-6.88-7.66-6.88h-4.84v30.64l3.75,3.12H448l3.75-3.12V167.22L448,164.09h16.05c8,0,13.91,2.76,13.91,8.91,0,4.74-3.49,8-8.65,9.59C473.92,190.66,478.14,197.33,484.4,200.56Z"/><path class="cls-4" d="M506.65,193.06l.26.26c-1.88,5.79-6,7.77-10.32,7.77-7.24,0-12.56-5.63-12.56-13.5,0-8.28,6.05-13,12.93-13,5.62,0,10.31,3.13,10.37,10.11H490v.89c0,6.3,3.08,10.37,8.76,10.37A12.88,12.88,0,0,0,506.65,193.06Zm-16.42-10.32h10.48c0-3.54-1.67-6.09-4.54-6.09S490.91,178.84,490.23,182.74Z"/><path class="cls-4" d="M537.55,196.29c-1.25,3.6-3.28,4.8-5.84,4.8a5.09,5.09,0,0,1-5.21-3.81h-.26a9,9,0,0,1-7.55,3.81c-4.28,0-7.14-2.35-7.14-6.26a6.94,6.94,0,0,1,3.7-6.2H526v-3.91c0-4.11-1.72-5.62-5.26-5.62a13.84,13.84,0,0,0-7.77,2.6l-.26-.26a12.72,12.72,0,0,1,11.36-6.88c5.11,0,8,2.87,8,8v11.67c0,2.29,1,2.87,2.34,2.87a4.57,4.57,0,0,0,2.87-1.1ZM526,195.15v-4.59h-7.29a5,5,0,0,0-1.2,3.44,3.25,3.25,0,0,0,3.49,3.59C522.59,197.59,524.21,196.81,526,195.15Z"/><path class="cls-4" d="M552.61,200.56H539l3.75-3.12V166.7l-3.34-2.82,9.49-4.17v37.73Z"/><path class="cls-4" d="M601.07,200.56H587.42l3.75-3.12V184.05c0-4.12-1.41-5.21-4.17-5.21a9.49,9.49,0,0,0-5.94,2.29v16.31l3.75,3.12H571.16l3.75-3.12V184.05c0-4.12-1.41-5.21-4.17-5.21a9.5,9.5,0,0,0-5.94,2.29v16.31l3.75,3.12H554.9l3.75-3.12v-16l-3.33-2.81,9.48-4.17L564,179l.26.27a13.14,13.14,0,0,1,9.85-4.75c3,0,5.63,1.1,6.56,4.54a13.22,13.22,0,0,1,9.7-4.54c3.64,0,6.92,1.67,6.92,7.45v15.43Z"/><path class="cls-4" d="M624.26,192.85c0,5-4.49,8.24-10.06,8.24a15.45,15.45,0,0,1-6.15-1.31l-3.28,1.41v-9.38l4.64,6.05a10,10,0,0,0,4,.93c3.07,0,4.69-1.87,4.69-3.8,0-5.84-13.34-4.12-13.34-12.66,0-5.21,5.05-7.77,10.11-7.77a14.9,14.9,0,0,1,5.42,1.05l2.81-1.15v9.12l-5-6.31a8.54,8.54,0,0,0-2.61-.41c-3.33,0-4.89,1.87-4.89,3.64C610.66,185.71,624.26,184.05,624.26,192.85Z"/></svg>