<svg id="Layer_1" data-name="Layer 1" xmlns="http://www.w3.org/2000/svg" viewBox="0 0 924.45 238.12"><defs><style>.cls-1{font-size:119.93px;font-family:NocturneSerif-Bold, Nocturne Serif;font-weight:700;letter-spacing:0.15em;}.cls-1,.cls-4{fill:#16140a;}.cls-2{letter-spacing:0.12em;}.cls-3{fill:#ba3e4a;}</style></defs><text class="cls-1" transform="translate(98.3 107.1)">P<tspan class="cls-2" x="99.18" y="0">L</tspan><tspan x="188.29" y="0">UNDER</tspan></text><rect class="cls-3" y="140.81" width="924.45" height="11.71"/><path class="cls-3" d="M336.07,220.85l-17.4-36.11h-.31l-18.34,39h10l-4.54-4.07,3.18-6.93h12.56l3.6,7.87h0L322,223.72h17.14Zm-26.1-11L315,199l4.9,10.78Z"/><rect class="cls-3" x="301.89" y="230.57" width="322.37" height="2.38"/><path class="cls-3" d="M369.34,190.37,353.5,225.59h-.32l-17.66-35.33-3.28-3h17.82l-2.76,3.13,9.53,20.22,8.39-19.28-4.53-4.07h12Z"/><path class="cls-3" d="M404.61,223.72l-3.07-2.87-17.4-36.11h-.32l-18.34,39h9.95l-4.53-4.07,3.18-6.93h12.56l3.59,7.87h0l-2.75,3.12h17.13ZM375.43,209.8l5-10.78,4.89,10.78Z"/><polygon class="cls-3" points="444.62 223.72 441.5 220.85 430.45 204.28 439.93 190.37 443.32 187.24 435.92 187.24 435.92 187.24 432.9 187.24 435.92 190.37 435.92 190.37 428.47 201.31 421.12 190.37 421.12 190.34 423.86 187.24 421.12 187.24 421.1 187.24 405.86 187.24 408.72 189.85 418.88 205.12 408.83 220.59 405.44 223.72 412.84 223.72 412.84 223.72 415.86 223.72 412.84 220.59 412.84 220.59 420.92 208.19 429.2 220.59 426.44 223.72 444.62 223.72"/><path class="cls-4" d="M484.4,223.72V224c-11.68,1-15-5.27-23.29-19.28,7.71-.63,9.84-4.07,9.84-7.87,0-4.43-3-6.88-7.66-6.88h-4.84v30.64l3.75,3.13H448l3.75-3.13V190.37L448,187.24h16.05c8,0,13.91,2.76,13.91,8.91,0,4.74-3.49,8-8.65,9.59C473.92,213.82,478.14,220.49,484.4,223.72Z"/><path class="cls-4" d="M506.65,216.21l.26.26c-1.88,5.79-6,7.77-10.32,7.77-7.24,0-12.56-5.63-12.56-13.5,0-8.28,6.05-13,12.93-13,5.62,0,10.31,3.12,10.37,10.1H490v.89c0,6.31,3.08,10.37,8.76,10.37A12.82,12.82,0,0,0,506.65,216.21ZM490.23,205.9h10.48c0-3.55-1.67-6.1-4.54-6.1S490.91,202,490.23,205.9Z"/><path class="cls-4" d="M537.55,219.44c-1.25,3.6-3.28,4.8-5.84,4.8a5.09,5.09,0,0,1-5.21-3.81h-.26a9,9,0,0,1-7.55,3.81c-4.28,0-7.14-2.35-7.14-6.25a6.94,6.94,0,0,1,3.7-6.21H526v-3.9c0-4.12-1.72-5.63-5.26-5.63a13.84,13.84,0,0,0-7.77,2.6l-.26-.26a12.71,12.71,0,0,1,11.36-6.87c5.11,0,8,2.86,8,8v11.67c0,2.29,1,2.87,2.34,2.87a4.51,4.51,0,0,0,2.87-1.1ZM526,218.3v-4.59h-7.29a5,5,0,0,0-1.2,3.44,3.25,3.25,0,0,0,3.49,3.6C522.59,220.75,524.21,220,526,218.3Z"/><path class="cls-4" d="M552.61,223.72H539l3.75-3.13V189.85L539.37,187l9.49-4.16v37.72Z"/><path class="cls-4" d="M601.07,223.72H587.42l3.75-3.13V207.2c0-4.12-1.41-5.21-4.17-5.21a9.55,9.55,0,0,0-5.94,2.29v16.31l3.75,3.13H571.16l3.75-3.13V207.2c0-4.12-1.41-5.21-4.17-5.21a9.56,9.56,0,0,0-5.94,2.29v16.31l3.75,3.13H554.9l3.75-3.13v-16l-3.33-2.81,9.48-4.17L564,202.2l.26.26a13.17,13.17,0,0,1,9.85-4.74c3,0,5.63,1.09,6.56,4.53a13.21,13.21,0,0,1,9.7-4.53c3.64,0,6.92,1.66,6.92,7.45v15.42Z"/><path class="cls-4" d="M624.26,216c0,5-4.49,8.24-10.06,8.24a15.45,15.45,0,0,1-6.15-1.3l-3.28,1.4V215l4.64,6a10,10,0,0,0,4,.94c3.07,0,4.69-1.88,4.69-3.81,0-5.83-13.34-4.11-13.34-12.66,0-5.21,5.05-7.76,10.11-7.76a14.9,14.9,0,0,1,5.42,1l2.81-1.15v9.12l-5-6.3a8.25,8.25,0,0,0-2.61-.42c-3.33,0-4.89,1.87-4.89,3.65C610.66,208.87,624.26,207.2,624.26,216Z"/></svg>