<svg id="Layer_1" data-name="Layer 1" xmlns="http://www.w3.org/2000/svg" viewBox="0 0 924.45 238.12"><defs><style>.cls-1{font-size:119.93px;font-family:NocturneSerif-Bold, Nocturne Serif;font-weight:700;letter-spacing:0.15em;}.cls-1,.cls-4{fill:#bfb67f;}.cls-2{letter-spacing:0.12em;}.cls-3{fill:#ba3e4a;}</style></defs><text class="cls-1" transform="translate(98.3 107.05)">P<tspan class="cls-2" x="99.18" y="0">L</tspan><tspan x="188.29" y="0">UNDER</tspan></text><rect class="cls-3" y="140.75" width="924.45" height="11.71"/><path class="cls-3" d="M315.57,220.9l-17.4-36.11h-.31l-18.34,39h10l-4.53-4.07,3.17-6.93h12.56l3.6,7.87h0l-2.76,3.12h17.14Zm-26.1-11,5-10.79,4.9,10.79Z"/><rect class="cls-3" x="281.39" y="230.63" width="322.37" height="2.38"/><path class="cls-3" d="M348.84,190.42,333,225.64h-.31L315,190.32l-3.28-3h17.82l-2.76,3.13,9.53,20.22,8.39-19.28-4.53-4.07h12Z"/><path class="cls-3" d="M384.12,223.77,381,220.9l-17.4-36.11h-.31l-18.35,39h10l-4.54-4.07,3.18-6.93h12.56l3.59,7.87h0L367,223.76h17.14Zm-29.18-13.91,5-10.79,4.9,10.79Z"/><polygon class="cls-3" points="424.12 223.77 421 220.9 409.95 204.33 419.44 190.42 422.82 187.29 415.42 187.29 415.42 187.29 412.4 187.29 415.42 190.42 415.42 190.42 407.97 201.36 400.62 190.42 400.62 190.39 403.36 187.29 400.62 187.29 400.6 187.29 385.36 187.29 388.22 189.9 398.38 205.17 388.33 220.64 384.94 223.77 392.34 223.77 392.34 223.77 395.36 223.77 392.34 220.64 392.34 220.64 400.42 208.24 408.7 220.64 405.94 223.77 424.12 223.77"/><path class="cls-4" d="M463.9,223.77V224c-11.67,1-15-5.26-23.29-19.28,7.71-.63,9.84-4.06,9.84-7.87,0-4.43-3-6.88-7.66-6.88H438v30.64l3.75,3.13H427.53l3.75-3.13V190.42l-3.75-3.13h16.05c8,0,13.91,2.77,13.91,8.91,0,4.75-3.49,8-8.65,9.59C453.42,213.87,457.65,220.54,463.9,223.77Z"/><path class="cls-4" d="M486.15,216.27l.26.26c-1.88,5.78-6,7.76-10.32,7.76-7.24,0-12.55-5.63-12.55-13.5,0-8.28,6-13,12.92-13,5.62,0,10.31,3.12,10.37,10.11H469.48v.88c0,6.31,3.07,10.37,8.75,10.37A12.84,12.84,0,0,0,486.15,216.27ZM469.74,206h10.47c0-3.54-1.67-6.1-4.53-6.1S470.41,202,469.74,206Z"/><path class="cls-4" d="M517.05,219.5c-1.25,3.59-3.28,4.79-5.84,4.79a5.1,5.1,0,0,1-5.21-3.8h-.26a9,9,0,0,1-7.55,3.8c-4.28,0-7.14-2.34-7.14-6.25a6.91,6.91,0,0,1,3.7-6.2h10.73v-3.91c0-4.12-1.72-5.63-5.26-5.63a13.79,13.79,0,0,0-7.77,2.61l-.26-.26a12.73,12.73,0,0,1,11.36-6.88c5.11,0,8,2.86,8,8v11.67c0,2.3,1,2.87,2.34,2.87a4.55,4.55,0,0,0,2.87-1.09Zm-11.57-1.15v-4.59h-7.29a5,5,0,0,0-1.2,3.44,3.25,3.25,0,0,0,3.49,3.6C502.09,220.8,503.71,220,505.48,218.35Z"/><path class="cls-4" d="M532.11,223.77H518.46l3.75-3.13V189.9l-3.34-2.81,9.49-4.17v37.72Z"/><path class="cls-4" d="M580.57,223.77H566.92l3.75-3.13V207.25c0-4.12-1.41-5.21-4.17-5.21a9.56,9.56,0,0,0-5.94,2.29v16.31l3.75,3.13H550.66l3.75-3.13V207.25c0-4.12-1.41-5.21-4.17-5.21a9.56,9.56,0,0,0-5.94,2.29v16.31l3.75,3.13H534.4l3.75-3.13v-16l-3.33-2.82,9.48-4.17-.78,4.59.26.26a13.17,13.17,0,0,1,9.85-4.74c3,0,5.63,1.09,6.56,4.53a13.21,13.21,0,0,1,9.7-4.53c3.64,0,6.93,1.67,6.93,7.45v15.42Z"/><path class="cls-4" d="M603.76,216.06c0,4.95-4.48,8.23-10.06,8.23a15.45,15.45,0,0,1-6.15-1.3l-3.28,1.4V215l4.64,6a10,10,0,0,0,4,.94c3.07,0,4.69-1.88,4.69-3.81,0-5.83-13.34-4.11-13.34-12.66,0-5.21,5.05-7.76,10.11-7.76a14.9,14.9,0,0,1,5.42,1l2.81-1.15v9.12l-5-6.3a8.53,8.53,0,0,0-2.6-.42c-3.34,0-4.9,1.88-4.9,3.65C590.16,208.92,603.76,207.25,603.76,216.06Z"/></svg>