<svg id="Layer_1" data-name="Layer 1" xmlns="http://www.w3.org/2000/svg" viewBox="0 0 1362.61 400"><defs><style>.cls-1{font-size:119.93px;font-family:NocturneSerif-Bold, Nocturne Serif;font-weight:700;letter-spacing:0.15em;}.cls-1,.cls-4{fill:#bfb67f;}.cls-2{letter-spacing:0.12em;}.cls-3{fill:#ba3e4a;}</style></defs><text class="cls-1" transform="translate(317.38 187.99)">P<tspan class="cls-2" x="99.18" y="0">L</tspan><tspan x="188.29" y="0">UNDER</tspan></text><rect class="cls-3" x="219.08" y="221.69" width="924.45" height="11.71"/><path class="cls-3" d="M534.65,301.84l-17.4-36.11h-.31l-18.35,39h10L504,300.65l3.18-6.93h12.56l3.59,7.86h0l-2.75,3.12h17.14Zm-26.1-11,5-10.79,4.9,10.79Z"/><rect class="cls-3" x="500.47" y="311.57" width="322.37" height="2.38"/><path class="cls-3" d="M567.92,271.36l-15.84,35.23h-.32L534.1,271.26l-3.28-3h17.82l-2.76,3.12,9.53,20.22,8.39-19.28-4.53-4.06h12Z"/><path class="cls-3" d="M603.19,304.71l-3.07-2.87-17.4-36.11h-.32l-18.34,39h10l-4.53-4.06,3.18-6.93h12.56l3.59,7.86h0l-2.75,3.11h17.13ZM574,290.8,579,280l4.89,10.79Z"/><polygon class="cls-3" points="643.2 304.71 640.08 301.84 629.03 285.27 638.51 271.36 641.9 268.24 634.5 268.24 634.5 268.24 631.48 268.24 634.5 271.36 634.5 271.36 627.05 282.31 619.7 271.36 619.7 271.33 622.44 268.24 619.7 268.24 619.67 268.24 604.43 268.24 607.3 270.84 617.46 286.11 607.4 301.58 604.02 304.71 611.42 304.71 611.42 304.71 614.44 304.71 611.42 301.58 611.42 301.58 619.49 289.18 627.78 301.58 625.02 304.71 643.2 304.71"/><path class="cls-4" d="M683,304.71V305c-11.68,1-15-5.26-23.3-19.28,7.72-.62,9.85-4.06,9.85-7.87,0-4.43-3-6.87-7.66-6.87H657v30.63l3.75,3.13H646.61l3.75-3.13V271.36l-3.75-3.12h16c8,0,13.92,2.76,13.92,8.91,0,4.74-3.49,8-8.65,9.58C672.5,294.81,676.72,301.48,683,304.71Z"/><path class="cls-4" d="M705.23,297.21l.26.26c-1.88,5.78-6,7.76-10.32,7.76-7.24,0-12.56-5.63-12.56-13.49,0-8.29,6-13,12.92-13,5.63,0,10.32,3.13,10.37,10.11H688.55v.88c0,6.31,3.08,10.37,8.76,10.37A12.88,12.88,0,0,0,705.23,297.21Zm-16.42-10.32h10.48c0-3.54-1.67-6.1-4.54-6.1S689.49,283,688.81,286.89Z"/><path class="cls-4" d="M736.13,300.44c-1.25,3.59-3.29,4.79-5.84,4.79a5.09,5.09,0,0,1-5.21-3.8h-.26a9,9,0,0,1-7.56,3.8c-4.27,0-7.13-2.34-7.13-6.25a6.93,6.93,0,0,1,3.69-6.2h10.74v-3.91c0-4.12-1.72-5.63-5.26-5.63a13.79,13.79,0,0,0-7.77,2.61l-.26-.26a12.71,12.71,0,0,1,11.36-6.88c5.11,0,8,2.87,8,8v11.68c0,2.29,1,2.86,2.34,2.86a4.55,4.55,0,0,0,2.87-1.09Zm-11.57-1.15v-4.58h-7.3a5,5,0,0,0-1.19,3.43,3.25,3.25,0,0,0,3.49,3.6C721.17,301.74,722.79,301,724.56,299.29Z"/><path class="cls-4" d="M751.19,304.71H737.53l3.76-3.13V270.84L738,268l9.48-4.17v37.72Z"/><path class="cls-4" d="M799.65,304.71H786l3.76-3.13V288.19c0-4.11-1.41-5.21-4.17-5.21a9.55,9.55,0,0,0-5.94,2.29v16.31l3.75,3.13H769.74l3.75-3.13V288.19c0-4.11-1.41-5.21-4.17-5.21a9.56,9.56,0,0,0-5.94,2.29v16.31l3.75,3.13H753.48l3.75-3.13v-16l-3.33-2.82,9.48-4.16-.78,4.58.26.26a13.17,13.17,0,0,1,9.85-4.74c3,0,5.62,1.09,6.56,4.53a13.23,13.23,0,0,1,9.69-4.53c3.65,0,6.93,1.67,6.93,7.45v15.42Z"/><path class="cls-4" d="M822.83,297c0,4.95-4.48,8.23-10.05,8.23a15.45,15.45,0,0,1-6.15-1.3l-3.28,1.41V296l4.63,6a9.93,9.93,0,0,0,4,.94c3.07,0,4.69-1.88,4.69-3.81,0-5.83-13.34-4.11-13.34-12.66,0-5.21,5-7.76,10.11-7.76a15,15,0,0,1,5.41,1l2.82-1.14v9.11l-5-6.3a8.59,8.59,0,0,0-2.61-.42c-3.33,0-4.9,1.88-4.9,3.65C809.23,289.86,822.83,288.19,822.83,297Z"/></svg>