<svg id="Layer_1" data-name="Layer 1" xmlns="http://www.w3.org/2000/svg" viewBox="0 0 1018.46 212"><defs><style>.cls-1{font-size:119.93px;font-family:NocturneSerif-Bold, Nocturne Serif;font-weight:700;letter-spacing:0.15em;}.cls-1,.cls-5{fill:#16140a;}.cls-2{letter-spacing:0.11em;}.cls-3{fill:#4ba8c5;}.cls-4{fill:#ba3e4a;}</style></defs><text class="cls-1" transform="translate(-2.4 91.15)">A<tspan class="cls-2" x="107.7" y="0">D</tspan><tspan x="219.23" y="0">VENTURES</tspan></text><rect class="cls-3" x="55.57" y="124.86" width="924.45" height="11.71"/><path class="cls-4" d="M365.77,199.89l-17.4-36.11h-.31l-18.34,39h9.95l-4.53-4.07,3.17-6.93h12.56l3.6,7.87h0l-2.76,3.12h17.14Zm-26.1-11,5-10.78,4.9,10.78Z"/><rect class="cls-4" x="331.59" y="209.61" width="322.37" height="2.38"/><path class="cls-4" d="M399,169.41,383.2,204.63h-.31L365.22,169.3l-3.28-3h17.82L377,169.41l9.53,20.22,8.39-19.28-4.53-4.07h12Z"/><path class="cls-4" d="M434.32,202.76l-3.08-2.87-17.4-36.11h-.31l-18.35,39h10l-4.54-4.07,3.18-6.93h12.56l3.59,7.87h0l-2.75,3.12h17.14Zm-29.18-13.92,5-10.78,4.9,10.78Z"/><polygon class="cls-4" points="474.32 202.76 471.2 199.89 460.15 183.32 469.63 169.41 473.02 166.28 465.62 166.28 465.62 166.28 462.6 166.28 465.62 169.41 465.62 169.41 458.17 180.35 450.82 169.41 450.82 169.38 453.56 166.28 450.82 166.28 450.8 166.28 435.56 166.28 438.42 168.89 448.58 184.16 438.53 199.63 435.14 202.76 442.54 202.76 442.54 202.76 445.56 202.76 442.54 199.63 442.54 199.63 450.62 187.23 458.9 199.63 456.14 202.76 474.32 202.76"/><path class="cls-5" d="M514.1,202.76V203c-11.67,1-15-5.27-23.29-19.28,7.71-.63,9.85-4.07,9.85-7.87,0-4.43-3-6.88-7.66-6.88h-4.85v30.64l3.75,3.13H477.73l3.75-3.13V169.41l-3.75-3.13h16c8,0,13.91,2.76,13.91,8.91,0,4.74-3.49,8-8.65,9.59C503.63,192.86,507.85,199.53,514.1,202.76Z"/><path class="cls-5" d="M536.35,195.25l.26.26c-1.88,5.79-6,7.77-10.32,7.77-7.24,0-12.55-5.63-12.55-13.5,0-8.28,6-13,12.92-13,5.63,0,10.32,3.12,10.37,10.1H519.68v.89c0,6.31,3.07,10.37,8.75,10.37A12.8,12.8,0,0,0,536.35,195.25Zm-16.41-10.31h10.47c0-3.55-1.67-6.1-4.53-6.1S520.61,181,519.94,184.94Z"/><path class="cls-5" d="M567.25,198.48c-1.25,3.6-3.28,4.8-5.84,4.8a5.1,5.1,0,0,1-5.21-3.81h-.26a9,9,0,0,1-7.55,3.81c-4.28,0-7.14-2.35-7.14-6.25a6.94,6.94,0,0,1,3.7-6.21h10.73v-3.9c0-4.12-1.72-5.63-5.26-5.63a13.79,13.79,0,0,0-7.76,2.6l-.27-.26a12.74,12.74,0,0,1,11.36-6.87c5.11,0,8,2.86,8,8v11.67c0,2.29,1,2.87,2.34,2.87a4.51,4.51,0,0,0,2.87-1.1Zm-11.57-1.14v-4.59h-7.29a5,5,0,0,0-1.2,3.44,3.25,3.25,0,0,0,3.49,3.6C552.3,199.79,553.91,199,555.68,197.34Z"/><path class="cls-5" d="M582.31,202.76H568.66l3.75-3.13V168.89l-3.34-2.82,9.49-4.16v37.72Z"/><path class="cls-5" d="M630.77,202.76H617.12l3.75-3.13V186.24c0-4.12-1.41-5.21-4.17-5.21a9.56,9.56,0,0,0-5.94,2.29v16.31l3.75,3.13H600.86l3.75-3.13V186.24c0-4.12-1.41-5.21-4.17-5.21a9.56,9.56,0,0,0-5.94,2.29v16.31l3.75,3.13H584.6l3.75-3.13v-16L585,180.82l9.48-4.17-.78,4.59.26.26a13.17,13.17,0,0,1,9.85-4.74c3,0,5.63,1.09,6.57,4.53a13.17,13.17,0,0,1,9.69-4.53c3.64,0,6.93,1.66,6.93,7.45v15.42Z"/><path class="cls-5" d="M654,195.05c0,4.95-4.48,8.23-10.06,8.23a15.45,15.45,0,0,1-6.15-1.3l-3.28,1.4V194l4.64,6.05a10,10,0,0,0,4,.94c3.07,0,4.69-1.88,4.69-3.81,0-5.83-13.34-4.11-13.34-12.66,0-5.21,5-7.76,10.11-7.76a14.9,14.9,0,0,1,5.42,1l2.81-1.15v9.12l-4.95-6.3a8.24,8.24,0,0,0-2.6-.42c-3.34,0-4.9,1.87-4.9,3.65C640.36,187.91,654,186.24,654,195.05Z"/></svg>