<svg id="Layer_1" data-name="Layer 1" xmlns="http://www.w3.org/2000/svg" viewBox="0 0 1366.11 461.49"><defs><style>.cls-1{font-size:143.6px;font-family:NocturneSerif-Bold, Nocturne Serif;font-weight:700;letter-spacing:0.15em;}.cls-1,.cls-7{fill:#bfb67f;}.cls-2{letter-spacing:0.11em;}.cls-3{letter-spacing:0.15em;}.cls-4{fill:#4ba8c5;}.cls-5{fill:#c1c1c1;}.cls-6{fill:#ba3e4a;}</style></defs><text class="cls-1" transform="translate(60.18 243.98)">A<tspan class="cls-2" x="128.95" y="0">D</tspan><tspan class="cls-3" x="262.5" y="0">VENTURES</tspan></text><rect class="cls-4" x="129.59" y="273.77" width="1106.93" height="14.02"/><polygon class="cls-5" points="649.22 382.4 659.4 382.4 655.06 387.22 641.26 387.22 647.95 379.58 649.22 382.4"/><polygon class="cls-5" points="662.92 378.51 661.3 380.3 649.22 380.3 651.6 377.61 650.76 376.36 656.69 369.59 662.19 377.83 662.92 378.51"/><polygon class="cls-5" points="673.85 352.56 673.85 366.4 664.33 376.95 663.79 376.46 658.12 367.96 672.54 351.48 673.85 352.56"/><polygon class="cls-5" points="683.79 353.32 685.64 353.32 683.79 355.37 683.79 353.32"/><path class="cls-5" d="M714.42,322l-2.27,2.46a1.23,1.23,0,0,1-1.73.09l-.62-.55-19.27,21.69,1.66,1.7a24.38,24.38,0,0,0-5.65-.6h-9.89l2-2.29-3.6-3.68a1.08,1.08,0,0,1,0-1.46l2.69-3a1.07,1.07,0,0,1,1.45-.14l5.22,4,19.27-21.68-.71-.64a1.23,1.23,0,0,1-.11-1.74l0,0,2.26-2.46a1.22,1.22,0,0,1,1.49-.26l4.81,2.57,3.11,4.47A1.24,1.24,0,0,1,714.42,322Z"/><rect class="cls-6" x="541.07" y="386.16" width="283.97" height="2.1"/><path class="cls-6" d="M561.07,380.3h14.76l-2.65-2.47-15-31.1h-.26L542.12,380.3h8.57l-3.9-3.5,2.74-6h10.82l3.09,6.78h0Zm-10.38-12L555,359l4.22,9.29Z"/><path class="cls-6" d="M591.72,348.88l3.9,3.5L588.4,369l-8.22-17.41,2.38-2.7H567.21l2.83,2.6,15.22,30.44h.26l13.65-30.34,2.92-2.7Z"/><path class="cls-6" d="M629.55,380.3l-2.64-2.47-15-31.1h-.27L595.86,380.3h8.57l-3.91-3.5,2.74-6h10.82l3.1,6.78-2.37,2.69h14.74Zm-25.13-12,4.31-9.29,4.22,9.29Z"/><polygon class="cls-6" points="664.88 380.3 649.22 380.3 651.6 377.61 650.76 376.36 644.46 366.93 637.5 377.61 640.1 380.3 631.13 380.3 634.04 377.61 642.71 364.28 633.96 351.13 631.49 348.88 646.99 348.88 644.64 351.55 644.64 351.58 650.97 361 657.38 351.58 654.78 348.88 663.76 348.88 660.84 351.58 652.67 363.56 656.69 369.59 662.19 377.83 662.92 378.51 664.88 380.3"/><path class="cls-7" d="M704,380.31v.22l-.52,0c-.53,0-1,.06-1.51.06s-1,0-1.43-.06l-.89-.1c-.29,0-.58-.1-.85-.15l-.42-.1c-.32-.08-.64-.17-.95-.28l-.6-.22-.3-.13a9.25,9.25,0,0,1-1.13-.58,1.78,1.78,0,0,1-.27-.17l-.26-.17c-.18-.12-.36-.24-.52-.37l-.23-.17-.45-.37c-.15-.12-.3-.26-.45-.39l-.22-.2-.43-.43-.74-.79q-.24-.27-.48-.57c-.48-.58-1-1.22-1.45-1.9l-.49-.7c-.57-.84-1.15-1.75-1.76-2.72l-.52-.85c-.27-.44-.54-.88-.81-1.34l-.56-.94-.58-1-.59-1-.62-1c6.64-.53,8.49-3.5,8.49-6.78a7,7,0,0,0-.29-2c-.77-2.52-3.06-3.88-6.31-3.88h-4.18v26.38l3.23,2.7H672.72l3.23-2.7v-26l-2-1.67-1.21-1h13.82c3.6,0,6.72.65,8.87,2a6.38,6.38,0,0,1,3.11,5.63c0,4.09-3,6.92-7.45,8.26C695,371.78,698.66,377.52,704,380.31Z"/><path class="cls-7" d="M716.39,376.31c-4.89,0-7.54-3.5-7.54-8.93v-.76h15c0-6-4.09-8.71-8.93-8.71-5.94,0-11.16,4.07-11.16,11.22,0,6.78,4.58,11.62,10.82,11.62,3.73,0,7.27-1.7,8.89-6.69l-.23-.22A11,11,0,0,1,716.39,376.31Zm-2.2-16.61c2.47,0,3.9,2.2,3.9,5.25h-9C709.66,361.59,711.63,359.7,714.19,359.7Z"/><path class="cls-7" d="M749.6,376.41a3.86,3.86,0,0,1-2.46.94c-1.13,0-2-.49-2-2.47V364.82c0-4.44-2.52-6.91-6.92-6.91a11,11,0,0,0-9.78,5.92l.22.22a11.94,11.94,0,0,1,6.69-2.24c3,0,4.53,1.31,4.53,4.85V370h-9.24a6,6,0,0,0-3.19,5.34c0,3.37,2.47,5.39,6.15,5.39a7.75,7.75,0,0,0,6.51-3.28h.22a4.38,4.38,0,0,0,4.49,3.28c2.2,0,4-1,5-4.13Zm-9.74-.79a6.33,6.33,0,0,1-4.31,2.1,2.79,2.79,0,0,1-3-3.09,4.32,4.32,0,0,1,1-2.94h6.3Z"/><path class="cls-7" d="M751,380.3H762.8l-3.23-2.69V345.12l-8.17,3.59,2.87,2.42v26.48Z"/><path class="cls-7" d="M792.78,380.3h11.76l-3.23-2.69V364.32c0-5-2.83-6.41-6-6.41a11.39,11.39,0,0,0-8.35,3.9c-.81-3-3.09-3.9-5.65-3.9a11.35,11.35,0,0,0-8.49,4.08l-.22-.22.67-3.95-8.17,3.59,2.89,2.42v13.78l-3.23,2.69h11.76l-3.24-2.69V363.55a8.25,8.25,0,0,1,5.12-2c2.38,0,3.59.94,3.59,4.49v11.54l-3.24,2.69h11.76l-3.24-2.69V363.55a8.25,8.25,0,0,1,5.12-2c2.38,0,3.59.94,3.59,4.49v11.54Z"/><path class="cls-7" d="M812.8,363c0-1.53,1.35-3.15,4.22-3.15a7.21,7.21,0,0,1,2.25.36l4.26,5.43v-7.85l-2.43,1a12.82,12.82,0,0,0-4.66-.89c-4.35,0-8.71,2.2-8.71,6.68,0,7.35,11.49,5.88,11.49,10.91,0,1.66-1.39,3.28-4,3.28a8.59,8.59,0,0,1-3.45-.81l-4-5.21v8.08l2.83-1.21a13.22,13.22,0,0,0,5.29,1.12c4.81,0,8.66-2.83,8.66-7.08C824.52,366.08,812.8,367.51,812.8,363Z"/></svg>