<svg id="Layer_1" data-name="Layer 1" xmlns="http://www.w3.org/2000/svg" viewBox="0 0 1016.16 210.55"><defs><style>.cls-1{font-size:119.93px;font-family:NocturneSerif-Bold, Nocturne Serif;font-weight:700;letter-spacing:0.15em;}.cls-1,.cls-5{fill:#bfb67f;}.cls-2{letter-spacing:0.11em;}.cls-3{fill:#4ba8c5;}.cls-4{fill:#ba3e4a;}</style></defs><text class="cls-1" transform="translate(-2.4 89.71)">A<tspan class="cls-2" x="107.7" y="0">D</tspan><tspan x="219.23" y="0">VENTURES</tspan></text><rect class="cls-3" x="55.57" y="123.41" width="924.45" height="11.71"/><path class="cls-4" d="M391.73,198.45l-17.4-36.11H374l-18.35,39h10l-4.54-4.06,3.18-6.93h12.56l3.59,7.87h0l-2.75,3.11h17.14Zm-26.1-11,5-10.79,4.9,10.79Z"/><rect class="cls-4" x="357.55" y="208.17" width="322.37" height="2.38"/><path class="cls-4" d="M425,168l-15.84,35.23h-.32l-17.66-35.33-3.28-3h17.82L403,168l9.54,20.22,8.39-19.28-4.53-4.06h12Z"/><path class="cls-4" d="M460.27,201.31l-3.07-2.86-17.41-36.11h-.31l-18.34,39h9.95l-4.53-4.06,3.18-6.93H442.3l3.59,7.87h0l-2.75,3.11h17.13ZM431.09,187.4l5-10.79L441,187.4Z"/><polygon class="cls-4" points="500.28 201.31 497.15 198.45 486.11 181.88 495.59 167.96 498.98 164.84 491.58 164.84 491.58 164.84 488.56 164.84 491.58 167.96 491.58 167.96 484.13 178.91 476.78 167.96 476.78 167.93 479.52 164.84 476.78 164.84 476.75 164.84 461.51 164.84 464.38 167.44 474.54 182.71 464.48 198.19 461.1 201.31 468.5 201.31 468.5 201.31 471.52 201.31 468.5 198.19 468.5 198.19 476.57 185.78 484.86 198.19 482.1 201.31 500.28 201.31"/><path class="cls-5" d="M540.05,201.31v.26c-11.67,1.05-14.95-5.26-23.29-19.28,7.72-.62,9.85-4.06,9.85-7.86,0-4.43-3-6.88-7.66-6.88h-4.84v30.64l3.75,3.12H503.68l3.76-3.12V168l-3.76-3.12h16.05c8,0,13.92,2.76,13.92,8.91,0,4.74-3.5,8-8.65,9.59C529.58,191.41,533.8,198.08,540.05,201.31Z"/><path class="cls-5" d="M562.31,193.81l.26.26c-1.88,5.78-6,7.76-10.32,7.76-7.24,0-12.56-5.62-12.56-13.49,0-8.29,6-13,12.92-13,5.63,0,10.32,3.13,10.37,10.11H545.63v.89c0,6.3,3.08,10.36,8.76,10.36A12.88,12.88,0,0,0,562.31,193.81Zm-16.42-10.32h10.48c0-3.54-1.67-6.09-4.54-6.09S546.57,179.58,545.89,183.49Z"/><path class="cls-5" d="M593.21,197c-1.25,3.59-3.29,4.79-5.84,4.79a5.08,5.08,0,0,1-5.21-3.8h-.26a9,9,0,0,1-7.56,3.8c-4.27,0-7.13-2.34-7.13-6.25a6.94,6.94,0,0,1,3.69-6.2h10.74v-3.91c0-4.11-1.72-5.63-5.26-5.63a13.79,13.79,0,0,0-7.77,2.61l-.26-.26a12.72,12.72,0,0,1,11.36-6.88c5.11,0,8,2.87,8,8V195c0,2.29,1,2.86,2.35,2.86a4.55,4.55,0,0,0,2.87-1.09Zm-11.57-1.15v-4.58h-7.3a5,5,0,0,0-1.19,3.44,3.25,3.25,0,0,0,3.49,3.59C578.25,198.34,579.87,197.56,581.64,195.89Z"/><path class="cls-5" d="M608.27,201.31H594.61l3.76-3.12V167.44L595,164.63l9.48-4.17v37.73Z"/><path class="cls-5" d="M656.72,201.31H643.07l3.75-3.12v-13.4c0-4.11-1.4-5.21-4.16-5.21a9.51,9.51,0,0,0-5.94,2.3v16.31l3.75,3.12H626.82l3.75-3.12v-13.4c0-4.11-1.41-5.21-4.17-5.21a9.53,9.53,0,0,0-5.94,2.3v16.31l3.75,3.12H610.56l3.75-3.12v-16L611,179.38l9.48-4.17-.78,4.58.26.26a13.17,13.17,0,0,1,9.85-4.74c3,0,5.62,1.1,6.56,4.53a13.23,13.23,0,0,1,9.69-4.53c3.65,0,6.93,1.67,6.93,7.45v15.43Z"/><path class="cls-5" d="M679.91,193.6c0,5-4.48,8.23-10,8.23a15.45,15.45,0,0,1-6.15-1.3l-3.28,1.41v-9.38l4.63,6a9.93,9.93,0,0,0,4,.94c3.07,0,4.69-1.88,4.69-3.8,0-5.84-13.34-4.12-13.34-12.66,0-5.22,5.05-7.77,10.1-7.77a15,15,0,0,1,5.42,1l2.82-1.14v9.12L673.82,178a8.59,8.59,0,0,0-2.61-.42c-3.33,0-4.9,1.88-4.9,3.65C666.31,186.46,679.91,184.79,679.91,193.6Z"/></svg>